  0
SECTION
  2
BLOCKS
  0
ENDSEC
  0
SECTION
  2
ENTITIES
  0
LINE
  8
0
 10
0
 11
0
 20
0
 21
430
  0
LINE
  8
0
 10
0
 11
454
 20
430
 21
430
  0
LINE
  8
0
 10
454
 11
454
 20
430
 21
0
  0
LINE
  8
0
 10
454
 11
433
 20
0
 21
0
  0
LINE
  8
0
 10
433
 11
433
 20
0
 21
-10
  0
LINE
  8
0
 10
433
 11
413
 20
-10
 21
-10
  0
LINE
  8
0
 10
413
 11
413
 20
-10
 21
0
  0
LINE
  8
0
 10
413
 11
41
 20
0
 21
0
  0
LINE
  8
0
 10
41
 11
41
 20
0
 21
-10
  0
LINE
  8
0
 10
41
 11
21
 20
-10
 21
-10
  0
LINE
  8
0
 10
21
 11
21
 20
-10
 21
0
  0
LINE
  8
0
 10
21
 11
0
 20
0
 21
0
  0
LINE
  8
0
 10
42.7
 11
42.721
 20
47
 21
47.326
  0
LINE
  8
0
 10
42.721
 11
42.782
 20
47.326
 21
47.647
  0
LINE
  8
0
 10
42.782
 11
42.883
 20
47.647
 21
47.957
  0
LINE
  8
0
 10
42.883
 11
43.022
 20
47.957
 21
48.253
  0
LINE
  8
0
 10
43.022
 11
43.197
 20
48.253
 21
48.528
  0
LINE
  8
0
 10
43.197
 11
43.405
 20
48.528
 21
48.78
  0
LINE
  8
0
 10
43.405
 11
43.643
 20
48.78
 21
49.003
  0
LINE
  8
0
 10
43.643
 11
43.907
 20
49.003
 21
49.195
  0
LINE
  8
0
 10
43.907
 11
44.193
 20
49.195
 21
49.353
  0
LINE
  8
0
 10
44.193
 11
44.497
 20
49.353
 21
49.473
  0
LINE
  8
0
 10
44.497
 11
44.813
 20
49.473
 21
49.554
  0
LINE
  8
0
 10
44.813
 11
45.137
 20
49.554
 21
49.595
  0
LINE
  8
0
 10
45.137
 11
45.463
 20
49.595
 21
49.595
  0
LINE
  8
0
 10
45.463
 11
45.787
 20
49.595
 21
49.554
  0
LINE
  8
0
 10
45.787
 11
46.103
 20
49.554
 21
49.473
  0
LINE
  8
0
 10
46.103
 11
46.407
 20
49.473
 21
49.353
  0
LINE
  8
0
 10
46.407
 11
46.693
 20
49.353
 21
49.195
  0
LINE
  8
0
 10
46.693
 11
46.957
 20
49.195
 21
49.003
  0
LINE
  8
0
 10
46.957
 11
47.195
 20
49.003
 21
48.78
  0
LINE
  8
0
 10
47.195
 11
47.403
 20
48.78
 21
48.528
  0
LINE
  8
0
 10
47.403
 11
47.578
 20
48.528
 21
48.253
  0
LINE
  8
0
 10
47.578
 11
47.717
 20
48.253
 21
47.957
  0
LINE
  8
0
 10
47.717
 11
47.818
 20
47.957
 21
47.647
  0
LINE
  8
0
 10
47.818
 11
47.879
 20
47.647
 21
47.326
  0
LINE
  8
0
 10
47.879
 11
47.9
 20
47.326
 21
47
  0
LINE
  8
0
 10
47.9
 11
47.879
 20
47
 21
46.674
  0
LINE
  8
0
 10
47.879
 11
47.818
 20
46.674
 21
46.353
  0
LINE
  8
0
 10
47.818
 11
47.717
 20
46.353
 21
46.043
  0
LINE
  8
0
 10
47.717
 11
47.578
 20
46.043
 21
45.747
  0
LINE
  8
0
 10
47.578
 11
47.403
 20
45.747
 21
45.472
  0
LINE
  8
0
 10
47.403
 11
47.195
 20
45.472
 21
45.22
  0
LINE
  8
0
 10
47.195
 11
46.957
 20
45.22
 21
44.997
  0
LINE
  8
0
 10
46.957
 11
46.693
 20
44.997
 21
44.805
  0
LINE
  8
0
 10
46.693
 11
46.407
 20
44.805
 21
44.647
  0
LINE
  8
0
 10
46.407
 11
46.103
 20
44.647
 21
44.527
  0
LINE
  8
0
 10
46.103
 11
45.787
 20
44.527
 21
44.446
  0
LINE
  8
0
 10
45.787
 11
45.463
 20
44.446
 21
44.405
  0
LINE
  8
0
 10
45.463
 11
45.137
 20
44.405
 21
44.405
  0
LINE
  8
0
 10
45.137
 11
44.813
 20
44.405
 21
44.446
  0
LINE
  8
0
 10
44.813
 11
44.497
 20
44.446
 21
44.527
  0
LINE
  8
0
 10
44.497
 11
44.193
 20
44.527
 21
44.647
  0
LINE
  8
0
 10
44.193
 11
43.907
 20
44.647
 21
44.805
  0
LINE
  8
0
 10
43.907
 11
43.643
 20
44.805
 21
44.997
  0
LINE
  8
0
 10
43.643
 11
43.405
 20
44.997
 21
45.22
  0
LINE
  8
0
 10
43.405
 11
43.197
 20
45.22
 21
45.472
  0
LINE
  8
0
 10
43.197
 11
43.022
 20
45.472
 21
45.747
  0
LINE
  8
0
 10
43.022
 11
42.883
 20
45.747
 21
46.043
  0
LINE
  8
0
 10
42.883
 11
42.782
 20
46.043
 21
46.353
  0
LINE
  8
0
 10
42.782
 11
42.721
 20
46.353
 21
46.674
  0
LINE
  8
0
 10
42.721
 11
42.7
 20
46.674
 21
47
  0
LINE
  8
0
 10
42.7
 11
42.721
 20
410
 21
410.326
  0
LINE
  8
0
 10
42.721
 11
42.782
 20
410.326
 21
410.647
  0
LINE
  8
0
 10
42.782
 11
42.883
 20
410.647
 21
410.957
  0
LINE
  8
0
 10
42.883
 11
43.022
 20
410.957
 21
411.253
  0
LINE
  8
0
 10
43.022
 11
43.197
 20
411.253
 21
411.528
  0
LINE
  8
0
 10
43.197
 11
43.405
 20
411.528
 21
411.78
  0
LINE
  8
0
 10
43.405
 11
43.643
 20
411.78
 21
412.003
  0
LINE
  8
0
 10
43.643
 11
43.907
 20
412.003
 21
412.195
  0
LINE
  8
0
 10
43.907
 11
44.193
 20
412.195
 21
412.353
  0
LINE
  8
0
 10
44.193
 11
44.497
 20
412.353
 21
412.473
  0
LINE
  8
0
 10
44.497
 11
44.813
 20
412.473
 21
412.554
  0
LINE
  8
0
 10
44.813
 11
45.137
 20
412.554
 21
412.595
  0
LINE
  8
0
 10
45.137
 11
45.463
 20
412.595
 21
412.595
  0
LINE
  8
0
 10
45.463
 11
45.787
 20
412.595
 21
412.554
  0
LINE
  8
0
 10
45.787
 11
46.103
 20
412.554
 21
412.473
  0
LINE
  8
0
 10
46.103
 11
46.407
 20
412.473
 21
412.353
  0
LINE
  8
0
 10
46.407
 11
46.693
 20
412.353
 21
412.195
  0
LINE
  8
0
 10
46.693
 11
46.957
 20
412.195
 21
412.003
  0
LINE
  8
0
 10
46.957
 11
47.195
 20
412.003
 21
411.78
  0
LINE
  8
0
 10
47.195
 11
47.403
 20
411.78
 21
411.528
  0
LINE
  8
0
 10
47.403
 11
47.578
 20
411.528
 21
411.253
  0
LINE
  8
0
 10
47.578
 11
47.717
 20
411.253
 21
410.957
  0
LINE
  8
0
 10
47.717
 11
47.818
 20
410.957
 21
410.647
  0
LINE
  8
0
 10
47.818
 11
47.879
 20
410.647
 21
410.326
  0
LINE
  8
0
 10
47.879
 11
47.9
 20
410.326
 21
410
  0
LINE
  8
0
 10
47.9
 11
47.879
 20
410
 21
409.674
  0
LINE
  8
0
 10
47.879
 11
47.818
 20
409.674
 21
409.353
  0
LINE
  8
0
 10
47.818
 11
47.717
 20
409.353
 21
409.043
  0
LINE
  8
0
 10
47.717
 11
47.578
 20
409.043
 21
408.747
  0
LINE
  8
0
 10
47.578
 11
47.403
 20
408.747
 21
408.472
  0
LINE
  8
0
 10
47.403
 11
47.195
 20
408.472
 21
408.22
  0
LINE
  8
0
 10
47.195
 11
46.957
 20
408.22
 21
407.997
  0
LINE
  8
0
 10
46.957
 11
46.693
 20
407.997
 21
407.805
  0
LINE
  8
0
 10
46.693
 11
46.407
 20
407.805
 21
407.647
  0
LINE
  8
0
 10
46.407
 11
46.103
 20
407.647
 21
407.527
  0
LINE
  8
0
 10
46.103
 11
45.787
 20
407.527
 21
407.446
  0
LINE
  8
0
 10
45.787
 11
45.463
 20
407.446
 21
407.405
  0
LINE
  8
0
 10
45.463
 11
45.137
 20
407.405
 21
407.405
  0
LINE
  8
0
 10
45.137
 11
44.813
 20
407.405
 21
407.446
  0
LINE
  8
0
 10
44.813
 11
44.497
 20
407.446
 21
407.527
  0
LINE
  8
0
 10
44.497
 11
44.193
 20
407.527
 21
407.647
  0
LINE
  8
0
 10
44.193
 11
43.907
 20
407.647
 21
407.805
  0
LINE
  8
0
 10
43.907
 11
43.643
 20
407.805
 21
407.997
  0
LINE
  8
0
 10
43.643
 11
43.405
 20
407.997
 21
408.22
  0
LINE
  8
0
 10
43.405
 11
43.197
 20
408.22
 21
408.472
  0
LINE
  8
0
 10
43.197
 11
43.022
 20
408.472
 21
408.747
  0
LINE
  8
0
 10
43.022
 11
42.883
 20
408.747
 21
409.043
  0
LINE
  8
0
 10
42.883
 11
42.782
 20
409.043
 21
409.353
  0
LINE
  8
0
 10
42.782
 11
42.721
 20
409.353
 21
409.674
  0
LINE
  8
0
 10
42.721
 11
42.7
 20
409.674
 21
410
  0
LINE
  8
0
 10
62
 11
62
 20
80
 21
410
  0
LINE
  8
0
 10
62
 11
392
 20
410
 21
410
  0
LINE
  8
0
 10
392
 11
392
 20
410
 21
80
  0
LINE
  8
0
 10
392
 11
62
 20
80
 21
80
  0
LINE
  8
0
 10
77
 11
77
 20
235
 21
255
  0
LINE
  8
0
 10
77
 11
178.106
 20
255
 21
255
  0
LINE
  8
0
 10
178.106
 11
178.571
 20
255
 21
257.434
  0
LINE
  8
0
 10
178.571
 11
180.511
 20
257.434
 21
263.406
  0
LINE
  8
0
 10
180.511
 11
183.185
 20
263.406
 21
269.088
  0
LINE
  8
0
 10
183.185
 11
186.549
 20
269.088
 21
274.389
  0
LINE
  8
0
 10
186.549
 11
190.552
 20
274.389
 21
279.227
  0
LINE
  8
0
 10
190.552
 11
195.129
 20
279.227
 21
283.526
  0
LINE
  8
0
 10
195.129
 11
200.209
 20
283.526
 21
287.216
  0
LINE
  8
0
 10
200.209
 11
205.711
 20
287.216
 21
290.241
  0
LINE
  8
0
 10
205.711
 11
211.549
 20
290.241
 21
292.553
  0
LINE
  8
0
 10
211.549
 11
217
 20
292.553
 21
293.952
  0
LINE
  8
0
 10
217
 11
217
 20
293.952
 21
395
  0
LINE
  8
0
 10
217
 11
237
 20
395
 21
395
  0
LINE
  8
0
 10
237
 11
237
 20
395
 21
293.952
  0
LINE
  8
0
 10
237
 11
242.451
 20
293.952
 21
292.553
  0
LINE
  8
0
 10
242.451
 11
248.289
 20
292.553
 21
290.241
  0
LINE
  8
0
 10
248.289
 11
253.791
 20
290.241
 21
287.216
  0
LINE
  8
0
 10
253.791
 11
258.871
 20
287.216
 21
283.526
  0
LINE
  8
0
 10
258.871
 11
263.448
 20
283.526
 21
279.227
  0
LINE
  8
0
 10
263.448
 11
267.451
 20
279.227
 21
274.389
  0
LINE
  8
0
 10
267.451
 11
270.815
 20
274.389
 21
269.088
  0
LINE
  8
0
 10
270.815
 11
273.489
 20
269.088
 21
263.406
  0
LINE
  8
0
 10
273.489
 11
275.429
 20
263.406
 21
257.434
  0
LINE
  8
0
 10
275.429
 11
275.894
 20
257.434
 21
255
  0
LINE
  8
0
 10
275.894
 11
377
 20
255
 21
255
  0
LINE
  8
0
 10
377
 11
377
 20
255
 21
235
  0
LINE
  8
0
 10
377
 11
275.894
 20
235
 21
235
  0
LINE
  8
0
 10
275.894
 11
275.429
 20
235
 21
232.566
  0
LINE
  8
0
 10
275.429
 11
273.489
 20
232.566
 21
226.594
  0
LINE
  8
0
 10
273.489
 11
270.815
 20
226.594
 21
220.912
  0
LINE
  8
0
 10
270.815
 11
267.451
 20
220.912
 21
215.611
  0
LINE
  8
0
 10
267.451
 11
263.448
 20
215.611
 21
210.773
  0
LINE
  8
0
 10
263.448
 11
258.871
 20
210.773
 21
206.474
  0
LINE
  8
0
 10
258.871
 11
253.791
 20
206.474
 21
202.784
  0
LINE
  8
0
 10
253.791
 11
248.289
 20
202.784
 21
199.759
  0
LINE
  8
0
 10
248.289
 11
242.451
 20
199.759
 21
197.447
  0
LINE
  8
0
 10
242.451
 11
237
 20
197.447
 21
196.048
  0
LINE
  8
0
 10
237
 11
237
 20
196.048
 21
95
  0
LINE
  8
0
 10
237
 11
217
 20
95
 21
95
  0
LINE
  8
0
 10
217
 11
217
 20
95
 21
196.048
  0
LINE
  8
0
 10
217
 11
211.549
 20
196.048
 21
197.447
  0
LINE
  8
0
 10
211.549
 11
205.711
 20
197.447
 21
199.759
  0
LINE
  8
0
 10
205.711
 11
200.209
 20
199.759
 21
202.784
  0
LINE
  8
0
 10
200.209
 11
195.129
 20
202.784
 21
206.474
  0
LINE
  8
0
 10
195.129
 11
190.552
 20
206.474
 21
210.773
  0
LINE
  8
0
 10
190.552
 11
186.549
 20
210.773
 21
215.611
  0
LINE
  8
0
 10
186.549
 11
183.185
 20
215.611
 21
220.912
  0
LINE
  8
0
 10
183.185
 11
180.511
 20
220.912
 21
226.594
  0
LINE
  8
0
 10
180.511
 11
178.571
 20
226.594
 21
232.566
  0
LINE
  8
0
 10
178.571
 11
178.106
 20
232.566
 21
235
  0
LINE
  8
0
 10
178.106
 11
77
 20
235
 21
235
  0
LINE
  8
0
 10
83.4
 11
83.413
 20
245
 21
245.201
  0
LINE
  8
0
 10
83.413
 11
83.45
 20
245.201
 21
245.398
  0
LINE
  8
0
 10
83.45
 11
83.512
 20
245.398
 21
245.589
  0
LINE
  8
0
 10
83.512
 11
83.598
 20
245.589
 21
245.771
  0
LINE
  8
0
 10
83.598
 11
83.706
 20
245.771
 21
245.94
  0
LINE
  8
0
 10
83.706
 11
83.834
 20
245.94
 21
246.095
  0
LINE
  8
0
 10
83.834
 11
83.98
 20
246.095
 21
246.233
  0
LINE
  8
0
 10
83.98
 11
84.143
 20
246.233
 21
246.351
  0
LINE
  8
0
 10
84.143
 11
84.319
 20
246.351
 21
246.448
  0
LINE
  8
0
 10
84.319
 11
84.506
 20
246.448
 21
246.522
  0
LINE
  8
0
 10
84.506
 11
84.7
 20
246.522
 21
246.572
  0
LINE
  8
0
 10
84.7
 11
84.9
 20
246.572
 21
246.597
  0
LINE
  8
0
 10
84.9
 11
85.1
 20
246.597
 21
246.597
  0
LINE
  8
0
 10
85.1
 11
85.3
 20
246.597
 21
246.572
  0
LINE
  8
0
 10
85.3
 11
85.494
 20
246.572
 21
246.522
  0
LINE
  8
0
 10
85.494
 11
85.681
 20
246.522
 21
246.448
  0
LINE
  8
0
 10
85.681
 11
85.857
 20
246.448
 21
246.351
  0
LINE
  8
0
 10
85.857
 11
86.02
 20
246.351
 21
246.233
  0
LINE
  8
0
 10
86.02
 11
86.166
 20
246.233
 21
246.095
  0
LINE
  8
0
 10
86.166
 11
86.294
 20
246.095
 21
245.94
  0
LINE
  8
0
 10
86.294
 11
86.402
 20
245.94
 21
245.771
  0
LINE
  8
0
 10
86.402
 11
86.488
 20
245.771
 21
245.589
  0
LINE
  8
0
 10
86.488
 11
86.55
 20
245.589
 21
245.398
  0
LINE
  8
0
 10
86.55
 11
86.587
 20
245.398
 21
245.201
  0
LINE
  8
0
 10
86.587
 11
86.6
 20
245.201
 21
245
  0
LINE
  8
0
 10
86.6
 11
86.587
 20
245
 21
244.799
  0
LINE
  8
0
 10
86.587
 11
86.55
 20
244.799
 21
244.602
  0
LINE
  8
0
 10
86.55
 11
86.488
 20
244.602
 21
244.411
  0
LINE
  8
0
 10
86.488
 11
86.402
 20
244.411
 21
244.229
  0
LINE
  8
0
 10
86.402
 11
86.294
 20
244.229
 21
244.06
  0
LINE
  8
0
 10
86.294
 11
86.166
 20
244.06
 21
243.905
  0
LINE
  8
0
 10
86.166
 11
86.02
 20
243.905
 21
243.767
  0
LINE
  8
0
 10
86.02
 11
85.857
 20
243.767
 21
243.649
  0
LINE
  8
0
 10
85.857
 11
85.681
 20
243.649
 21
243.552
  0
LINE
  8
0
 10
85.681
 11
85.494
 20
243.552
 21
243.478
  0
LINE
  8
0
 10
85.494
 11
85.3
 20
243.478
 21
243.428
  0
LINE
  8
0
 10
85.3
 11
85.1
 20
243.428
 21
243.403
  0
LINE
  8
0
 10
85.1
 11
84.9
 20
243.403
 21
243.403
  0
LINE
  8
0
 10
84.9
 11
84.7
 20
243.403
 21
243.428
  0
LINE
  8
0
 10
84.7
 11
84.506
 20
243.428
 21
243.478
  0
LINE
  8
0
 10
84.506
 11
84.319
 20
243.478
 21
243.552
  0
LINE
  8
0
 10
84.319
 11
84.143
 20
243.552
 21
243.649
  0
LINE
  8
0
 10
84.143
 11
83.98
 20
243.649
 21
243.767
  0
LINE
  8
0
 10
83.98
 11
83.834
 20
243.767
 21
243.905
  0
LINE
  8
0
 10
83.834
 11
83.706
 20
243.905
 21
244.06
  0
LINE
  8
0
 10
83.706
 11
83.598
 20
244.06
 21
244.229
  0
LINE
  8
0
 10
83.598
 11
83.512
 20
244.229
 21
244.411
  0
LINE
  8
0
 10
83.512
 11
83.45
 20
244.411
 21
244.602
  0
LINE
  8
0
 10
83.45
 11
83.413
 20
244.602
 21
244.799
  0
LINE
  8
0
 10
83.413
 11
83.4
 20
244.799
 21
245
  0
LINE
  8
0
 10
222.9
 11
222.932
 20
245
 21
245.514
  0
LINE
  8
0
 10
222.932
 11
223.029
 20
245.514
 21
246.02
  0
LINE
  8
0
 10
223.029
 11
223.188
 20
246.02
 21
246.509
  0
LINE
  8
0
 10
223.188
 11
223.407
 20
246.509
 21
246.975
  0
LINE
  8
0
 10
223.407
 11
223.683
 20
246.975
 21
247.41
  0
LINE
  8
0
 10
223.683
 11
224.011
 20
247.41
 21
247.807
  0
LINE
  8
0
 10
224.011
 11
224.387
 20
247.807
 21
248.159
  0
LINE
  8
0
 10
224.387
 11
224.803
 20
248.159
 21
248.462
  0
LINE
  8
0
 10
224.803
 11
225.254
 20
248.462
 21
248.71
  0
LINE
  8
0
 10
225.254
 11
225.733
 20
248.71
 21
248.899
  0
LINE
  8
0
 10
225.733
 11
226.232
 20
248.899
 21
249.027
  0
LINE
  8
0
 10
226.232
 11
226.743
 20
249.027
 21
249.092
  0
LINE
  8
0
 10
226.743
 11
227.257
 20
249.092
 21
249.092
  0
LINE
  8
0
 10
227.257
 11
227.768
 20
249.092
 21
249.027
  0
LINE
  8
0
 10
227.768
 11
228.267
 20
249.027
 21
248.899
  0
LINE
  8
0
 10
228.267
 11
228.746
 20
248.899
 21
248.71
  0
LINE
  8
0
 10
228.746
 11
229.197
 20
248.71
 21
248.462
  0
LINE
  8
0
 10
229.197
 11
229.613
 20
248.462
 21
248.159
  0
LINE
  8
0
 10
229.613
 11
229.989
 20
248.159
 21
247.807
  0
LINE
  8
0
 10
229.989
 11
230.317
 20
247.807
 21
247.41
  0
LINE
  8
0
 10
230.317
 11
230.593
 20
247.41
 21
246.975
  0
LINE
  8
0
 10
230.593
 11
230.812
 20
246.975
 21
246.509
  0
LINE
  8
0
 10
230.812
 11
230.971
 20
246.509
 21
246.02
  0
LINE
  8
0
 10
230.971
 11
231.068
 20
246.02
 21
245.514
  0
LINE
  8
0
 10
231.068
 11
231.1
 20
245.514
 21
245
  0
LINE
  8
0
 10
231.1
 11
231.068
 20
245
 21
244.486
  0
LINE
  8
0
 10
231.068
 11
230.971
 20
244.486
 21
243.98
  0
LINE
  8
0
 10
230.971
 11
230.812
 20
243.98
 21
243.491
  0
LINE
  8
0
 10
230.812
 11
230.593
 20
243.491
 21
243.025
  0
LINE
  8
0
 10
230.593
 11
230.317
 20
243.025
 21
242.59
  0
LINE
  8
0
 10
230.317
 11
229.989
 20
242.59
 21
242.193
  0
LINE
  8
0
 10
229.989
 11
229.613
 20
242.193
 21
241.841
  0
LINE
  8
0
 10
229.613
 11
229.197
 20
241.841
 21
241.538
  0
LINE
  8
0
 10
229.197
 11
228.746
 20
241.538
 21
241.29
  0
LINE
  8
0
 10
228.746
 11
228.267
 20
241.29
 21
241.101
  0
LINE
  8
0
 10
228.267
 11
227.768
 20
241.101
 21
240.973
  0
LINE
  8
0
 10
227.768
 11
227.257
 20
240.973
 21
240.908
  0
LINE
  8
0
 10
227.257
 11
226.743
 20
240.908
 21
240.908
  0
LINE
  8
0
 10
226.743
 11
226.232
 20
240.908
 21
240.973
  0
LINE
  8
0
 10
226.232
 11
225.733
 20
240.973
 21
241.101
  0
LINE
  8
0
 10
225.733
 11
225.254
 20
241.101
 21
241.29
  0
LINE
  8
0
 10
225.254
 11
224.803
 20
241.29
 21
241.538
  0
LINE
  8
0
 10
224.803
 11
224.387
 20
241.538
 21
241.841
  0
LINE
  8
0
 10
224.387
 11
224.011
 20
241.841
 21
242.193
  0
LINE
  8
0
 10
224.011
 11
223.683
 20
242.193
 21
242.59
  0
LINE
  8
0
 10
223.683
 11
223.407
 20
242.59
 21
243.025
  0
LINE
  8
0
 10
223.407
 11
223.188
 20
243.025
 21
243.491
  0
LINE
  8
0
 10
223.188
 11
223.029
 20
243.491
 21
243.98
  0
LINE
  8
0
 10
223.029
 11
222.932
 20
243.98
 21
244.486
  0
LINE
  8
0
 10
222.932
 11
222.9
 20
244.486
 21
245
  0
LINE
  8
0
 10
225.4
 11
225.413
 20
103
 21
103.201
  0
LINE
  8
0
 10
225.413
 11
225.45
 20
103.201
 21
103.398
  0
LINE
  8
0
 10
225.45
 11
225.512
 20
103.398
 21
103.589
  0
LINE
  8
0
 10
225.512
 11
225.598
 20
103.589
 21
103.771
  0
LINE
  8
0
 10
225.598
 11
225.706
 20
103.771
 21
103.94
  0
LINE
  8
0
 10
225.706
 11
225.834
 20
103.94
 21
104.095
  0
LINE
  8
0
 10
225.834
 11
225.98
 20
104.095
 21
104.233
  0
LINE
  8
0
 10
225.98
 11
226.143
 20
104.233
 21
104.351
  0
LINE
  8
0
 10
226.143
 11
226.319
 20
104.351
 21
104.448
  0
LINE
  8
0
 10
226.319
 11
226.506
 20
104.448
 21
104.522
  0
LINE
  8
0
 10
226.506
 11
226.7
 20
104.522
 21
104.572
  0
LINE
  8
0
 10
226.7
 11
226.9
 20
104.572
 21
104.597
  0
LINE
  8
0
 10
226.9
 11
227.1
 20
104.597
 21
104.597
  0
LINE
  8
0
 10
227.1
 11
227.3
 20
104.597
 21
104.572
  0
LINE
  8
0
 10
227.3
 11
227.494
 20
104.572
 21
104.522
  0
LINE
  8
0
 10
227.494
 11
227.681
 20
104.522
 21
104.448
  0
LINE
  8
0
 10
227.681
 11
227.857
 20
104.448
 21
104.351
  0
LINE
  8
0
 10
227.857
 11
228.02
 20
104.351
 21
104.233
  0
LINE
  8
0
 10
228.02
 11
228.166
 20
104.233
 21
104.095
  0
LINE
  8
0
 10
228.166
 11
228.294
 20
104.095
 21
103.94
  0
LINE
  8
0
 10
228.294
 11
228.402
 20
103.94
 21
103.771
  0
LINE
  8
0
 10
228.402
 11
228.488
 20
103.771
 21
103.589
  0
LINE
  8
0
 10
228.488
 11
228.55
 20
103.589
 21
103.398
  0
LINE
  8
0
 10
228.55
 11
228.587
 20
103.398
 21
103.201
  0
LINE
  8
0
 10
228.587
 11
228.6
 20
103.201
 21
103
  0
LINE
  8
0
 10
228.6
 11
228.587
 20
103
 21
102.799
  0
LINE
  8
0
 10
228.587
 11
228.55
 20
102.799
 21
102.602
  0
LINE
  8
0
 10
228.55
 11
228.488
 20
102.602
 21
102.411
  0
LINE
  8
0
 10
228.488
 11
228.402
 20
102.411
 21
102.229
  0
LINE
  8
0
 10
228.402
 11
228.294
 20
102.229
 21
102.06
  0
LINE
  8
0
 10
228.294
 11
228.166
 20
102.06
 21
101.905
  0
LINE
  8
0
 10
228.166
 11
228.02
 20
101.905
 21
101.767
  0
LINE
  8
0
 10
228.02
 11
227.857
 20
101.767
 21
101.649
  0
LINE
  8
0
 10
227.857
 11
227.681
 20
101.649
 21
101.552
  0
LINE
  8
0
 10
227.681
 11
227.494
 20
101.552
 21
101.478
  0
LINE
  8
0
 10
227.494
 11
227.3
 20
101.478
 21
101.428
  0
LINE
  8
0
 10
227.3
 11
227.1
 20
101.428
 21
101.403
  0
LINE
  8
0
 10
227.1
 11
226.9
 20
101.403
 21
101.403
  0
LINE
  8
0
 10
226.9
 11
226.7
 20
101.403
 21
101.428
  0
LINE
  8
0
 10
226.7
 11
226.506
 20
101.428
 21
101.478
  0
LINE
  8
0
 10
226.506
 11
226.319
 20
101.478
 21
101.552
  0
LINE
  8
0
 10
226.319
 11
226.143
 20
101.552
 21
101.649
  0
LINE
  8
0
 10
226.143
 11
225.98
 20
101.649
 21
101.767
  0
LINE
  8
0
 10
225.98
 11
225.834
 20
101.767
 21
101.905
  0
LINE
  8
0
 10
225.834
 11
225.706
 20
101.905
 21
102.06
  0
LINE
  8
0
 10
225.706
 11
225.598
 20
102.06
 21
102.229
  0
LINE
  8
0
 10
225.598
 11
225.512
 20
102.229
 21
102.411
  0
LINE
  8
0
 10
225.512
 11
225.45
 20
102.411
 21
102.602
  0
LINE
  8
0
 10
225.45
 11
225.413
 20
102.602
 21
102.799
  0
LINE
  8
0
 10
225.413
 11
225.4
 20
102.799
 21
103
  0
LINE
  8
0
 10
225.4
 11
225.413
 20
387
 21
387.201
  0
LINE
  8
0
 10
225.413
 11
225.45
 20
387.201
 21
387.398
  0
LINE
  8
0
 10
225.45
 11
225.512
 20
387.398
 21
387.589
  0
LINE
  8
0
 10
225.512
 11
225.598
 20
387.589
 21
387.771
  0
LINE
  8
0
 10
225.598
 11
225.706
 20
387.771
 21
387.94
  0
LINE
  8
0
 10
225.706
 11
225.834
 20
387.94
 21
388.095
  0
LINE
  8
0
 10
225.834
 11
225.98
 20
388.095
 21
388.233
  0
LINE
  8
0
 10
225.98
 11
226.143
 20
388.233
 21
388.351
  0
LINE
  8
0
 10
226.143
 11
226.319
 20
388.351
 21
388.448
  0
LINE
  8
0
 10
226.319
 11
226.506
 20
388.448
 21
388.522
  0
LINE
  8
0
 10
226.506
 11
226.7
 20
388.522
 21
388.572
  0
LINE
  8
0
 10
226.7
 11
226.9
 20
388.572
 21
388.597
  0
LINE
  8
0
 10
226.9
 11
227.1
 20
388.597
 21
388.597
  0
LINE
  8
0
 10
227.1
 11
227.3
 20
388.597
 21
388.572
  0
LINE
  8
0
 10
227.3
 11
227.494
 20
388.572
 21
388.522
  0
LINE
  8
0
 10
227.494
 11
227.681
 20
388.522
 21
388.448
  0
LINE
  8
0
 10
227.681
 11
227.857
 20
388.448
 21
388.351
  0
LINE
  8
0
 10
227.857
 11
228.02
 20
388.351
 21
388.233
  0
LINE
  8
0
 10
228.02
 11
228.166
 20
388.233
 21
388.095
  0
LINE
  8
0
 10
228.166
 11
228.294
 20
388.095
 21
387.94
  0
LINE
  8
0
 10
228.294
 11
228.402
 20
387.94
 21
387.771
  0
LINE
  8
0
 10
228.402
 11
228.488
 20
387.771
 21
387.589
  0
LINE
  8
0
 10
228.488
 11
228.55
 20
387.589
 21
387.398
  0
LINE
  8
0
 10
228.55
 11
228.587
 20
387.398
 21
387.201
  0
LINE
  8
0
 10
228.587
 11
228.6
 20
387.201
 21
387
  0
LINE
  8
0
 10
228.6
 11
228.587
 20
387
 21
386.799
  0
LINE
  8
0
 10
228.587
 11
228.55
 20
386.799
 21
386.602
  0
LINE
  8
0
 10
228.55
 11
228.488
 20
386.602
 21
386.411
  0
LINE
  8
0
 10
228.488
 11
228.402
 20
386.411
 21
386.229
  0
LINE
  8
0
 10
228.402
 11
228.294
 20
386.229
 21
386.06
  0
LINE
  8
0
 10
228.294
 11
228.166
 20
386.06
 21
385.905
  0
LINE
  8
0
 10
228.166
 11
228.02
 20
385.905
 21
385.767
  0
LINE
  8
0
 10
228.02
 11
227.857
 20
385.767
 21
385.649
  0
LINE
  8
0
 10
227.857
 11
227.681
 20
385.649
 21
385.552
  0
LINE
  8
0
 10
227.681
 11
227.494
 20
385.552
 21
385.478
  0
LINE
  8
0
 10
227.494
 11
227.3
 20
385.478
 21
385.428
  0
LINE
  8
0
 10
227.3
 11
227.1
 20
385.428
 21
385.403
  0
LINE
  8
0
 10
227.1
 11
226.9
 20
385.403
 21
385.403
  0
LINE
  8
0
 10
226.9
 11
226.7
 20
385.403
 21
385.428
  0
LINE
  8
0
 10
226.7
 11
226.506
 20
385.428
 21
385.478
  0
LINE
  8
0
 10
226.506
 11
226.319
 20
385.478
 21
385.552
  0
LINE
  8
0
 10
226.319
 11
226.143
 20
385.552
 21
385.649
  0
LINE
  8
0
 10
226.143
 11
225.98
 20
385.649
 21
385.767
  0
LINE
  8
0
 10
225.98
 11
225.834
 20
385.767
 21
385.905
  0
LINE
  8
0
 10
225.834
 11
225.706
 20
385.905
 21
386.06
  0
LINE
  8
0
 10
225.706
 11
225.598
 20
386.06
 21
386.229
  0
LINE
  8
0
 10
225.598
 11
225.512
 20
386.229
 21
386.411
  0
LINE
  8
0
 10
225.512
 11
225.45
 20
386.411
 21
386.602
  0
LINE
  8
0
 10
225.45
 11
225.413
 20
386.602
 21
386.799
  0
LINE
  8
0
 10
225.413
 11
225.4
 20
386.799
 21
387
  0
LINE
  8
0
 10
230.4
 11
230.413
 20
30
 21
30.201
  0
LINE
  8
0
 10
230.413
 11
230.45
 20
30.201
 21
30.398
  0
LINE
  8
0
 10
230.45
 11
230.512
 20
30.398
 21
30.589
  0
LINE
  8
0
 10
230.512
 11
230.598
 20
30.589
 21
30.771
  0
LINE
  8
0
 10
230.598
 11
230.706
 20
30.771
 21
30.94
  0
LINE
  8
0
 10
230.706
 11
230.834
 20
30.94
 21
31.095
  0
LINE
  8
0
 10
230.834
 11
230.98
 20
31.095
 21
31.233
  0
LINE
  8
0
 10
230.98
 11
231.143
 20
31.233
 21
31.351
  0
LINE
  8
0
 10
231.143
 11
231.319
 20
31.351
 21
31.448
  0
LINE
  8
0
 10
231.319
 11
231.506
 20
31.448
 21
31.522
  0
LINE
  8
0
 10
231.506
 11
231.7
 20
31.522
 21
31.572
  0
LINE
  8
0
 10
231.7
 11
231.9
 20
31.572
 21
31.597
  0
LINE
  8
0
 10
231.9
 11
232.1
 20
31.597
 21
31.597
  0
LINE
  8
0
 10
232.1
 11
232.3
 20
31.597
 21
31.572
  0
LINE
  8
0
 10
232.3
 11
232.494
 20
31.572
 21
31.522
  0
LINE
  8
0
 10
232.494
 11
232.681
 20
31.522
 21
31.448
  0
LINE
  8
0
 10
232.681
 11
232.857
 20
31.448
 21
31.351
  0
LINE
  8
0
 10
232.857
 11
233.02
 20
31.351
 21
31.233
  0
LINE
  8
0
 10
233.02
 11
233.166
 20
31.233
 21
31.095
  0
LINE
  8
0
 10
233.166
 11
233.294
 20
31.095
 21
30.94
  0
LINE
  8
0
 10
233.294
 11
233.402
 20
30.94
 21
30.771
  0
LINE
  8
0
 10
233.402
 11
233.488
 20
30.771
 21
30.589
  0
LINE
  8
0
 10
233.488
 11
233.55
 20
30.589
 21
30.398
  0
LINE
  8
0
 10
233.55
 11
233.587
 20
30.398
 21
30.201
  0
LINE
  8
0
 10
233.587
 11
233.6
 20
30.201
 21
30
  0
LINE
  8
0
 10
233.6
 11
233.587
 20
30
 21
29.799
  0
LINE
  8
0
 10
233.587
 11
233.55
 20
29.799
 21
29.602
  0
LINE
  8
0
 10
233.55
 11
233.488
 20
29.602
 21
29.411
  0
LINE
  8
0
 10
233.488
 11
233.402
 20
29.411
 21
29.229
  0
LINE
  8
0
 10
233.402
 11
233.294
 20
29.229
 21
29.06
  0
LINE
  8
0
 10
233.294
 11
233.166
 20
29.06
 21
28.905
  0
LINE
  8
0
 10
233.166
 11
233.02
 20
28.905
 21
28.767
  0
LINE
  8
0
 10
233.02
 11
232.857
 20
28.767
 21
28.649
  0
LINE
  8
0
 10
232.857
 11
232.681
 20
28.649
 21
28.552
  0
LINE
  8
0
 10
232.681
 11
232.494
 20
28.552
 21
28.478
  0
LINE
  8
0
 10
232.494
 11
232.3
 20
28.478
 21
28.428
  0
LINE
  8
0
 10
232.3
 11
232.1
 20
28.428
 21
28.403
  0
LINE
  8
0
 10
232.1
 11
231.9
 20
28.403
 21
28.403
  0
LINE
  8
0
 10
231.9
 11
231.7
 20
28.403
 21
28.428
  0
LINE
  8
0
 10
231.7
 11
231.506
 20
28.428
 21
28.478
  0
LINE
  8
0
 10
231.506
 11
231.319
 20
28.478
 21
28.552
  0
LINE
  8
0
 10
231.319
 11
231.143
 20
28.552
 21
28.649
  0
LINE
  8
0
 10
231.143
 11
230.98
 20
28.649
 21
28.767
  0
LINE
  8
0
 10
230.98
 11
230.834
 20
28.767
 21
28.905
  0
LINE
  8
0
 10
230.834
 11
230.706
 20
28.905
 21
29.06
  0
LINE
  8
0
 10
230.706
 11
230.598
 20
29.06
 21
29.229
  0
LINE
  8
0
 10
230.598
 11
230.512
 20
29.229
 21
29.411
  0
LINE
  8
0
 10
230.512
 11
230.45
 20
29.411
 21
29.602
  0
LINE
  8
0
 10
230.45
 11
230.413
 20
29.602
 21
29.799
  0
LINE
  8
0
 10
230.413
 11
230.4
 20
29.799
 21
30
  0
LINE
  8
0
 10
230.4
 11
230.413
 20
70
 21
70.201
  0
LINE
  8
0
 10
230.413
 11
230.45
 20
70.201
 21
70.398
  0
LINE
  8
0
 10
230.45
 11
230.512
 20
70.398
 21
70.589
  0
LINE
  8
0
 10
230.512
 11
230.598
 20
70.589
 21
70.771
  0
LINE
  8
0
 10
230.598
 11
230.706
 20
70.771
 21
70.94
  0
LINE
  8
0
 10
230.706
 11
230.834
 20
70.94
 21
71.095
  0
LINE
  8
0
 10
230.834
 11
230.98
 20
71.095
 21
71.233
  0
LINE
  8
0
 10
230.98
 11
231.143
 20
71.233
 21
71.351
  0
LINE
  8
0
 10
231.143
 11
231.319
 20
71.351
 21
71.448
  0
LINE
  8
0
 10
231.319
 11
231.506
 20
71.448
 21
71.522
  0
LINE
  8
0
 10
231.506
 11
231.7
 20
71.522
 21
71.572
  0
LINE
  8
0
 10
231.7
 11
231.9
 20
71.572
 21
71.597
  0
LINE
  8
0
 10
231.9
 11
232.1
 20
71.597
 21
71.597
  0
LINE
  8
0
 10
232.1
 11
232.3
 20
71.597
 21
71.572
  0
LINE
  8
0
 10
232.3
 11
232.494
 20
71.572
 21
71.522
  0
LINE
  8
0
 10
232.494
 11
232.681
 20
71.522
 21
71.448
  0
LINE
  8
0
 10
232.681
 11
232.857
 20
71.448
 21
71.351
  0
LINE
  8
0
 10
232.857
 11
233.02
 20
71.351
 21
71.233
  0
LINE
  8
0
 10
233.02
 11
233.166
 20
71.233
 21
71.095
  0
LINE
  8
0
 10
233.166
 11
233.294
 20
71.095
 21
70.94
  0
LINE
  8
0
 10
233.294
 11
233.402
 20
70.94
 21
70.771
  0
LINE
  8
0
 10
233.402
 11
233.488
 20
70.771
 21
70.589
  0
LINE
  8
0
 10
233.488
 11
233.55
 20
70.589
 21
70.398
  0
LINE
  8
0
 10
233.55
 11
233.587
 20
70.398
 21
70.201
  0
LINE
  8
0
 10
233.587
 11
233.6
 20
70.201
 21
70
  0
LINE
  8
0
 10
233.6
 11
233.587
 20
70
 21
69.799
  0
LINE
  8
0
 10
233.587
 11
233.55
 20
69.799
 21
69.602
  0
LINE
  8
0
 10
233.55
 11
233.488
 20
69.602
 21
69.411
  0
LINE
  8
0
 10
233.488
 11
233.402
 20
69.411
 21
69.229
  0
LINE
  8
0
 10
233.402
 11
233.294
 20
69.229
 21
69.06
  0
LINE
  8
0
 10
233.294
 11
233.166
 20
69.06
 21
68.905
  0
LINE
  8
0
 10
233.166
 11
233.02
 20
68.905
 21
68.767
  0
LINE
  8
0
 10
233.02
 11
232.857
 20
68.767
 21
68.649
  0
LINE
  8
0
 10
232.857
 11
232.681
 20
68.649
 21
68.552
  0
LINE
  8
0
 10
232.681
 11
232.494
 20
68.552
 21
68.478
  0
LINE
  8
0
 10
232.494
 11
232.3
 20
68.478
 21
68.428
  0
LINE
  8
0
 10
232.3
 11
232.1
 20
68.428
 21
68.403
  0
LINE
  8
0
 10
232.1
 11
231.9
 20
68.403
 21
68.403
  0
LINE
  8
0
 10
231.9
 11
231.7
 20
68.403
 21
68.428
  0
LINE
  8
0
 10
231.7
 11
231.506
 20
68.428
 21
68.478
  0
LINE
  8
0
 10
231.506
 11
231.319
 20
68.478
 21
68.552
  0
LINE
  8
0
 10
231.319
 11
231.143
 20
68.552
 21
68.649
  0
LINE
  8
0
 10
231.143
 11
230.98
 20
68.649
 21
68.767
  0
LINE
  8
0
 10
230.98
 11
230.834
 20
68.767
 21
68.905
  0
LINE
  8
0
 10
230.834
 11
230.706
 20
68.905
 21
69.06
  0
LINE
  8
0
 10
230.706
 11
230.598
 20
69.06
 21
69.229
  0
LINE
  8
0
 10
230.598
 11
230.512
 20
69.229
 21
69.411
  0
LINE
  8
0
 10
230.512
 11
230.45
 20
69.411
 21
69.602
  0
LINE
  8
0
 10
230.45
 11
230.413
 20
69.602
 21
69.799
  0
LINE
  8
0
 10
230.413
 11
230.4
 20
69.799
 21
70
  0
LINE
  8
0
 10
367.4
 11
367.413
 20
245
 21
245.201
  0
LINE
  8
0
 10
367.413
 11
367.45
 20
245.201
 21
245.398
  0
LINE
  8
0
 10
367.45
 11
367.512
 20
245.398
 21
245.589
  0
LINE
  8
0
 10
367.512
 11
367.598
 20
245.589
 21
245.771
  0
LINE
  8
0
 10
367.598
 11
367.706
 20
245.771
 21
245.94
  0
LINE
  8
0
 10
367.706
 11
367.834
 20
245.94
 21
246.095
  0
LINE
  8
0
 10
367.834
 11
367.98
 20
246.095
 21
246.233
  0
LINE
  8
0
 10
367.98
 11
368.143
 20
246.233
 21
246.351
  0
LINE
  8
0
 10
368.143
 11
368.319
 20
246.351
 21
246.448
  0
LINE
  8
0
 10
368.319
 11
368.506
 20
246.448
 21
246.522
  0
LINE
  8
0
 10
368.506
 11
368.7
 20
246.522
 21
246.572
  0
LINE
  8
0
 10
368.7
 11
368.9
 20
246.572
 21
246.597
  0
LINE
  8
0
 10
368.9
 11
369.1
 20
246.597
 21
246.597
  0
LINE
  8
0
 10
369.1
 11
369.3
 20
246.597
 21
246.572
  0
LINE
  8
0
 10
369.3
 11
369.494
 20
246.572
 21
246.522
  0
LINE
  8
0
 10
369.494
 11
369.681
 20
246.522
 21
246.448
  0
LINE
  8
0
 10
369.681
 11
369.857
 20
246.448
 21
246.351
  0
LINE
  8
0
 10
369.857
 11
370.02
 20
246.351
 21
246.233
  0
LINE
  8
0
 10
370.02
 11
370.166
 20
246.233
 21
246.095
  0
LINE
  8
0
 10
370.166
 11
370.294
 20
246.095
 21
245.94
  0
LINE
  8
0
 10
370.294
 11
370.402
 20
245.94
 21
245.771
  0
LINE
  8
0
 10
370.402
 11
370.488
 20
245.771
 21
245.589
  0
LINE
  8
0
 10
370.488
 11
370.55
 20
245.589
 21
245.398
  0
LINE
  8
0
 10
370.55
 11
370.587
 20
245.398
 21
245.201
  0
LINE
  8
0
 10
370.587
 11
370.6
 20
245.201
 21
245
  0
LINE
  8
0
 10
370.6
 11
370.587
 20
245
 21
244.799
  0
LINE
  8
0
 10
370.587
 11
370.55
 20
244.799
 21
244.602
  0
LINE
  8
0
 10
370.55
 11
370.488
 20
244.602
 21
244.411
  0
LINE
  8
0
 10
370.488
 11
370.402
 20
244.411
 21
244.229
  0
LINE
  8
0
 10
370.402
 11
370.294
 20
244.229
 21
244.06
  0
LINE
  8
0
 10
370.294
 11
370.166
 20
244.06
 21
243.905
  0
LINE
  8
0
 10
370.166
 11
370.02
 20
243.905
 21
243.767
  0
LINE
  8
0
 10
370.02
 11
369.857
 20
243.767
 21
243.649
  0
LINE
  8
0
 10
369.857
 11
369.681
 20
243.649
 21
243.552
  0
LINE
  8
0
 10
369.681
 11
369.494
 20
243.552
 21
243.478
  0
LINE
  8
0
 10
369.494
 11
369.3
 20
243.478
 21
243.428
  0
LINE
  8
0
 10
369.3
 11
369.1
 20
243.428
 21
243.403
  0
LINE
  8
0
 10
369.1
 11
368.9
 20
243.403
 21
243.403
  0
LINE
  8
0
 10
368.9
 11
368.7
 20
243.403
 21
243.428
  0
LINE
  8
0
 10
368.7
 11
368.506
 20
243.428
 21
243.478
  0
LINE
  8
0
 10
368.506
 11
368.319
 20
243.478
 21
243.552
  0
LINE
  8
0
 10
368.319
 11
368.143
 20
243.552
 21
243.649
  0
LINE
  8
0
 10
368.143
 11
367.98
 20
243.649
 21
243.767
  0
LINE
  8
0
 10
367.98
 11
367.834
 20
243.767
 21
243.905
  0
LINE
  8
0
 10
367.834
 11
367.706
 20
243.905
 21
244.06
  0
LINE
  8
0
 10
367.706
 11
367.598
 20
244.06
 21
244.229
  0
LINE
  8
0
 10
367.598
 11
367.512
 20
244.229
 21
244.411
  0
LINE
  8
0
 10
367.512
 11
367.45
 20
244.411
 21
244.602
  0
LINE
  8
0
 10
367.45
 11
367.413
 20
244.602
 21
244.799
  0
LINE
  8
0
 10
367.413
 11
367.4
 20
244.799
 21
245
  0
LINE
  8
0
 10
406.1
 11
406.121
 20
47
 21
47.326
  0
LINE
  8
0
 10
406.121
 11
406.182
 20
47.326
 21
47.647
  0
LINE
  8
0
 10
406.182
 11
406.283
 20
47.647
 21
47.957
  0
LINE
  8
0
 10
406.283
 11
406.422
 20
47.957
 21
48.253
  0
LINE
  8
0
 10
406.422
 11
406.597
 20
48.253
 21
48.528
  0
LINE
  8
0
 10
406.597
 11
406.805
 20
48.528
 21
48.78
  0
LINE
  8
0
 10
406.805
 11
407.043
 20
48.78
 21
49.003
  0
LINE
  8
0
 10
407.043
 11
407.307
 20
49.003
 21
49.195
  0
LINE
  8
0
 10
407.307
 11
407.593
 20
49.195
 21
49.353
  0
LINE
  8
0
 10
407.593
 11
407.897
 20
49.353
 21
49.473
  0
LINE
  8
0
 10
407.897
 11
408.213
 20
49.473
 21
49.554
  0
LINE
  8
0
 10
408.213
 11
408.537
 20
49.554
 21
49.595
  0
LINE
  8
0
 10
408.537
 11
408.863
 20
49.595
 21
49.595
  0
LINE
  8
0
 10
408.863
 11
409.187
 20
49.595
 21
49.554
  0
LINE
  8
0
 10
409.187
 11
409.503
 20
49.554
 21
49.473
  0
LINE
  8
0
 10
409.503
 11
409.807
 20
49.473
 21
49.353
  0
LINE
  8
0
 10
409.807
 11
410.093
 20
49.353
 21
49.195
  0
LINE
  8
0
 10
410.093
 11
410.357
 20
49.195
 21
49.003
  0
LINE
  8
0
 10
410.357
 11
410.595
 20
49.003
 21
48.78
  0
LINE
  8
0
 10
410.595
 11
410.803
 20
48.78
 21
48.528
  0
LINE
  8
0
 10
410.803
 11
410.978
 20
48.528
 21
48.253
  0
LINE
  8
0
 10
410.978
 11
411.117
 20
48.253
 21
47.957
  0
LINE
  8
0
 10
411.117
 11
411.218
 20
47.957
 21
47.647
  0
LINE
  8
0
 10
411.218
 11
411.279
 20
47.647
 21
47.326
  0
LINE
  8
0
 10
411.279
 11
411.3
 20
47.326
 21
47
  0
LINE
  8
0
 10
411.3
 11
411.279
 20
47
 21
46.674
  0
LINE
  8
0
 10
411.279
 11
411.218
 20
46.674
 21
46.353
  0
LINE
  8
0
 10
411.218
 11
411.117
 20
46.353
 21
46.043
  0
LINE
  8
0
 10
411.117
 11
410.978
 20
46.043
 21
45.747
  0
LINE
  8
0
 10
410.978
 11
410.803
 20
45.747
 21
45.472
  0
LINE
  8
0
 10
410.803
 11
410.595
 20
45.472
 21
45.22
  0
LINE
  8
0
 10
410.595
 11
410.357
 20
45.22
 21
44.997
  0
LINE
  8
0
 10
410.357
 11
410.093
 20
44.997
 21
44.805
  0
LINE
  8
0
 10
410.093
 11
409.807
 20
44.805
 21
44.647
  0
LINE
  8
0
 10
409.807
 11
409.503
 20
44.647
 21
44.527
  0
LINE
  8
0
 10
409.503
 11
409.187
 20
44.527
 21
44.446
  0
LINE
  8
0
 10
409.187
 11
408.863
 20
44.446
 21
44.405
  0
LINE
  8
0
 10
408.863
 11
408.537
 20
44.405
 21
44.405
  0
LINE
  8
0
 10
408.537
 11
408.213
 20
44.405
 21
44.446
  0
LINE
  8
0
 10
408.213
 11
407.897
 20
44.446
 21
44.527
  0
LINE
  8
0
 10
407.897
 11
407.593
 20
44.527
 21
44.647
  0
LINE
  8
0
 10
407.593
 11
407.307
 20
44.647
 21
44.805
  0
LINE
  8
0
 10
407.307
 11
407.043
 20
44.805
 21
44.997
  0
LINE
  8
0
 10
407.043
 11
406.805
 20
44.997
 21
45.22
  0
LINE
  8
0
 10
406.805
 11
406.597
 20
45.22
 21
45.472
  0
LINE
  8
0
 10
406.597
 11
406.422
 20
45.472
 21
45.747
  0
LINE
  8
0
 10
406.422
 11
406.283
 20
45.747
 21
46.043
  0
LINE
  8
0
 10
406.283
 11
406.182
 20
46.043
 21
46.353
  0
LINE
  8
0
 10
406.182
 11
406.121
 20
46.353
 21
46.674
  0
LINE
  8
0
 10
406.121
 11
406.1
 20
46.674
 21
47
  0
LINE
  8
0
 10
406.1
 11
406.121
 20
410
 21
410.326
  0
LINE
  8
0
 10
406.121
 11
406.182
 20
410.326
 21
410.647
  0
LINE
  8
0
 10
406.182
 11
406.283
 20
410.647
 21
410.957
  0
LINE
  8
0
 10
406.283
 11
406.422
 20
410.957
 21
411.253
  0
LINE
  8
0
 10
406.422
 11
406.597
 20
411.253
 21
411.528
  0
LINE
  8
0
 10
406.597
 11
406.805
 20
411.528
 21
411.78
  0
LINE
  8
0
 10
406.805
 11
407.043
 20
411.78
 21
412.003
  0
LINE
  8
0
 10
407.043
 11
407.307
 20
412.003
 21
412.195
  0
LINE
  8
0
 10
407.307
 11
407.593
 20
412.195
 21
412.353
  0
LINE
  8
0
 10
407.593
 11
407.897
 20
412.353
 21
412.473
  0
LINE
  8
0
 10
407.897
 11
408.213
 20
412.473
 21
412.554
  0
LINE
  8
0
 10
408.213
 11
408.537
 20
412.554
 21
412.595
  0
LINE
  8
0
 10
408.537
 11
408.863
 20
412.595
 21
412.595
  0
LINE
  8
0
 10
408.863
 11
409.187
 20
412.595
 21
412.554
  0
LINE
  8
0
 10
409.187
 11
409.503
 20
412.554
 21
412.473
  0
LINE
  8
0
 10
409.503
 11
409.807
 20
412.473
 21
412.353
  0
LINE
  8
0
 10
409.807
 11
410.093
 20
412.353
 21
412.195
  0
LINE
  8
0
 10
410.093
 11
410.357
 20
412.195
 21
412.003
  0
LINE
  8
0
 10
410.357
 11
410.595
 20
412.003
 21
411.78
  0
LINE
  8
0
 10
410.595
 11
410.803
 20
411.78
 21
411.528
  0
LINE
  8
0
 10
410.803
 11
410.978
 20
411.528
 21
411.253
  0
LINE
  8
0
 10
410.978
 11
411.117
 20
411.253
 21
410.957
  0
LINE
  8
0
 10
411.117
 11
411.218
 20
410.957
 21
410.647
  0
LINE
  8
0
 10
411.218
 11
411.279
 20
410.647
 21
410.326
  0
LINE
  8
0
 10
411.279
 11
411.3
 20
410.326
 21
410
  0
LINE
  8
0
 10
411.3
 11
411.279
 20
410
 21
409.674
  0
LINE
  8
0
 10
411.279
 11
411.218
 20
409.674
 21
409.353
  0
LINE
  8
0
 10
411.218
 11
411.117
 20
409.353
 21
409.043
  0
LINE
  8
0
 10
411.117
 11
410.978
 20
409.043
 21
408.747
  0
LINE
  8
0
 10
410.978
 11
410.803
 20
408.747
 21
408.472
  0
LINE
  8
0
 10
410.803
 11
410.595
 20
408.472
 21
408.22
  0
LINE
  8
0
 10
410.595
 11
410.357
 20
408.22
 21
407.997
  0
LINE
  8
0
 10
410.357
 11
410.093
 20
407.997
 21
407.805
  0
LINE
  8
0
 10
410.093
 11
409.807
 20
407.805
 21
407.647
  0
LINE
  8
0
 10
409.807
 11
409.503
 20
407.647
 21
407.527
  0
LINE
  8
0
 10
409.503
 11
409.187
 20
407.527
 21
407.446
  0
LINE
  8
0
 10
409.187
 11
408.863
 20
407.446
 21
407.405
  0
LINE
  8
0
 10
408.863
 11
408.537
 20
407.405
 21
407.405
  0
LINE
  8
0
 10
408.537
 11
408.213
 20
407.405
 21
407.446
  0
LINE
  8
0
 10
408.213
 11
407.897
 20
407.446
 21
407.527
  0
LINE
  8
0
 10
407.897
 11
407.593
 20
407.527
 21
407.647
  0
LINE
  8
0
 10
407.593
 11
407.307
 20
407.647
 21
407.805
  0
LINE
  8
0
 10
407.307
 11
407.043
 20
407.805
 21
407.997
  0
LINE
  8
0
 10
407.043
 11
406.805
 20
407.997
 21
408.22
  0
LINE
  8
0
 10
406.805
 11
406.597
 20
408.22
 21
408.472
  0
LINE
  8
0
 10
406.597
 11
406.422
 20
408.472
 21
408.747
  0
LINE
  8
0
 10
406.422
 11
406.283
 20
408.747
 21
409.043
  0
LINE
  8
0
 10
406.283
 11
406.182
 20
409.043
 21
409.353
  0
LINE
  8
0
 10
406.182
 11
406.121
 20
409.353
 21
409.674
  0
LINE
  8
0
 10
406.121
 11
406.1
 20
409.674
 21
410
  0
ENDSEC
  0
SECTION
  2
OBJECTS
  0
DICTIONARY
  0
ENDSEC
  0
EOF
