  0
SECTION
  2
BLOCKS
  0
ENDSEC
  0
SECTION
  2
ENTITIES
  0
LINE
  8
0
 10
0
 11
0
 20
0
 21
580
  0
LINE
  8
0
 10
0
 11
284
 20
580
 21
580
  0
LINE
  8
0
 10
284
 11
284
 20
580
 21
0
  0
LINE
  8
0
 10
284
 11
263
 20
0
 21
0
  0
LINE
  8
0
 10
263
 11
263
 20
0
 21
-10
  0
LINE
  8
0
 10
263
 11
243
 20
-10
 21
-10
  0
LINE
  8
0
 10
243
 11
243
 20
-10
 21
0
  0
LINE
  8
0
 10
243
 11
41
 20
0
 21
0
  0
LINE
  8
0
 10
41
 11
41
 20
0
 21
-10
  0
LINE
  8
0
 10
41
 11
21
 20
-10
 21
-10
  0
LINE
  8
0
 10
21
 11
21
 20
-10
 21
0
  0
LINE
  8
0
 10
21
 11
0
 20
0
 21
0
  0
LINE
  8
0
 10
42.75
 11
42.751
 20
47
 21
47.079
  0
LINE
  8
0
 10
42.751
 11
42.755
 20
47.079
 21
47.157
  0
LINE
  8
0
 10
42.755
 11
42.761
 20
47.157
 21
47.235
  0
LINE
  8
0
 10
42.761
 11
42.77
 20
47.235
 21
47.313
  0
LINE
  8
0
 10
42.77
 11
42.781
 20
47.313
 21
47.391
  0
LINE
  8
0
 10
42.781
 11
42.794
 20
47.391
 21
47.468
  0
LINE
  8
0
 10
42.794
 11
42.81
 20
47.468
 21
47.545
  0
LINE
  8
0
 10
42.81
 11
42.829
 20
47.545
 21
47.622
  0
LINE
  8
0
 10
42.829
 11
42.849
 20
47.622
 21
47.697
  0
LINE
  8
0
 10
42.849
 11
42.872
 20
47.697
 21
47.773
  0
LINE
  8
0
 10
42.872
 11
42.898
 20
47.773
 21
47.847
  0
LINE
  8
0
 10
42.898
 11
42.926
 20
47.847
 21
47.92
  0
LINE
  8
0
 10
42.926
 11
42.956
 20
47.92
 21
47.993
  0
LINE
  8
0
 10
42.956
 11
42.988
 20
47.993
 21
48.064
  0
LINE
  8
0
 10
42.988
 11
43.022
 20
48.064
 21
48.135
  0
LINE
  8
0
 10
43.022
 11
43.059
 20
48.135
 21
48.204
  0
LINE
  8
0
 10
43.059
 11
43.098
 20
48.204
 21
48.273
  0
LINE
  8
0
 10
43.098
 11
43.139
 20
48.273
 21
48.34
  0
LINE
  8
0
 10
43.139
 11
43.182
 20
48.34
 21
48.405
  0
LINE
  8
0
 10
43.182
 11
43.227
 20
48.405
 21
48.469
  0
LINE
  8
0
 10
43.227
 11
43.275
 20
48.469
 21
48.532
  0
LINE
  8
0
 10
43.275
 11
43.324
 20
48.532
 21
48.594
  0
LINE
  8
0
 10
43.324
 11
43.375
 20
48.594
 21
48.653
  0
LINE
  8
0
 10
43.375
 11
43.428
 20
48.653
 21
48.711
  0
LINE
  8
0
 10
43.428
 11
43.482
 20
48.711
 21
48.768
  0
LINE
  8
0
 10
43.482
 11
43.539
 20
48.768
 21
48.822
  0
LINE
  8
0
 10
43.539
 11
43.597
 20
48.822
 21
48.875
  0
LINE
  8
0
 10
43.597
 11
43.656
 20
48.875
 21
48.926
  0
LINE
  8
0
 10
43.656
 11
43.718
 20
48.926
 21
48.975
  0
LINE
  8
0
 10
43.718
 11
43.781
 20
48.975
 21
49.023
  0
LINE
  8
0
 10
43.781
 11
43.845
 20
49.023
 21
49.068
  0
LINE
  8
0
 10
43.845
 11
43.91
 20
49.068
 21
49.111
  0
LINE
  8
0
 10
43.91
 11
43.977
 20
49.111
 21
49.152
  0
LINE
  8
0
 10
43.977
 11
44.046
 20
49.152
 21
49.191
  0
LINE
  8
0
 10
44.046
 11
44.115
 20
49.191
 21
49.228
  0
LINE
  8
0
 10
44.115
 11
44.186
 20
49.228
 21
49.262
  0
LINE
  8
0
 10
44.186
 11
44.257
 20
49.262
 21
49.294
  0
LINE
  8
0
 10
44.257
 11
44.33
 20
49.294
 21
49.324
  0
LINE
  8
0
 10
44.33
 11
44.403
 20
49.324
 21
49.352
  0
LINE
  8
0
 10
44.403
 11
44.477
 20
49.352
 21
49.378
  0
LINE
  8
0
 10
44.477
 11
44.553
 20
49.378
 21
49.401
  0
LINE
  8
0
 10
44.553
 11
44.628
 20
49.401
 21
49.421
  0
LINE
  8
0
 10
44.628
 11
44.705
 20
49.421
 21
49.44
  0
LINE
  8
0
 10
44.705
 11
44.782
 20
49.44
 21
49.456
  0
LINE
  8
0
 10
44.782
 11
44.859
 20
49.456
 21
49.469
  0
LINE
  8
0
 10
44.859
 11
44.937
 20
49.469
 21
49.48
  0
LINE
  8
0
 10
44.937
 11
45.015
 20
49.48
 21
49.489
  0
LINE
  8
0
 10
45.015
 11
45.093
 20
49.489
 21
49.495
  0
LINE
  8
0
 10
45.093
 11
45.171
 20
49.495
 21
49.499
  0
LINE
  8
0
 10
45.171
 11
45.25
 20
49.499
 21
49.5
  0
LINE
  8
0
 10
45.25
 11
45.329
 20
49.5
 21
49.499
  0
LINE
  8
0
 10
45.329
 11
45.407
 20
49.499
 21
49.495
  0
LINE
  8
0
 10
45.407
 11
45.485
 20
49.495
 21
49.489
  0
LINE
  8
0
 10
45.485
 11
45.563
 20
49.489
 21
49.48
  0
LINE
  8
0
 10
45.563
 11
45.641
 20
49.48
 21
49.469
  0
LINE
  8
0
 10
45.641
 11
45.718
 20
49.469
 21
49.456
  0
LINE
  8
0
 10
45.718
 11
45.795
 20
49.456
 21
49.44
  0
LINE
  8
0
 10
45.795
 11
45.872
 20
49.44
 21
49.421
  0
LINE
  8
0
 10
45.872
 11
45.947
 20
49.421
 21
49.401
  0
LINE
  8
0
 10
45.947
 11
46.023
 20
49.401
 21
49.378
  0
LINE
  8
0
 10
46.023
 11
46.097
 20
49.378
 21
49.352
  0
LINE
  8
0
 10
46.097
 11
46.17
 20
49.352
 21
49.324
  0
LINE
  8
0
 10
46.17
 11
46.243
 20
49.324
 21
49.294
  0
LINE
  8
0
 10
46.243
 11
46.314
 20
49.294
 21
49.262
  0
LINE
  8
0
 10
46.314
 11
46.385
 20
49.262
 21
49.228
  0
LINE
  8
0
 10
46.385
 11
46.454
 20
49.228
 21
49.191
  0
LINE
  8
0
 10
46.454
 11
46.523
 20
49.191
 21
49.152
  0
LINE
  8
0
 10
46.523
 11
46.59
 20
49.152
 21
49.111
  0
LINE
  8
0
 10
46.59
 11
46.655
 20
49.111
 21
49.068
  0
LINE
  8
0
 10
46.655
 11
46.719
 20
49.068
 21
49.023
  0
LINE
  8
0
 10
46.719
 11
46.782
 20
49.023
 21
48.975
  0
LINE
  8
0
 10
46.782
 11
46.844
 20
48.975
 21
48.926
  0
LINE
  8
0
 10
46.844
 11
46.903
 20
48.926
 21
48.875
  0
LINE
  8
0
 10
46.903
 11
46.961
 20
48.875
 21
48.822
  0
LINE
  8
0
 10
46.961
 11
47.018
 20
48.822
 21
48.768
  0
LINE
  8
0
 10
47.018
 11
47.072
 20
48.768
 21
48.711
  0
LINE
  8
0
 10
47.072
 11
47.125
 20
48.711
 21
48.653
  0
LINE
  8
0
 10
47.125
 11
47.176
 20
48.653
 21
48.594
  0
LINE
  8
0
 10
47.176
 11
47.225
 20
48.594
 21
48.532
  0
LINE
  8
0
 10
47.225
 11
47.273
 20
48.532
 21
48.469
  0
LINE
  8
0
 10
47.273
 11
47.318
 20
48.469
 21
48.405
  0
LINE
  8
0
 10
47.318
 11
47.361
 20
48.405
 21
48.34
  0
LINE
  8
0
 10
47.361
 11
47.402
 20
48.34
 21
48.273
  0
LINE
  8
0
 10
47.402
 11
47.441
 20
48.273
 21
48.204
  0
LINE
  8
0
 10
47.441
 11
47.478
 20
48.204
 21
48.135
  0
LINE
  8
0
 10
47.478
 11
47.512
 20
48.135
 21
48.064
  0
LINE
  8
0
 10
47.512
 11
47.544
 20
48.064
 21
47.993
  0
LINE
  8
0
 10
47.544
 11
47.574
 20
47.993
 21
47.92
  0
LINE
  8
0
 10
47.574
 11
47.602
 20
47.92
 21
47.847
  0
LINE
  8
0
 10
47.602
 11
47.628
 20
47.847
 21
47.773
  0
LINE
  8
0
 10
47.628
 11
47.651
 20
47.773
 21
47.697
  0
LINE
  8
0
 10
47.651
 11
47.671
 20
47.697
 21
47.622
  0
LINE
  8
0
 10
47.671
 11
47.69
 20
47.622
 21
47.545
  0
LINE
  8
0
 10
47.69
 11
47.706
 20
47.545
 21
47.468
  0
LINE
  8
0
 10
47.706
 11
47.719
 20
47.468
 21
47.391
  0
LINE
  8
0
 10
47.719
 11
47.73
 20
47.391
 21
47.313
  0
LINE
  8
0
 10
47.73
 11
47.739
 20
47.313
 21
47.235
  0
LINE
  8
0
 10
47.739
 11
47.745
 20
47.235
 21
47.157
  0
LINE
  8
0
 10
47.745
 11
47.749
 20
47.157
 21
47.079
  0
LINE
  8
0
 10
47.749
 11
47.75
 20
47.079
 21
47
  0
LINE
  8
0
 10
47.75
 11
47.749
 20
47
 21
46.921
  0
LINE
  8
0
 10
47.749
 11
47.745
 20
46.921
 21
46.843
  0
LINE
  8
0
 10
47.745
 11
47.739
 20
46.843
 21
46.765
  0
LINE
  8
0
 10
47.739
 11
47.73
 20
46.765
 21
46.687
  0
LINE
  8
0
 10
47.73
 11
47.719
 20
46.687
 21
46.609
  0
LINE
  8
0
 10
47.719
 11
47.706
 20
46.609
 21
46.532
  0
LINE
  8
0
 10
47.706
 11
47.69
 20
46.532
 21
46.455
  0
LINE
  8
0
 10
47.69
 11
47.671
 20
46.455
 21
46.378
  0
LINE
  8
0
 10
47.671
 11
47.651
 20
46.378
 21
46.303
  0
LINE
  8
0
 10
47.651
 11
47.628
 20
46.303
 21
46.227
  0
LINE
  8
0
 10
47.628
 11
47.602
 20
46.227
 21
46.153
  0
LINE
  8
0
 10
47.602
 11
47.574
 20
46.153
 21
46.08
  0
LINE
  8
0
 10
47.574
 11
47.544
 20
46.08
 21
46.007
  0
LINE
  8
0
 10
47.544
 11
47.512
 20
46.007
 21
45.936
  0
LINE
  8
0
 10
47.512
 11
47.478
 20
45.936
 21
45.865
  0
LINE
  8
0
 10
47.478
 11
47.441
 20
45.865
 21
45.796
  0
LINE
  8
0
 10
47.441
 11
47.402
 20
45.796
 21
45.727
  0
LINE
  8
0
 10
47.402
 11
47.361
 20
45.727
 21
45.66
  0
LINE
  8
0
 10
47.361
 11
47.318
 20
45.66
 21
45.595
  0
LINE
  8
0
 10
47.318
 11
47.273
 20
45.595
 21
45.531
  0
LINE
  8
0
 10
47.273
 11
47.225
 20
45.531
 21
45.468
  0
LINE
  8
0
 10
47.225
 11
47.176
 20
45.468
 21
45.406
  0
LINE
  8
0
 10
47.176
 11
47.125
 20
45.406
 21
45.347
  0
LINE
  8
0
 10
47.125
 11
47.072
 20
45.347
 21
45.289
  0
LINE
  8
0
 10
47.072
 11
47.018
 20
45.289
 21
45.232
  0
LINE
  8
0
 10
47.018
 11
46.961
 20
45.232
 21
45.178
  0
LINE
  8
0
 10
46.961
 11
46.903
 20
45.178
 21
45.125
  0
LINE
  8
0
 10
46.903
 11
46.844
 20
45.125
 21
45.074
  0
LINE
  8
0
 10
46.844
 11
46.782
 20
45.074
 21
45.025
  0
LINE
  8
0
 10
46.782
 11
46.719
 20
45.025
 21
44.977
  0
LINE
  8
0
 10
46.719
 11
46.655
 20
44.977
 21
44.932
  0
LINE
  8
0
 10
46.655
 11
46.59
 20
44.932
 21
44.889
  0
LINE
  8
0
 10
46.59
 11
46.523
 20
44.889
 21
44.848
  0
LINE
  8
0
 10
46.523
 11
46.454
 20
44.848
 21
44.809
  0
LINE
  8
0
 10
46.454
 11
46.385
 20
44.809
 21
44.772
  0
LINE
  8
0
 10
46.385
 11
46.314
 20
44.772
 21
44.738
  0
LINE
  8
0
 10
46.314
 11
46.243
 20
44.738
 21
44.706
  0
LINE
  8
0
 10
46.243
 11
46.17
 20
44.706
 21
44.676
  0
LINE
  8
0
 10
46.17
 11
46.097
 20
44.676
 21
44.648
  0
LINE
  8
0
 10
46.097
 11
46.023
 20
44.648
 21
44.622
  0
LINE
  8
0
 10
46.023
 11
45.947
 20
44.622
 21
44.599
  0
LINE
  8
0
 10
45.947
 11
45.872
 20
44.599
 21
44.579
  0
LINE
  8
0
 10
45.872
 11
45.795
 20
44.579
 21
44.56
  0
LINE
  8
0
 10
45.795
 11
45.718
 20
44.56
 21
44.544
  0
LINE
  8
0
 10
45.718
 11
45.641
 20
44.544
 21
44.531
  0
LINE
  8
0
 10
45.641
 11
45.563
 20
44.531
 21
44.52
  0
LINE
  8
0
 10
45.563
 11
45.485
 20
44.52
 21
44.511
  0
LINE
  8
0
 10
45.485
 11
45.407
 20
44.511
 21
44.505
  0
LINE
  8
0
 10
45.407
 11
45.329
 20
44.505
 21
44.501
  0
LINE
  8
0
 10
45.329
 11
45.25
 20
44.501
 21
44.5
  0
LINE
  8
0
 10
45.25
 11
45.171
 20
44.5
 21
44.501
  0
LINE
  8
0
 10
45.171
 11
45.093
 20
44.501
 21
44.505
  0
LINE
  8
0
 10
45.093
 11
45.015
 20
44.505
 21
44.511
  0
LINE
  8
0
 10
45.015
 11
44.937
 20
44.511
 21
44.52
  0
LINE
  8
0
 10
44.937
 11
44.859
 20
44.52
 21
44.531
  0
LINE
  8
0
 10
44.859
 11
44.782
 20
44.531
 21
44.544
  0
LINE
  8
0
 10
44.782
 11
44.705
 20
44.544
 21
44.56
  0
LINE
  8
0
 10
44.705
 11
44.628
 20
44.56
 21
44.579
  0
LINE
  8
0
 10
44.628
 11
44.553
 20
44.579
 21
44.599
  0
LINE
  8
0
 10
44.553
 11
44.477
 20
44.599
 21
44.622
  0
LINE
  8
0
 10
44.477
 11
44.403
 20
44.622
 21
44.648
  0
LINE
  8
0
 10
44.403
 11
44.33
 20
44.648
 21
44.676
  0
LINE
  8
0
 10
44.33
 11
44.257
 20
44.676
 21
44.706
  0
LINE
  8
0
 10
44.257
 11
44.186
 20
44.706
 21
44.738
  0
LINE
  8
0
 10
44.186
 11
44.115
 20
44.738
 21
44.772
  0
LINE
  8
0
 10
44.115
 11
44.046
 20
44.772
 21
44.809
  0
LINE
  8
0
 10
44.046
 11
43.977
 20
44.809
 21
44.848
  0
LINE
  8
0
 10
43.977
 11
43.91
 20
44.848
 21
44.889
  0
LINE
  8
0
 10
43.91
 11
43.845
 20
44.889
 21
44.932
  0
LINE
  8
0
 10
43.845
 11
43.781
 20
44.932
 21
44.977
  0
LINE
  8
0
 10
43.781
 11
43.718
 20
44.977
 21
45.025
  0
LINE
  8
0
 10
43.718
 11
43.656
 20
45.025
 21
45.074
  0
LINE
  8
0
 10
43.656
 11
43.597
 20
45.074
 21
45.125
  0
LINE
  8
0
 10
43.597
 11
43.539
 20
45.125
 21
45.178
  0
LINE
  8
0
 10
43.539
 11
43.482
 20
45.178
 21
45.232
  0
LINE
  8
0
 10
43.482
 11
43.428
 20
45.232
 21
45.289
  0
LINE
  8
0
 10
43.428
 11
43.375
 20
45.289
 21
45.347
  0
LINE
  8
0
 10
43.375
 11
43.324
 20
45.347
 21
45.406
  0
LINE
  8
0
 10
43.324
 11
43.275
 20
45.406
 21
45.468
  0
LINE
  8
0
 10
43.275
 11
43.227
 20
45.468
 21
45.531
  0
LINE
  8
0
 10
43.227
 11
43.182
 20
45.531
 21
45.595
  0
LINE
  8
0
 10
43.182
 11
43.139
 20
45.595
 21
45.66
  0
LINE
  8
0
 10
43.139
 11
43.098
 20
45.66
 21
45.727
  0
LINE
  8
0
 10
43.098
 11
43.059
 20
45.727
 21
45.796
  0
LINE
  8
0
 10
43.059
 11
43.022
 20
45.796
 21
45.865
  0
LINE
  8
0
 10
43.022
 11
42.988
 20
45.865
 21
45.936
  0
LINE
  8
0
 10
42.988
 11
42.956
 20
45.936
 21
46.007
  0
LINE
  8
0
 10
42.956
 11
42.926
 20
46.007
 21
46.08
  0
LINE
  8
0
 10
42.926
 11
42.898
 20
46.08
 21
46.153
  0
LINE
  8
0
 10
42.898
 11
42.872
 20
46.153
 21
46.227
  0
LINE
  8
0
 10
42.872
 11
42.849
 20
46.227
 21
46.303
  0
LINE
  8
0
 10
42.849
 11
42.829
 20
46.303
 21
46.378
  0
LINE
  8
0
 10
42.829
 11
42.81
 20
46.378
 21
46.455
  0
LINE
  8
0
 10
42.81
 11
42.794
 20
46.455
 21
46.532
  0
LINE
  8
0
 10
42.794
 11
42.781
 20
46.532
 21
46.609
  0
LINE
  8
0
 10
42.781
 11
42.77
 20
46.609
 21
46.687
  0
LINE
  8
0
 10
42.77
 11
42.761
 20
46.687
 21
46.765
  0
LINE
  8
0
 10
42.761
 11
42.755
 20
46.765
 21
46.843
  0
LINE
  8
0
 10
42.755
 11
42.751
 20
46.843
 21
46.921
  0
LINE
  8
0
 10
42.751
 11
42.75
 20
46.921
 21
47
  0
LINE
  8
0
 10
42.75
 11
42.751
 20
560
 21
560.079
  0
LINE
  8
0
 10
42.751
 11
42.755
 20
560.079
 21
560.157
  0
LINE
  8
0
 10
42.755
 11
42.761
 20
560.157
 21
560.235
  0
LINE
  8
0
 10
42.761
 11
42.77
 20
560.235
 21
560.313
  0
LINE
  8
0
 10
42.77
 11
42.781
 20
560.313
 21
560.391
  0
LINE
  8
0
 10
42.781
 11
42.794
 20
560.391
 21
560.468
  0
LINE
  8
0
 10
42.794
 11
42.81
 20
560.468
 21
560.545
  0
LINE
  8
0
 10
42.81
 11
42.829
 20
560.545
 21
560.622
  0
LINE
  8
0
 10
42.829
 11
42.849
 20
560.622
 21
560.697
  0
LINE
  8
0
 10
42.849
 11
42.872
 20
560.697
 21
560.773
  0
LINE
  8
0
 10
42.872
 11
42.898
 20
560.773
 21
560.847
  0
LINE
  8
0
 10
42.898
 11
42.926
 20
560.847
 21
560.92
  0
LINE
  8
0
 10
42.926
 11
42.956
 20
560.92
 21
560.993
  0
LINE
  8
0
 10
42.956
 11
42.988
 20
560.993
 21
561.064
  0
LINE
  8
0
 10
42.988
 11
43.022
 20
561.064
 21
561.135
  0
LINE
  8
0
 10
43.022
 11
43.059
 20
561.135
 21
561.204
  0
LINE
  8
0
 10
43.059
 11
43.098
 20
561.204
 21
561.273
  0
LINE
  8
0
 10
43.098
 11
43.139
 20
561.273
 21
561.34
  0
LINE
  8
0
 10
43.139
 11
43.182
 20
561.34
 21
561.405
  0
LINE
  8
0
 10
43.182
 11
43.227
 20
561.405
 21
561.469
  0
LINE
  8
0
 10
43.227
 11
43.275
 20
561.469
 21
561.532
  0
LINE
  8
0
 10
43.275
 11
43.324
 20
561.532
 21
561.594
  0
LINE
  8
0
 10
43.324
 11
43.375
 20
561.594
 21
561.653
  0
LINE
  8
0
 10
43.375
 11
43.428
 20
561.653
 21
561.711
  0
LINE
  8
0
 10
43.428
 11
43.482
 20
561.711
 21
561.768
  0
LINE
  8
0
 10
43.482
 11
43.539
 20
561.768
 21
561.822
  0
LINE
  8
0
 10
43.539
 11
43.597
 20
561.822
 21
561.875
  0
LINE
  8
0
 10
43.597
 11
43.656
 20
561.875
 21
561.926
  0
LINE
  8
0
 10
43.656
 11
43.718
 20
561.926
 21
561.975
  0
LINE
  8
0
 10
43.718
 11
43.781
 20
561.975
 21
562.023
  0
LINE
  8
0
 10
43.781
 11
43.845
 20
562.023
 21
562.068
  0
LINE
  8
0
 10
43.845
 11
43.91
 20
562.068
 21
562.111
  0
LINE
  8
0
 10
43.91
 11
43.977
 20
562.111
 21
562.152
  0
LINE
  8
0
 10
43.977
 11
44.046
 20
562.152
 21
562.191
  0
LINE
  8
0
 10
44.046
 11
44.115
 20
562.191
 21
562.228
  0
LINE
  8
0
 10
44.115
 11
44.186
 20
562.228
 21
562.262
  0
LINE
  8
0
 10
44.186
 11
44.257
 20
562.262
 21
562.294
  0
LINE
  8
0
 10
44.257
 11
44.33
 20
562.294
 21
562.324
  0
LINE
  8
0
 10
44.33
 11
44.403
 20
562.324
 21
562.352
  0
LINE
  8
0
 10
44.403
 11
44.477
 20
562.352
 21
562.378
  0
LINE
  8
0
 10
44.477
 11
44.553
 20
562.378
 21
562.401
  0
LINE
  8
0
 10
44.553
 11
44.628
 20
562.401
 21
562.421
  0
LINE
  8
0
 10
44.628
 11
44.705
 20
562.421
 21
562.44
  0
LINE
  8
0
 10
44.705
 11
44.782
 20
562.44
 21
562.456
  0
LINE
  8
0
 10
44.782
 11
44.859
 20
562.456
 21
562.469
  0
LINE
  8
0
 10
44.859
 11
44.937
 20
562.469
 21
562.48
  0
LINE
  8
0
 10
44.937
 11
45.015
 20
562.48
 21
562.489
  0
LINE
  8
0
 10
45.015
 11
45.093
 20
562.489
 21
562.495
  0
LINE
  8
0
 10
45.093
 11
45.171
 20
562.495
 21
562.499
  0
LINE
  8
0
 10
45.171
 11
45.25
 20
562.499
 21
562.5
  0
LINE
  8
0
 10
45.25
 11
45.329
 20
562.5
 21
562.499
  0
LINE
  8
0
 10
45.329
 11
45.407
 20
562.499
 21
562.495
  0
LINE
  8
0
 10
45.407
 11
45.485
 20
562.495
 21
562.489
  0
LINE
  8
0
 10
45.485
 11
45.563
 20
562.489
 21
562.48
  0
LINE
  8
0
 10
45.563
 11
45.641
 20
562.48
 21
562.469
  0
LINE
  8
0
 10
45.641
 11
45.718
 20
562.469
 21
562.456
  0
LINE
  8
0
 10
45.718
 11
45.795
 20
562.456
 21
562.44
  0
LINE
  8
0
 10
45.795
 11
45.872
 20
562.44
 21
562.421
  0
LINE
  8
0
 10
45.872
 11
45.947
 20
562.421
 21
562.401
  0
LINE
  8
0
 10
45.947
 11
46.023
 20
562.401
 21
562.378
  0
LINE
  8
0
 10
46.023
 11
46.097
 20
562.378
 21
562.352
  0
LINE
  8
0
 10
46.097
 11
46.17
 20
562.352
 21
562.324
  0
LINE
  8
0
 10
46.17
 11
46.243
 20
562.324
 21
562.294
  0
LINE
  8
0
 10
46.243
 11
46.314
 20
562.294
 21
562.262
  0
LINE
  8
0
 10
46.314
 11
46.385
 20
562.262
 21
562.228
  0
LINE
  8
0
 10
46.385
 11
46.454
 20
562.228
 21
562.191
  0
LINE
  8
0
 10
46.454
 11
46.523
 20
562.191
 21
562.152
  0
LINE
  8
0
 10
46.523
 11
46.59
 20
562.152
 21
562.111
  0
LINE
  8
0
 10
46.59
 11
46.655
 20
562.111
 21
562.068
  0
LINE
  8
0
 10
46.655
 11
46.719
 20
562.068
 21
562.023
  0
LINE
  8
0
 10
46.719
 11
46.782
 20
562.023
 21
561.975
  0
LINE
  8
0
 10
46.782
 11
46.844
 20
561.975
 21
561.926
  0
LINE
  8
0
 10
46.844
 11
46.903
 20
561.926
 21
561.875
  0
LINE
  8
0
 10
46.903
 11
46.961
 20
561.875
 21
561.822
  0
LINE
  8
0
 10
46.961
 11
47.018
 20
561.822
 21
561.768
  0
LINE
  8
0
 10
47.018
 11
47.072
 20
561.768
 21
561.711
  0
LINE
  8
0
 10
47.072
 11
47.125
 20
561.711
 21
561.653
  0
LINE
  8
0
 10
47.125
 11
47.176
 20
561.653
 21
561.594
  0
LINE
  8
0
 10
47.176
 11
47.225
 20
561.594
 21
561.532
  0
LINE
  8
0
 10
47.225
 11
47.273
 20
561.532
 21
561.469
  0
LINE
  8
0
 10
47.273
 11
47.318
 20
561.469
 21
561.405
  0
LINE
  8
0
 10
47.318
 11
47.361
 20
561.405
 21
561.34
  0
LINE
  8
0
 10
47.361
 11
47.402
 20
561.34
 21
561.273
  0
LINE
  8
0
 10
47.402
 11
47.441
 20
561.273
 21
561.204
  0
LINE
  8
0
 10
47.441
 11
47.478
 20
561.204
 21
561.135
  0
LINE
  8
0
 10
47.478
 11
47.512
 20
561.135
 21
561.064
  0
LINE
  8
0
 10
47.512
 11
47.544
 20
561.064
 21
560.993
  0
LINE
  8
0
 10
47.544
 11
47.574
 20
560.993
 21
560.92
  0
LINE
  8
0
 10
47.574
 11
47.602
 20
560.92
 21
560.847
  0
LINE
  8
0
 10
47.602
 11
47.628
 20
560.847
 21
560.773
  0
LINE
  8
0
 10
47.628
 11
47.651
 20
560.773
 21
560.697
  0
LINE
  8
0
 10
47.651
 11
47.671
 20
560.697
 21
560.622
  0
LINE
  8
0
 10
47.671
 11
47.69
 20
560.622
 21
560.545
  0
LINE
  8
0
 10
47.69
 11
47.706
 20
560.545
 21
560.468
  0
LINE
  8
0
 10
47.706
 11
47.719
 20
560.468
 21
560.391
  0
LINE
  8
0
 10
47.719
 11
47.73
 20
560.391
 21
560.313
  0
LINE
  8
0
 10
47.73
 11
47.739
 20
560.313
 21
560.235
  0
LINE
  8
0
 10
47.739
 11
47.745
 20
560.235
 21
560.157
  0
LINE
  8
0
 10
47.745
 11
47.749
 20
560.157
 21
560.079
  0
LINE
  8
0
 10
47.749
 11
47.75
 20
560.079
 21
560
  0
LINE
  8
0
 10
47.75
 11
47.749
 20
560
 21
559.921
  0
LINE
  8
0
 10
47.749
 11
47.745
 20
559.921
 21
559.843
  0
LINE
  8
0
 10
47.745
 11
47.739
 20
559.843
 21
559.765
  0
LINE
  8
0
 10
47.739
 11
47.73
 20
559.765
 21
559.687
  0
LINE
  8
0
 10
47.73
 11
47.719
 20
559.687
 21
559.609
  0
LINE
  8
0
 10
47.719
 11
47.706
 20
559.609
 21
559.532
  0
LINE
  8
0
 10
47.706
 11
47.69
 20
559.532
 21
559.455
  0
LINE
  8
0
 10
47.69
 11
47.671
 20
559.455
 21
559.378
  0
LINE
  8
0
 10
47.671
 11
47.651
 20
559.378
 21
559.303
  0
LINE
  8
0
 10
47.651
 11
47.628
 20
559.303
 21
559.227
  0
LINE
  8
0
 10
47.628
 11
47.602
 20
559.227
 21
559.153
  0
LINE
  8
0
 10
47.602
 11
47.574
 20
559.153
 21
559.08
  0
LINE
  8
0
 10
47.574
 11
47.544
 20
559.08
 21
559.007
  0
LINE
  8
0
 10
47.544
 11
47.512
 20
559.007
 21
558.936
  0
LINE
  8
0
 10
47.512
 11
47.478
 20
558.936
 21
558.865
  0
LINE
  8
0
 10
47.478
 11
47.441
 20
558.865
 21
558.796
  0
LINE
  8
0
 10
47.441
 11
47.402
 20
558.796
 21
558.727
  0
LINE
  8
0
 10
47.402
 11
47.361
 20
558.727
 21
558.66
  0
LINE
  8
0
 10
47.361
 11
47.318
 20
558.66
 21
558.595
  0
LINE
  8
0
 10
47.318
 11
47.273
 20
558.595
 21
558.531
  0
LINE
  8
0
 10
47.273
 11
47.225
 20
558.531
 21
558.468
  0
LINE
  8
0
 10
47.225
 11
47.176
 20
558.468
 21
558.406
  0
LINE
  8
0
 10
47.176
 11
47.125
 20
558.406
 21
558.347
  0
LINE
  8
0
 10
47.125
 11
47.072
 20
558.347
 21
558.289
  0
LINE
  8
0
 10
47.072
 11
47.018
 20
558.289
 21
558.232
  0
LINE
  8
0
 10
47.018
 11
46.961
 20
558.232
 21
558.178
  0
LINE
  8
0
 10
46.961
 11
46.903
 20
558.178
 21
558.125
  0
LINE
  8
0
 10
46.903
 11
46.844
 20
558.125
 21
558.074
  0
LINE
  8
0
 10
46.844
 11
46.782
 20
558.074
 21
558.025
  0
LINE
  8
0
 10
46.782
 11
46.719
 20
558.025
 21
557.977
  0
LINE
  8
0
 10
46.719
 11
46.655
 20
557.977
 21
557.932
  0
LINE
  8
0
 10
46.655
 11
46.59
 20
557.932
 21
557.889
  0
LINE
  8
0
 10
46.59
 11
46.523
 20
557.889
 21
557.848
  0
LINE
  8
0
 10
46.523
 11
46.454
 20
557.848
 21
557.809
  0
LINE
  8
0
 10
46.454
 11
46.385
 20
557.809
 21
557.772
  0
LINE
  8
0
 10
46.385
 11
46.314
 20
557.772
 21
557.738
  0
LINE
  8
0
 10
46.314
 11
46.243
 20
557.738
 21
557.706
  0
LINE
  8
0
 10
46.243
 11
46.17
 20
557.706
 21
557.676
  0
LINE
  8
0
 10
46.17
 11
46.097
 20
557.676
 21
557.648
  0
LINE
  8
0
 10
46.097
 11
46.023
 20
557.648
 21
557.622
  0
LINE
  8
0
 10
46.023
 11
45.947
 20
557.622
 21
557.599
  0
LINE
  8
0
 10
45.947
 11
45.872
 20
557.599
 21
557.579
  0
LINE
  8
0
 10
45.872
 11
45.795
 20
557.579
 21
557.56
  0
LINE
  8
0
 10
45.795
 11
45.718
 20
557.56
 21
557.544
  0
LINE
  8
0
 10
45.718
 11
45.641
 20
557.544
 21
557.531
  0
LINE
  8
0
 10
45.641
 11
45.563
 20
557.531
 21
557.52
  0
LINE
  8
0
 10
45.563
 11
45.485
 20
557.52
 21
557.511
  0
LINE
  8
0
 10
45.485
 11
45.407
 20
557.511
 21
557.505
  0
LINE
  8
0
 10
45.407
 11
45.329
 20
557.505
 21
557.501
  0
LINE
  8
0
 10
45.329
 11
45.25
 20
557.501
 21
557.5
  0
LINE
  8
0
 10
45.25
 11
45.171
 20
557.5
 21
557.501
  0
LINE
  8
0
 10
45.171
 11
45.093
 20
557.501
 21
557.505
  0
LINE
  8
0
 10
45.093
 11
45.015
 20
557.505
 21
557.511
  0
LINE
  8
0
 10
45.015
 11
44.937
 20
557.511
 21
557.52
  0
LINE
  8
0
 10
44.937
 11
44.859
 20
557.52
 21
557.531
  0
LINE
  8
0
 10
44.859
 11
44.782
 20
557.531
 21
557.544
  0
LINE
  8
0
 10
44.782
 11
44.705
 20
557.544
 21
557.56
  0
LINE
  8
0
 10
44.705
 11
44.628
 20
557.56
 21
557.579
  0
LINE
  8
0
 10
44.628
 11
44.553
 20
557.579
 21
557.599
  0
LINE
  8
0
 10
44.553
 11
44.477
 20
557.599
 21
557.622
  0
LINE
  8
0
 10
44.477
 11
44.403
 20
557.622
 21
557.648
  0
LINE
  8
0
 10
44.403
 11
44.33
 20
557.648
 21
557.676
  0
LINE
  8
0
 10
44.33
 11
44.257
 20
557.676
 21
557.706
  0
LINE
  8
0
 10
44.257
 11
44.186
 20
557.706
 21
557.738
  0
LINE
  8
0
 10
44.186
 11
44.115
 20
557.738
 21
557.772
  0
LINE
  8
0
 10
44.115
 11
44.046
 20
557.772
 21
557.809
  0
LINE
  8
0
 10
44.046
 11
43.977
 20
557.809
 21
557.848
  0
LINE
  8
0
 10
43.977
 11
43.91
 20
557.848
 21
557.889
  0
LINE
  8
0
 10
43.91
 11
43.845
 20
557.889
 21
557.932
  0
LINE
  8
0
 10
43.845
 11
43.781
 20
557.932
 21
557.977
  0
LINE
  8
0
 10
43.781
 11
43.718
 20
557.977
 21
558.025
  0
LINE
  8
0
 10
43.718
 11
43.656
 20
558.025
 21
558.074
  0
LINE
  8
0
 10
43.656
 11
43.597
 20
558.074
 21
558.125
  0
LINE
  8
0
 10
43.597
 11
43.539
 20
558.125
 21
558.178
  0
LINE
  8
0
 10
43.539
 11
43.482
 20
558.178
 21
558.232
  0
LINE
  8
0
 10
43.482
 11
43.428
 20
558.232
 21
558.289
  0
LINE
  8
0
 10
43.428
 11
43.375
 20
558.289
 21
558.347
  0
LINE
  8
0
 10
43.375
 11
43.324
 20
558.347
 21
558.406
  0
LINE
  8
0
 10
43.324
 11
43.275
 20
558.406
 21
558.468
  0
LINE
  8
0
 10
43.275
 11
43.227
 20
558.468
 21
558.531
  0
LINE
  8
0
 10
43.227
 11
43.182
 20
558.531
 21
558.595
  0
LINE
  8
0
 10
43.182
 11
43.139
 20
558.595
 21
558.66
  0
LINE
  8
0
 10
43.139
 11
43.098
 20
558.66
 21
558.727
  0
LINE
  8
0
 10
43.098
 11
43.059
 20
558.727
 21
558.796
  0
LINE
  8
0
 10
43.059
 11
43.022
 20
558.796
 21
558.865
  0
LINE
  8
0
 10
43.022
 11
42.988
 20
558.865
 21
558.936
  0
LINE
  8
0
 10
42.988
 11
42.956
 20
558.936
 21
559.007
  0
LINE
  8
0
 10
42.956
 11
42.926
 20
559.007
 21
559.08
  0
LINE
  8
0
 10
42.926
 11
42.898
 20
559.08
 21
559.153
  0
LINE
  8
0
 10
42.898
 11
42.872
 20
559.153
 21
559.227
  0
LINE
  8
0
 10
42.872
 11
42.849
 20
559.227
 21
559.303
  0
LINE
  8
0
 10
42.849
 11
42.829
 20
559.303
 21
559.378
  0
LINE
  8
0
 10
42.829
 11
42.81
 20
559.378
 21
559.455
  0
LINE
  8
0
 10
42.81
 11
42.794
 20
559.455
 21
559.532
  0
LINE
  8
0
 10
42.794
 11
42.781
 20
559.532
 21
559.609
  0
LINE
  8
0
 10
42.781
 11
42.77
 20
559.609
 21
559.687
  0
LINE
  8
0
 10
42.77
 11
42.761
 20
559.687
 21
559.765
  0
LINE
  8
0
 10
42.761
 11
42.755
 20
559.765
 21
559.843
  0
LINE
  8
0
 10
42.755
 11
42.751
 20
559.843
 21
559.921
  0
LINE
  8
0
 10
42.751
 11
42.75
 20
559.921
 21
560
  0
LINE
  8
0
 10
62
 11
62
 20
80
 21
560
  0
LINE
  8
0
 10
62
 11
222
 20
560
 21
560
  0
LINE
  8
0
 10
222
 11
222
 20
560
 21
80
  0
LINE
  8
0
 10
222
 11
62
 20
80
 21
80
  0
LINE
  8
0
 10
72
 11
72
 20
455
 21
485
  0
LINE
  8
0
 10
72
 11
83.907
 20
485
 21
485
  0
LINE
  8
0
 10
83.907
 11
84.382
 20
485
 21
486.739
  0
LINE
  8
0
 10
84.382
 11
84.937
 20
486.739
 21
488.541
  0
LINE
  8
0
 10
84.937
 11
85.547
 20
488.541
 21
490.324
  0
LINE
  8
0
 10
85.547
 11
86.213
 20
490.324
 21
492.087
  0
LINE
  8
0
 10
86.213
 11
86.935
 20
492.087
 21
493.829
  0
LINE
  8
0
 10
86.935
 11
87.71
 20
493.829
 21
495.547
  0
LINE
  8
0
 10
87.71
 11
88.54
 20
495.547
 21
497.239
  0
LINE
  8
0
 10
88.54
 11
89.422
 20
497.239
 21
498.905
  0
LINE
  8
0
 10
89.422
 11
90.355
 20
498.905
 21
500.542
  0
LINE
  8
0
 10
90.355
 11
91.34
 20
500.542
 21
502.15
  0
LINE
  8
0
 10
91.34
 11
92.375
 20
502.15
 21
503.725
  0
LINE
  8
0
 10
92.375
 11
93.459
 20
503.725
 21
505.267
  0
LINE
  8
0
 10
93.459
 11
94.591
 20
505.267
 21
506.774
  0
LINE
  8
0
 10
94.591
 11
95.769
 20
506.774
 21
508.245
  0
LINE
  8
0
 10
95.769
 11
96.993
 20
508.245
 21
509.679
  0
LINE
  8
0
 10
96.993
 11
98.262
 20
509.679
 21
511.073
  0
LINE
  8
0
 10
98.262
 11
99.574
 20
511.073
 21
512.426
  0
LINE
  8
0
 10
99.574
 11
100.927
 20
512.426
 21
513.738
  0
LINE
  8
0
 10
100.927
 11
102.321
 20
513.738
 21
515.007
  0
LINE
  8
0
 10
102.321
 11
103.755
 20
515.007
 21
516.231
  0
LINE
  8
0
 10
103.755
 11
105.226
 20
516.231
 21
517.409
  0
LINE
  8
0
 10
105.226
 11
106.733
 20
517.409
 21
518.541
  0
LINE
  8
0
 10
106.733
 11
108.275
 20
518.541
 21
519.625
  0
LINE
  8
0
 10
108.275
 11
109.85
 20
519.625
 21
520.66
  0
LINE
  8
0
 10
109.85
 11
111.458
 20
520.66
 21
521.645
  0
LINE
  8
0
 10
111.458
 11
113.095
 20
521.645
 21
522.578
  0
LINE
  8
0
 10
113.095
 11
114.761
 20
522.578
 21
523.46
  0
LINE
  8
0
 10
114.761
 11
116.453
 20
523.46
 21
524.29
  0
LINE
  8
0
 10
116.453
 11
118.171
 20
524.29
 21
525.065
  0
LINE
  8
0
 10
118.171
 11
119.913
 20
525.065
 21
525.787
  0
LINE
  8
0
 10
119.913
 11
121.676
 20
525.787
 21
526.453
  0
LINE
  8
0
 10
121.676
 11
123.459
 20
526.453
 21
527.063
  0
LINE
  8
0
 10
123.459
 11
125.261
 20
527.063
 21
527.618
  0
LINE
  8
0
 10
125.261
 11
127
 20
527.618
 21
528.093
  0
LINE
  8
0
 10
127
 11
127
 20
528.093
 21
540
  0
LINE
  8
0
 10
127
 11
157
 20
540
 21
540
  0
LINE
  8
0
 10
157
 11
157
 20
540
 21
528.093
  0
LINE
  8
0
 10
157
 11
158.739
 20
528.093
 21
527.618
  0
LINE
  8
0
 10
158.739
 11
160.541
 20
527.618
 21
527.063
  0
LINE
  8
0
 10
160.541
 11
162.324
 20
527.063
 21
526.453
  0
LINE
  8
0
 10
162.324
 11
164.087
 20
526.453
 21
525.787
  0
LINE
  8
0
 10
164.087
 11
165.829
 20
525.787
 21
525.065
  0
LINE
  8
0
 10
165.829
 11
167.547
 20
525.065
 21
524.29
  0
LINE
  8
0
 10
167.547
 11
169.239
 20
524.29
 21
523.46
  0
LINE
  8
0
 10
169.239
 11
170.905
 20
523.46
 21
522.578
  0
LINE
  8
0
 10
170.905
 11
172.542
 20
522.578
 21
521.645
  0
LINE
  8
0
 10
172.542
 11
174.15
 20
521.645
 21
520.66
  0
LINE
  8
0
 10
174.15
 11
175.725
 20
520.66
 21
519.625
  0
LINE
  8
0
 10
175.725
 11
177.267
 20
519.625
 21
518.541
  0
LINE
  8
0
 10
177.267
 11
178.774
 20
518.541
 21
517.409
  0
LINE
  8
0
 10
178.774
 11
180.245
 20
517.409
 21
516.231
  0
LINE
  8
0
 10
180.245
 11
181.679
 20
516.231
 21
515.007
  0
LINE
  8
0
 10
181.679
 11
183.073
 20
515.007
 21
513.738
  0
LINE
  8
0
 10
183.073
 11
184.426
 20
513.738
 21
512.426
  0
LINE
  8
0
 10
184.426
 11
185.738
 20
512.426
 21
511.073
  0
LINE
  8
0
 10
185.738
 11
187.007
 20
511.073
 21
509.679
  0
LINE
  8
0
 10
187.007
 11
188.231
 20
509.679
 21
508.245
  0
LINE
  8
0
 10
188.231
 11
189.409
 20
508.245
 21
506.774
  0
LINE
  8
0
 10
189.409
 11
190.541
 20
506.774
 21
505.267
  0
LINE
  8
0
 10
190.541
 11
191.625
 20
505.267
 21
503.725
  0
LINE
  8
0
 10
191.625
 11
192.66
 20
503.725
 21
502.15
  0
LINE
  8
0
 10
192.66
 11
193.645
 20
502.15
 21
500.542
  0
LINE
  8
0
 10
193.645
 11
194.578
 20
500.542
 21
498.905
  0
LINE
  8
0
 10
194.578
 11
195.46
 20
498.905
 21
497.239
  0
LINE
  8
0
 10
195.46
 11
196.29
 20
497.239
 21
495.547
  0
LINE
  8
0
 10
196.29
 11
197.065
 20
495.547
 21
493.829
  0
LINE
  8
0
 10
197.065
 11
197.787
 20
493.829
 21
492.087
  0
LINE
  8
0
 10
197.787
 11
198.453
 20
492.087
 21
490.324
  0
LINE
  8
0
 10
198.453
 11
199.063
 20
490.324
 21
488.541
  0
LINE
  8
0
 10
199.063
 11
199.618
 20
488.541
 21
486.739
  0
LINE
  8
0
 10
199.618
 11
200.093
 20
486.739
 21
485
  0
LINE
  8
0
 10
200.093
 11
212
 20
485
 21
485
  0
LINE
  8
0
 10
212
 11
212
 20
485
 21
455
  0
LINE
  8
0
 10
212
 11
200.093
 20
455
 21
455
  0
LINE
  8
0
 10
200.093
 11
199.618
 20
455
 21
453.261
  0
LINE
  8
0
 10
199.618
 11
199.063
 20
453.261
 21
451.459
  0
LINE
  8
0
 10
199.063
 11
198.453
 20
451.459
 21
449.676
  0
LINE
  8
0
 10
198.453
 11
197.787
 20
449.676
 21
447.913
  0
LINE
  8
0
 10
197.787
 11
197.065
 20
447.913
 21
446.171
  0
LINE
  8
0
 10
197.065
 11
196.29
 20
446.171
 21
444.453
  0
LINE
  8
0
 10
196.29
 11
195.46
 20
444.453
 21
442.761
  0
LINE
  8
0
 10
195.46
 11
194.578
 20
442.761
 21
441.095
  0
LINE
  8
0
 10
194.578
 11
193.645
 20
441.095
 21
439.458
  0
LINE
  8
0
 10
193.645
 11
192.66
 20
439.458
 21
437.85
  0
LINE
  8
0
 10
192.66
 11
191.625
 20
437.85
 21
436.275
  0
LINE
  8
0
 10
191.625
 11
190.541
 20
436.275
 21
434.733
  0
LINE
  8
0
 10
190.541
 11
189.409
 20
434.733
 21
433.226
  0
LINE
  8
0
 10
189.409
 11
188.231
 20
433.226
 21
431.755
  0
LINE
  8
0
 10
188.231
 11
187.007
 20
431.755
 21
430.321
  0
LINE
  8
0
 10
187.007
 11
185.738
 20
430.321
 21
428.927
  0
LINE
  8
0
 10
185.738
 11
184.426
 20
428.927
 21
427.574
  0
LINE
  8
0
 10
184.426
 11
183.073
 20
427.574
 21
426.262
  0
LINE
  8
0
 10
183.073
 11
181.679
 20
426.262
 21
424.993
  0
LINE
  8
0
 10
181.679
 11
180.245
 20
424.993
 21
423.769
  0
LINE
  8
0
 10
180.245
 11
178.774
 20
423.769
 21
422.591
  0
LINE
  8
0
 10
178.774
 11
177.267
 20
422.591
 21
421.459
  0
LINE
  8
0
 10
177.267
 11
175.725
 20
421.459
 21
420.375
  0
LINE
  8
0
 10
175.725
 11
174.15
 20
420.375
 21
419.34
  0
LINE
  8
0
 10
174.15
 11
172.542
 20
419.34
 21
418.355
  0
LINE
  8
0
 10
172.542
 11
170.905
 20
418.355
 21
417.422
  0
LINE
  8
0
 10
170.905
 11
169.239
 20
417.422
 21
416.54
  0
LINE
  8
0
 10
169.239
 11
167.547
 20
416.54
 21
415.71
  0
LINE
  8
0
 10
167.547
 11
165.829
 20
415.71
 21
414.935
  0
LINE
  8
0
 10
165.829
 11
164.087
 20
414.935
 21
414.213
  0
LINE
  8
0
 10
164.087
 11
162.324
 20
414.213
 21
413.547
  0
LINE
  8
0
 10
162.324
 11
160.541
 20
413.547
 21
412.937
  0
LINE
  8
0
 10
160.541
 11
158.739
 20
412.937
 21
412.382
  0
LINE
  8
0
 10
158.739
 11
157
 20
412.382
 21
411.907
  0
LINE
  8
0
 10
157
 11
157
 20
411.907
 21
400
  0
LINE
  8
0
 10
157
 11
127
 20
400
 21
400
  0
LINE
  8
0
 10
127
 11
127
 20
400
 21
411.907
  0
LINE
  8
0
 10
127
 11
125.261
 20
411.907
 21
412.382
  0
LINE
  8
0
 10
125.261
 11
123.459
 20
412.382
 21
412.937
  0
LINE
  8
0
 10
123.459
 11
121.676
 20
412.937
 21
413.547
  0
LINE
  8
0
 10
121.676
 11
119.913
 20
413.547
 21
414.213
  0
LINE
  8
0
 10
119.913
 11
118.171
 20
414.213
 21
414.935
  0
LINE
  8
0
 10
118.171
 11
116.453
 20
414.935
 21
415.71
  0
LINE
  8
0
 10
116.453
 11
114.761
 20
415.71
 21
416.54
  0
LINE
  8
0
 10
114.761
 11
113.095
 20
416.54
 21
417.422
  0
LINE
  8
0
 10
113.095
 11
111.458
 20
417.422
 21
418.355
  0
LINE
  8
0
 10
111.458
 11
109.85
 20
418.355
 21
419.34
  0
LINE
  8
0
 10
109.85
 11
108.275
 20
419.34
 21
420.375
  0
LINE
  8
0
 10
108.275
 11
106.733
 20
420.375
 21
421.459
  0
LINE
  8
0
 10
106.733
 11
105.226
 20
421.459
 21
422.591
  0
LINE
  8
0
 10
105.226
 11
103.755
 20
422.591
 21
423.769
  0
LINE
  8
0
 10
103.755
 11
102.321
 20
423.769
 21
424.993
  0
LINE
  8
0
 10
102.321
 11
100.927
 20
424.993
 21
426.262
  0
LINE
  8
0
 10
100.927
 11
99.574
 20
426.262
 21
427.574
  0
LINE
  8
0
 10
99.574
 11
98.262
 20
427.574
 21
428.927
  0
LINE
  8
0
 10
98.262
 11
96.993
 20
428.927
 21
430.321
  0
LINE
  8
0
 10
96.993
 11
95.769
 20
430.321
 21
431.755
  0
LINE
  8
0
 10
95.769
 11
94.591
 20
431.755
 21
433.226
  0
LINE
  8
0
 10
94.591
 11
93.459
 20
433.226
 21
434.733
  0
LINE
  8
0
 10
93.459
 11
92.375
 20
434.733
 21
436.275
  0
LINE
  8
0
 10
92.375
 11
91.34
 20
436.275
 21
437.85
  0
LINE
  8
0
 10
91.34
 11
90.355
 20
437.85
 21
439.458
  0
LINE
  8
0
 10
90.355
 11
89.422
 20
439.458
 21
441.095
  0
LINE
  8
0
 10
89.422
 11
88.54
 20
441.095
 21
442.761
  0
LINE
  8
0
 10
88.54
 11
87.71
 20
442.761
 21
444.453
  0
LINE
  8
0
 10
87.71
 11
86.935
 20
444.453
 21
446.171
  0
LINE
  8
0
 10
86.935
 11
86.213
 20
446.171
 21
447.913
  0
LINE
  8
0
 10
86.213
 11
85.547
 20
447.913
 21
449.676
  0
LINE
  8
0
 10
85.547
 11
84.937
 20
449.676
 21
451.459
  0
LINE
  8
0
 10
84.937
 11
84.382
 20
451.459
 21
453.261
  0
LINE
  8
0
 10
84.382
 11
83.907
 20
453.261
 21
455
  0
LINE
  8
0
 10
83.907
 11
72
 20
455
 21
455
  0
LINE
  8
0
 10
78.5
 11
78.501
 20
470
 21
470.047
  0
LINE
  8
0
 10
78.501
 11
78.503
 20
470.047
 21
470.094
  0
LINE
  8
0
 10
78.503
 11
78.507
 20
470.094
 21
470.141
  0
LINE
  8
0
 10
78.507
 11
78.512
 20
470.141
 21
470.188
  0
LINE
  8
0
 10
78.512
 11
78.518
 20
470.188
 21
470.235
  0
LINE
  8
0
 10
78.518
 11
78.536
 20
470.235
 21
470.327
  0
LINE
  8
0
 10
78.536
 11
78.547
 20
470.327
 21
470.373
  0
LINE
  8
0
 10
78.547
 11
78.56
 20
470.373
 21
470.418
  0
LINE
  8
0
 10
78.56
 11
78.573
 20
470.418
 21
470.464
  0
LINE
  8
0
 10
78.573
 11
78.589
 20
470.464
 21
470.508
  0
LINE
  8
0
 10
78.589
 11
78.605
 20
470.508
 21
470.552
  0
LINE
  8
0
 10
78.605
 11
78.623
 20
470.552
 21
470.596
  0
LINE
  8
0
 10
78.623
 11
78.643
 20
470.596
 21
470.639
  0
LINE
  8
0
 10
78.643
 11
78.663
 20
470.639
 21
470.681
  0
LINE
  8
0
 10
78.663
 11
78.686
 20
470.681
 21
470.723
  0
LINE
  8
0
 10
78.686
 11
78.709
 20
470.723
 21
470.764
  0
LINE
  8
0
 10
78.709
 11
78.734
 20
470.764
 21
470.804
  0
LINE
  8
0
 10
78.734
 11
78.759
 20
470.804
 21
470.843
  0
LINE
  8
0
 10
78.759
 11
78.786
 20
470.843
 21
470.882
  0
LINE
  8
0
 10
78.786
 11
78.815
 20
470.882
 21
470.919
  0
LINE
  8
0
 10
78.815
 11
78.844
 20
470.919
 21
470.956
  0
LINE
  8
0
 10
78.844
 11
78.875
 20
470.956
 21
470.992
  0
LINE
  8
0
 10
78.875
 11
78.907
 20
470.992
 21
471.027
  0
LINE
  8
0
 10
78.907
 11
78.939
 20
471.027
 21
471.061
  0
LINE
  8
0
 10
78.939
 11
78.973
 20
471.061
 21
471.093
  0
LINE
  8
0
 10
78.973
 11
79.008
 20
471.093
 21
471.125
  0
LINE
  8
0
 10
79.008
 11
79.044
 20
471.125
 21
471.156
  0
LINE
  8
0
 10
79.044
 11
79.081
 20
471.156
 21
471.185
  0
LINE
  8
0
 10
79.081
 11
79.118
 20
471.185
 21
471.214
  0
LINE
  8
0
 10
79.118
 11
79.157
 20
471.214
 21
471.241
  0
LINE
  8
0
 10
79.157
 11
79.196
 20
471.241
 21
471.266
  0
LINE
  8
0
 10
79.196
 11
79.236
 20
471.266
 21
471.291
  0
LINE
  8
0
 10
79.236
 11
79.277
 20
471.291
 21
471.314
  0
LINE
  8
0
 10
79.277
 11
79.319
 20
471.314
 21
471.337
  0
LINE
  8
0
 10
79.319
 11
79.361
 20
471.337
 21
471.357
  0
LINE
  8
0
 10
79.361
 11
79.404
 20
471.357
 21
471.377
  0
LINE
  8
0
 10
79.404
 11
79.448
 20
471.377
 21
471.395
  0
LINE
  8
0
 10
79.448
 11
79.536
 20
471.395
 21
471.427
  0
LINE
  8
0
 10
79.536
 11
79.582
 20
471.427
 21
471.44
  0
LINE
  8
0
 10
79.582
 11
79.627
 20
471.44
 21
471.453
  0
LINE
  8
0
 10
79.627
 11
79.673
 20
471.453
 21
471.464
  0
LINE
  8
0
 10
79.673
 11
79.719
 20
471.464
 21
471.473
  0
LINE
  8
0
 10
79.719
 11
79.765
 20
471.473
 21
471.482
  0
LINE
  8
0
 10
79.765
 11
79.812
 20
471.482
 21
471.488
  0
LINE
  8
0
 10
79.812
 11
79.859
 20
471.488
 21
471.493
  0
LINE
  8
0
 10
79.859
 11
79.906
 20
471.493
 21
471.497
  0
LINE
  8
0
 10
79.906
 11
79.953
 20
471.497
 21
471.499
  0
LINE
  8
0
 10
79.953
 11
80
 20
471.499
 21
471.5
  0
LINE
  8
0
 10
80
 11
80.047
 20
471.5
 21
471.499
  0
LINE
  8
0
 10
80.047
 11
80.094
 20
471.499
 21
471.497
  0
LINE
  8
0
 10
80.094
 11
80.141
 20
471.497
 21
471.493
  0
LINE
  8
0
 10
80.141
 11
80.188
 20
471.493
 21
471.488
  0
LINE
  8
0
 10
80.188
 11
80.235
 20
471.488
 21
471.482
  0
LINE
  8
0
 10
80.235
 11
80.281
 20
471.482
 21
471.473
  0
LINE
  8
0
 10
80.281
 11
80.327
 20
471.473
 21
471.464
  0
LINE
  8
0
 10
80.327
 11
80.373
 20
471.464
 21
471.453
  0
LINE
  8
0
 10
80.373
 11
80.418
 20
471.453
 21
471.44
  0
LINE
  8
0
 10
80.418
 11
80.464
 20
471.44
 21
471.427
  0
LINE
  8
0
 10
80.464
 11
80.508
 20
471.427
 21
471.411
  0
LINE
  8
0
 10
80.508
 11
80.552
 20
471.411
 21
471.395
  0
LINE
  8
0
 10
80.552
 11
80.596
 20
471.395
 21
471.377
  0
LINE
  8
0
 10
80.596
 11
80.639
 20
471.377
 21
471.357
  0
LINE
  8
0
 10
80.639
 11
80.681
 20
471.357
 21
471.337
  0
LINE
  8
0
 10
80.681
 11
80.723
 20
471.337
 21
471.314
  0
LINE
  8
0
 10
80.723
 11
80.764
 20
471.314
 21
471.291
  0
LINE
  8
0
 10
80.764
 11
80.804
 20
471.291
 21
471.266
  0
LINE
  8
0
 10
80.804
 11
80.843
 20
471.266
 21
471.241
  0
LINE
  8
0
 10
80.843
 11
80.882
 20
471.241
 21
471.214
  0
LINE
  8
0
 10
80.882
 11
80.919
 20
471.214
 21
471.185
  0
LINE
  8
0
 10
80.919
 11
80.956
 20
471.185
 21
471.156
  0
LINE
  8
0
 10
80.956
 11
80.992
 20
471.156
 21
471.125
  0
LINE
  8
0
 10
80.992
 11
81.027
 20
471.125
 21
471.093
  0
LINE
  8
0
 10
81.027
 11
81.061
 20
471.093
 21
471.061
  0
LINE
  8
0
 10
81.061
 11
81.093
 20
471.061
 21
471.027
  0
LINE
  8
0
 10
81.093
 11
81.125
 20
471.027
 21
470.992
  0
LINE
  8
0
 10
81.125
 11
81.156
 20
470.992
 21
470.956
  0
LINE
  8
0
 10
81.156
 11
81.185
 20
470.956
 21
470.919
  0
LINE
  8
0
 10
81.185
 11
81.214
 20
470.919
 21
470.882
  0
LINE
  8
0
 10
81.214
 11
81.241
 20
470.882
 21
470.843
  0
LINE
  8
0
 10
81.241
 11
81.266
 20
470.843
 21
470.804
  0
LINE
  8
0
 10
81.266
 11
81.291
 20
470.804
 21
470.764
  0
LINE
  8
0
 10
81.291
 11
81.314
 20
470.764
 21
470.723
  0
LINE
  8
0
 10
81.314
 11
81.337
 20
470.723
 21
470.681
  0
LINE
  8
0
 10
81.337
 11
81.357
 20
470.681
 21
470.639
  0
LINE
  8
0
 10
81.357
 11
81.377
 20
470.639
 21
470.596
  0
LINE
  8
0
 10
81.377
 11
81.395
 20
470.596
 21
470.552
  0
LINE
  8
0
 10
81.395
 11
81.411
 20
470.552
 21
470.508
  0
LINE
  8
0
 10
81.411
 11
81.427
 20
470.508
 21
470.464
  0
LINE
  8
0
 10
81.427
 11
81.44
 20
470.464
 21
470.418
  0
LINE
  8
0
 10
81.44
 11
81.453
 20
470.418
 21
470.373
  0
LINE
  8
0
 10
81.453
 11
81.464
 20
470.373
 21
470.327
  0
LINE
  8
0
 10
81.464
 11
81.482
 20
470.327
 21
470.235
  0
LINE
  8
0
 10
81.482
 11
81.488
 20
470.235
 21
470.188
  0
LINE
  8
0
 10
81.488
 11
81.493
 20
470.188
 21
470.141
  0
LINE
  8
0
 10
81.493
 11
81.497
 20
470.141
 21
470.094
  0
LINE
  8
0
 10
81.497
 11
81.499
 20
470.094
 21
470.047
  0
LINE
  8
0
 10
81.499
 11
81.5
 20
470.047
 21
470
  0
LINE
  8
0
 10
81.5
 11
81.499
 20
470
 21
469.953
  0
LINE
  8
0
 10
81.499
 11
81.497
 20
469.953
 21
469.906
  0
LINE
  8
0
 10
81.497
 11
81.493
 20
469.906
 21
469.859
  0
LINE
  8
0
 10
81.493
 11
81.488
 20
469.859
 21
469.812
  0
LINE
  8
0
 10
81.488
 11
81.482
 20
469.812
 21
469.765
  0
LINE
  8
0
 10
81.482
 11
81.464
 20
469.765
 21
469.673
  0
LINE
  8
0
 10
81.464
 11
81.453
 20
469.673
 21
469.627
  0
LINE
  8
0
 10
81.453
 11
81.44
 20
469.627
 21
469.582
  0
LINE
  8
0
 10
81.44
 11
81.427
 20
469.582
 21
469.536
  0
LINE
  8
0
 10
81.427
 11
81.395
 20
469.536
 21
469.448
  0
LINE
  8
0
 10
81.395
 11
81.377
 20
469.448
 21
469.404
  0
LINE
  8
0
 10
81.377
 11
81.357
 20
469.404
 21
469.361
  0
LINE
  8
0
 10
81.357
 11
81.337
 20
469.361
 21
469.319
  0
LINE
  8
0
 10
81.337
 11
81.314
 20
469.319
 21
469.277
  0
LINE
  8
0
 10
81.314
 11
81.291
 20
469.277
 21
469.236
  0
LINE
  8
0
 10
81.291
 11
81.266
 20
469.236
 21
469.196
  0
LINE
  8
0
 10
81.266
 11
81.241
 20
469.196
 21
469.157
  0
LINE
  8
0
 10
81.241
 11
81.214
 20
469.157
 21
469.118
  0
LINE
  8
0
 10
81.214
 11
81.185
 20
469.118
 21
469.081
  0
LINE
  8
0
 10
81.185
 11
81.156
 20
469.081
 21
469.044
  0
LINE
  8
0
 10
81.156
 11
81.125
 20
469.044
 21
469.008
  0
LINE
  8
0
 10
81.125
 11
81.093
 20
469.008
 21
468.973
  0
LINE
  8
0
 10
81.093
 11
81.061
 20
468.973
 21
468.939
  0
LINE
  8
0
 10
81.061
 11
81.027
 20
468.939
 21
468.907
  0
LINE
  8
0
 10
81.027
 11
80.992
 20
468.907
 21
468.875
  0
LINE
  8
0
 10
80.992
 11
80.956
 20
468.875
 21
468.844
  0
LINE
  8
0
 10
80.956
 11
80.919
 20
468.844
 21
468.815
  0
LINE
  8
0
 10
80.919
 11
80.882
 20
468.815
 21
468.786
  0
LINE
  8
0
 10
80.882
 11
80.843
 20
468.786
 21
468.759
  0
LINE
  8
0
 10
80.843
 11
80.804
 20
468.759
 21
468.734
  0
LINE
  8
0
 10
80.804
 11
80.764
 20
468.734
 21
468.709
  0
LINE
  8
0
 10
80.764
 11
80.723
 20
468.709
 21
468.686
  0
LINE
  8
0
 10
80.723
 11
80.681
 20
468.686
 21
468.663
  0
LINE
  8
0
 10
80.681
 11
80.639
 20
468.663
 21
468.643
  0
LINE
  8
0
 10
80.639
 11
80.596
 20
468.643
 21
468.623
  0
LINE
  8
0
 10
80.596
 11
80.552
 20
468.623
 21
468.605
  0
LINE
  8
0
 10
80.552
 11
80.508
 20
468.605
 21
468.589
  0
LINE
  8
0
 10
80.508
 11
80.464
 20
468.589
 21
468.573
  0
LINE
  8
0
 10
80.464
 11
80.418
 20
468.573
 21
468.56
  0
LINE
  8
0
 10
80.418
 11
80.373
 20
468.56
 21
468.547
  0
LINE
  8
0
 10
80.373
 11
80.327
 20
468.547
 21
468.536
  0
LINE
  8
0
 10
80.327
 11
80.281
 20
468.536
 21
468.527
  0
LINE
  8
0
 10
80.281
 11
80.235
 20
468.527
 21
468.518
  0
LINE
  8
0
 10
80.235
 11
80.188
 20
468.518
 21
468.512
  0
LINE
  8
0
 10
80.188
 11
80.141
 20
468.512
 21
468.507
  0
LINE
  8
0
 10
80.141
 11
80.094
 20
468.507
 21
468.503
  0
LINE
  8
0
 10
80.094
 11
80.047
 20
468.503
 21
468.501
  0
LINE
  8
0
 10
80.047
 11
80
 20
468.501
 21
468.5
  0
LINE
  8
0
 10
80
 11
79.953
 20
468.5
 21
468.501
  0
LINE
  8
0
 10
79.953
 11
79.906
 20
468.501
 21
468.503
  0
LINE
  8
0
 10
79.906
 11
79.859
 20
468.503
 21
468.507
  0
LINE
  8
0
 10
79.859
 11
79.812
 20
468.507
 21
468.512
  0
LINE
  8
0
 10
79.812
 11
79.765
 20
468.512
 21
468.518
  0
LINE
  8
0
 10
79.765
 11
79.719
 20
468.518
 21
468.527
  0
LINE
  8
0
 10
79.719
 11
79.673
 20
468.527
 21
468.536
  0
LINE
  8
0
 10
79.673
 11
79.627
 20
468.536
 21
468.547
  0
LINE
  8
0
 10
79.627
 11
79.582
 20
468.547
 21
468.56
  0
LINE
  8
0
 10
79.582
 11
79.536
 20
468.56
 21
468.573
  0
LINE
  8
0
 10
79.536
 11
79.492
 20
468.573
 21
468.589
  0
LINE
  8
0
 10
79.492
 11
79.448
 20
468.589
 21
468.605
  0
LINE
  8
0
 10
79.448
 11
79.404
 20
468.605
 21
468.623
  0
LINE
  8
0
 10
79.404
 11
79.361
 20
468.623
 21
468.643
  0
LINE
  8
0
 10
79.361
 11
79.319
 20
468.643
 21
468.663
  0
LINE
  8
0
 10
79.319
 11
79.277
 20
468.663
 21
468.686
  0
LINE
  8
0
 10
79.277
 11
79.236
 20
468.686
 21
468.709
  0
LINE
  8
0
 10
79.236
 11
79.196
 20
468.709
 21
468.734
  0
LINE
  8
0
 10
79.196
 11
79.157
 20
468.734
 21
468.759
  0
LINE
  8
0
 10
79.157
 11
79.118
 20
468.759
 21
468.786
  0
LINE
  8
0
 10
79.118
 11
79.081
 20
468.786
 21
468.815
  0
LINE
  8
0
 10
79.081
 11
79.044
 20
468.815
 21
468.844
  0
LINE
  8
0
 10
79.044
 11
79.008
 20
468.844
 21
468.875
  0
LINE
  8
0
 10
79.008
 11
78.973
 20
468.875
 21
468.907
  0
LINE
  8
0
 10
78.973
 11
78.939
 20
468.907
 21
468.939
  0
LINE
  8
0
 10
78.939
 11
78.907
 20
468.939
 21
468.973
  0
LINE
  8
0
 10
78.907
 11
78.875
 20
468.973
 21
469.008
  0
LINE
  8
0
 10
78.875
 11
78.844
 20
469.008
 21
469.044
  0
LINE
  8
0
 10
78.844
 11
78.815
 20
469.044
 21
469.081
  0
LINE
  8
0
 10
78.815
 11
78.786
 20
469.081
 21
469.118
  0
LINE
  8
0
 10
78.786
 11
78.759
 20
469.118
 21
469.157
  0
LINE
  8
0
 10
78.759
 11
78.734
 20
469.157
 21
469.196
  0
LINE
  8
0
 10
78.734
 11
78.709
 20
469.196
 21
469.236
  0
LINE
  8
0
 10
78.709
 11
78.686
 20
469.236
 21
469.277
  0
LINE
  8
0
 10
78.686
 11
78.663
 20
469.277
 21
469.319
  0
LINE
  8
0
 10
78.663
 11
78.643
 20
469.319
 21
469.361
  0
LINE
  8
0
 10
78.643
 11
78.623
 20
469.361
 21
469.404
  0
LINE
  8
0
 10
78.623
 11
78.605
 20
469.404
 21
469.448
  0
LINE
  8
0
 10
78.605
 11
78.589
 20
469.448
 21
469.492
  0
LINE
  8
0
 10
78.589
 11
78.573
 20
469.492
 21
469.536
  0
LINE
  8
0
 10
78.573
 11
78.56
 20
469.536
 21
469.582
  0
LINE
  8
0
 10
78.56
 11
78.547
 20
469.582
 21
469.627
  0
LINE
  8
0
 10
78.547
 11
78.536
 20
469.627
 21
469.673
  0
LINE
  8
0
 10
78.536
 11
78.518
 20
469.673
 21
469.765
  0
LINE
  8
0
 10
78.518
 11
78.512
 20
469.765
 21
469.812
  0
LINE
  8
0
 10
78.512
 11
78.507
 20
469.812
 21
469.859
  0
LINE
  8
0
 10
78.507
 11
78.503
 20
469.859
 21
469.906
  0
LINE
  8
0
 10
78.503
 11
78.501
 20
469.906
 21
469.953
  0
LINE
  8
0
 10
78.501
 11
78.5
 20
469.953
 21
470
  0
LINE
  8
0
 10
138
 11
138.002
 20
470
 21
470.126
  0
LINE
  8
0
 10
138.002
 11
138.008
 20
470.126
 21
470.251
  0
LINE
  8
0
 10
138.008
 11
138.018
 20
470.251
 21
470.376
  0
LINE
  8
0
 10
138.018
 11
138.032
 20
470.376
 21
470.501
  0
LINE
  8
0
 10
138.032
 11
138.049
 20
470.501
 21
470.626
  0
LINE
  8
0
 10
138.049
 11
138.071
 20
470.626
 21
470.75
  0
LINE
  8
0
 10
138.071
 11
138.096
 20
470.75
 21
470.873
  0
LINE
  8
0
 10
138.096
 11
138.126
 20
470.873
 21
470.995
  0
LINE
  8
0
 10
138.126
 11
138.159
 20
470.995
 21
471.116
  0
LINE
  8
0
 10
138.159
 11
138.196
 20
471.116
 21
471.236
  0
LINE
  8
0
 10
138.196
 11
138.236
 20
471.236
 21
471.355
  0
LINE
  8
0
 10
138.236
 11
138.281
 20
471.355
 21
471.472
  0
LINE
  8
0
 10
138.281
 11
138.329
 20
471.472
 21
471.589
  0
LINE
  8
0
 10
138.329
 11
138.381
 20
471.589
 21
471.703
  0
LINE
  8
0
 10
138.381
 11
138.436
 20
471.703
 21
471.816
  0
LINE
  8
0
 10
138.436
 11
138.495
 20
471.816
 21
471.927
  0
LINE
  8
0
 10
138.495
 11
138.557
 20
471.927
 21
472.036
  0
LINE
  8
0
 10
138.557
 11
138.623
 20
472.036
 21
472.143
  0
LINE
  8
0
 10
138.623
 11
138.692
 20
472.143
 21
472.248
  0
LINE
  8
0
 10
138.692
 11
138.764
 20
472.248
 21
472.351
  0
LINE
  8
0
 10
138.764
 11
138.839
 20
472.351
 21
472.452
  0
LINE
  8
0
 10
138.839
 11
138.918
 20
472.452
 21
472.55
  0
LINE
  8
0
 10
138.918
 11
139
 20
472.55
 21
472.645
  0
LINE
  8
0
 10
139
 11
139.084
 20
472.645
 21
472.738
  0
LINE
  8
0
 10
139.084
 11
139.172
 20
472.738
 21
472.828
  0
LINE
  8
0
 10
139.172
 11
139.262
 20
472.828
 21
472.916
  0
LINE
  8
0
 10
139.262
 11
139.355
 20
472.916
 21
473
  0
LINE
  8
0
 10
139.355
 11
139.45
 20
473
 21
473.082
  0
LINE
  8
0
 10
139.45
 11
139.548
 20
473.082
 21
473.161
  0
LINE
  8
0
 10
139.548
 11
139.649
 20
473.161
 21
473.236
  0
LINE
  8
0
 10
139.649
 11
139.752
 20
473.236
 21
473.308
  0
LINE
  8
0
 10
139.752
 11
139.857
 20
473.308
 21
473.377
  0
LINE
  8
0
 10
139.857
 11
139.964
 20
473.377
 21
473.443
  0
LINE
  8
0
 10
139.964
 11
140.073
 20
473.443
 21
473.505
  0
LINE
  8
0
 10
140.073
 11
140.184
 20
473.505
 21
473.564
  0
LINE
  8
0
 10
140.184
 11
140.297
 20
473.564
 21
473.619
  0
LINE
  8
0
 10
140.297
 11
140.411
 20
473.619
 21
473.671
  0
LINE
  8
0
 10
140.411
 11
140.528
 20
473.671
 21
473.719
  0
LINE
  8
0
 10
140.528
 11
140.645
 20
473.719
 21
473.764
  0
LINE
  8
0
 10
140.645
 11
140.764
 20
473.764
 21
473.804
  0
LINE
  8
0
 10
140.764
 11
140.884
 20
473.804
 21
473.841
  0
LINE
  8
0
 10
140.884
 11
141.005
 20
473.841
 21
473.874
  0
LINE
  8
0
 10
141.005
 11
141.127
 20
473.874
 21
473.904
  0
LINE
  8
0
 10
141.127
 11
141.25
 20
473.904
 21
473.929
  0
LINE
  8
0
 10
141.25
 11
141.374
 20
473.929
 21
473.951
  0
LINE
  8
0
 10
141.374
 11
141.499
 20
473.951
 21
473.968
  0
LINE
  8
0
 10
141.499
 11
141.624
 20
473.968
 21
473.982
  0
LINE
  8
0
 10
141.624
 11
141.749
 20
473.982
 21
473.992
  0
LINE
  8
0
 10
141.749
 11
141.874
 20
473.992
 21
473.998
  0
LINE
  8
0
 10
141.874
 11
142
 20
473.998
 21
474
  0
LINE
  8
0
 10
142
 11
142.126
 20
474
 21
473.998
  0
LINE
  8
0
 10
142.126
 11
142.251
 20
473.998
 21
473.992
  0
LINE
  8
0
 10
142.251
 11
142.376
 20
473.992
 21
473.982
  0
LINE
  8
0
 10
142.376
 11
142.501
 20
473.982
 21
473.968
  0
LINE
  8
0
 10
142.501
 11
142.626
 20
473.968
 21
473.951
  0
LINE
  8
0
 10
142.626
 11
142.75
 20
473.951
 21
473.929
  0
LINE
  8
0
 10
142.75
 11
142.873
 20
473.929
 21
473.904
  0
LINE
  8
0
 10
142.873
 11
142.995
 20
473.904
 21
473.874
  0
LINE
  8
0
 10
142.995
 11
143.116
 20
473.874
 21
473.841
  0
LINE
  8
0
 10
143.116
 11
143.236
 20
473.841
 21
473.804
  0
LINE
  8
0
 10
143.236
 11
143.355
 20
473.804
 21
473.764
  0
LINE
  8
0
 10
143.355
 11
143.472
 20
473.764
 21
473.719
  0
LINE
  8
0
 10
143.472
 11
143.589
 20
473.719
 21
473.671
  0
LINE
  8
0
 10
143.589
 11
143.703
 20
473.671
 21
473.619
  0
LINE
  8
0
 10
143.703
 11
143.816
 20
473.619
 21
473.564
  0
LINE
  8
0
 10
143.816
 11
143.927
 20
473.564
 21
473.505
  0
LINE
  8
0
 10
143.927
 11
144.036
 20
473.505
 21
473.443
  0
LINE
  8
0
 10
144.036
 11
144.143
 20
473.443
 21
473.377
  0
LINE
  8
0
 10
144.143
 11
144.248
 20
473.377
 21
473.308
  0
LINE
  8
0
 10
144.248
 11
144.351
 20
473.308
 21
473.236
  0
LINE
  8
0
 10
144.351
 11
144.452
 20
473.236
 21
473.161
  0
LINE
  8
0
 10
144.452
 11
144.55
 20
473.161
 21
473.082
  0
LINE
  8
0
 10
144.55
 11
144.645
 20
473.082
 21
473
  0
LINE
  8
0
 10
144.645
 11
144.738
 20
473
 21
472.916
  0
LINE
  8
0
 10
144.738
 11
144.828
 20
472.916
 21
472.828
  0
LINE
  8
0
 10
144.828
 11
144.916
 20
472.828
 21
472.738
  0
LINE
  8
0
 10
144.916
 11
145
 20
472.738
 21
472.645
  0
LINE
  8
0
 10
145
 11
145.082
 20
472.645
 21
472.55
  0
LINE
  8
0
 10
145.082
 11
145.161
 20
472.55
 21
472.452
  0
LINE
  8
0
 10
145.161
 11
145.236
 20
472.452
 21
472.351
  0
LINE
  8
0
 10
145.236
 11
145.308
 20
472.351
 21
472.248
  0
LINE
  8
0
 10
145.308
 11
145.377
 20
472.248
 21
472.143
  0
LINE
  8
0
 10
145.377
 11
145.443
 20
472.143
 21
472.036
  0
LINE
  8
0
 10
145.443
 11
145.505
 20
472.036
 21
471.927
  0
LINE
  8
0
 10
145.505
 11
145.564
 20
471.927
 21
471.816
  0
LINE
  8
0
 10
145.564
 11
145.619
 20
471.816
 21
471.703
  0
LINE
  8
0
 10
145.619
 11
145.671
 20
471.703
 21
471.589
  0
LINE
  8
0
 10
145.671
 11
145.719
 20
471.589
 21
471.472
  0
LINE
  8
0
 10
145.719
 11
145.764
 20
471.472
 21
471.355
  0
LINE
  8
0
 10
145.764
 11
145.804
 20
471.355
 21
471.236
  0
LINE
  8
0
 10
145.804
 11
145.841
 20
471.236
 21
471.116
  0
LINE
  8
0
 10
145.841
 11
145.874
 20
471.116
 21
470.995
  0
LINE
  8
0
 10
145.874
 11
145.904
 20
470.995
 21
470.873
  0
LINE
  8
0
 10
145.904
 11
145.929
 20
470.873
 21
470.75
  0
LINE
  8
0
 10
145.929
 11
145.951
 20
470.75
 21
470.626
  0
LINE
  8
0
 10
145.951
 11
145.968
 20
470.626
 21
470.501
  0
LINE
  8
0
 10
145.968
 11
145.982
 20
470.501
 21
470.376
  0
LINE
  8
0
 10
145.982
 11
145.992
 20
470.376
 21
470.251
  0
LINE
  8
0
 10
145.992
 11
145.998
 20
470.251
 21
470.126
  0
LINE
  8
0
 10
145.998
 11
146
 20
470.126
 21
470
  0
LINE
  8
0
 10
146
 11
145.998
 20
470
 21
469.874
  0
LINE
  8
0
 10
145.998
 11
145.992
 20
469.874
 21
469.749
  0
LINE
  8
0
 10
145.992
 11
145.982
 20
469.749
 21
469.624
  0
LINE
  8
0
 10
145.982
 11
145.968
 20
469.624
 21
469.499
  0
LINE
  8
0
 10
145.968
 11
145.951
 20
469.499
 21
469.374
  0
LINE
  8
0
 10
145.951
 11
145.929
 20
469.374
 21
469.25
  0
LINE
  8
0
 10
145.929
 11
145.904
 20
469.25
 21
469.127
  0
LINE
  8
0
 10
145.904
 11
145.874
 20
469.127
 21
469.005
  0
LINE
  8
0
 10
145.874
 11
145.841
 20
469.005
 21
468.884
  0
LINE
  8
0
 10
145.841
 11
145.804
 20
468.884
 21
468.764
  0
LINE
  8
0
 10
145.804
 11
145.764
 20
468.764
 21
468.645
  0
LINE
  8
0
 10
145.764
 11
145.719
 20
468.645
 21
468.528
  0
LINE
  8
0
 10
145.719
 11
145.671
 20
468.528
 21
468.411
  0
LINE
  8
0
 10
145.671
 11
145.619
 20
468.411
 21
468.297
  0
LINE
  8
0
 10
145.619
 11
145.564
 20
468.297
 21
468.184
  0
LINE
  8
0
 10
145.564
 11
145.505
 20
468.184
 21
468.073
  0
LINE
  8
0
 10
145.505
 11
145.443
 20
468.073
 21
467.964
  0
LINE
  8
0
 10
145.443
 11
145.377
 20
467.964
 21
467.857
  0
LINE
  8
0
 10
145.377
 11
145.308
 20
467.857
 21
467.752
  0
LINE
  8
0
 10
145.308
 11
145.236
 20
467.752
 21
467.649
  0
LINE
  8
0
 10
145.236
 11
145.161
 20
467.649
 21
467.548
  0
LINE
  8
0
 10
145.161
 11
145.082
 20
467.548
 21
467.45
  0
LINE
  8
0
 10
145.082
 11
145
 20
467.45
 21
467.355
  0
LINE
  8
0
 10
145
 11
144.916
 20
467.355
 21
467.262
  0
LINE
  8
0
 10
144.916
 11
144.828
 20
467.262
 21
467.172
  0
LINE
  8
0
 10
144.828
 11
144.738
 20
467.172
 21
467.084
  0
LINE
  8
0
 10
144.738
 11
144.645
 20
467.084
 21
467
  0
LINE
  8
0
 10
144.645
 11
144.55
 20
467
 21
466.918
  0
LINE
  8
0
 10
144.55
 11
144.452
 20
466.918
 21
466.839
  0
LINE
  8
0
 10
144.452
 11
144.351
 20
466.839
 21
466.764
  0
LINE
  8
0
 10
144.351
 11
144.248
 20
466.764
 21
466.692
  0
LINE
  8
0
 10
144.248
 11
144.143
 20
466.692
 21
466.623
  0
LINE
  8
0
 10
144.143
 11
144.036
 20
466.623
 21
466.557
  0
LINE
  8
0
 10
144.036
 11
143.927
 20
466.557
 21
466.495
  0
LINE
  8
0
 10
143.927
 11
143.816
 20
466.495
 21
466.436
  0
LINE
  8
0
 10
143.816
 11
143.703
 20
466.436
 21
466.381
  0
LINE
  8
0
 10
143.703
 11
143.589
 20
466.381
 21
466.329
  0
LINE
  8
0
 10
143.589
 11
143.472
 20
466.329
 21
466.281
  0
LINE
  8
0
 10
143.472
 11
143.355
 20
466.281
 21
466.236
  0
LINE
  8
0
 10
143.355
 11
143.236
 20
466.236
 21
466.196
  0
LINE
  8
0
 10
143.236
 11
143.116
 20
466.196
 21
466.159
  0
LINE
  8
0
 10
143.116
 11
142.995
 20
466.159
 21
466.126
  0
LINE
  8
0
 10
142.995
 11
142.873
 20
466.126
 21
466.096
  0
LINE
  8
0
 10
142.873
 11
142.75
 20
466.096
 21
466.071
  0
LINE
  8
0
 10
142.75
 11
142.626
 20
466.071
 21
466.049
  0
LINE
  8
0
 10
142.626
 11
142.501
 20
466.049
 21
466.032
  0
LINE
  8
0
 10
142.501
 11
142.376
 20
466.032
 21
466.018
  0
LINE
  8
0
 10
142.376
 11
142.251
 20
466.018
 21
466.008
  0
LINE
  8
0
 10
142.251
 11
142.126
 20
466.008
 21
466.002
  0
LINE
  8
0
 10
142.126
 11
142
 20
466.002
 21
466
  0
LINE
  8
0
 10
142
 11
141.874
 20
466
 21
466.002
  0
LINE
  8
0
 10
141.874
 11
141.749
 20
466.002
 21
466.008
  0
LINE
  8
0
 10
141.749
 11
141.624
 20
466.008
 21
466.018
  0
LINE
  8
0
 10
141.624
 11
141.499
 20
466.018
 21
466.032
  0
LINE
  8
0
 10
141.499
 11
141.374
 20
466.032
 21
466.049
  0
LINE
  8
0
 10
141.374
 11
141.25
 20
466.049
 21
466.071
  0
LINE
  8
0
 10
141.25
 11
141.127
 20
466.071
 21
466.096
  0
LINE
  8
0
 10
141.127
 11
141.005
 20
466.096
 21
466.126
  0
LINE
  8
0
 10
141.005
 11
140.884
 20
466.126
 21
466.159
  0
LINE
  8
0
 10
140.884
 11
140.764
 20
466.159
 21
466.196
  0
LINE
  8
0
 10
140.764
 11
140.645
 20
466.196
 21
466.236
  0
LINE
  8
0
 10
140.645
 11
140.528
 20
466.236
 21
466.281
  0
LINE
  8
0
 10
140.528
 11
140.411
 20
466.281
 21
466.329
  0
LINE
  8
0
 10
140.411
 11
140.297
 20
466.329
 21
466.381
  0
LINE
  8
0
 10
140.297
 11
140.184
 20
466.381
 21
466.436
  0
LINE
  8
0
 10
140.184
 11
140.073
 20
466.436
 21
466.495
  0
LINE
  8
0
 10
140.073
 11
139.964
 20
466.495
 21
466.557
  0
LINE
  8
0
 10
139.964
 11
139.857
 20
466.557
 21
466.623
  0
LINE
  8
0
 10
139.857
 11
139.752
 20
466.623
 21
466.692
  0
LINE
  8
0
 10
139.752
 11
139.649
 20
466.692
 21
466.764
  0
LINE
  8
0
 10
139.649
 11
139.548
 20
466.764
 21
466.839
  0
LINE
  8
0
 10
139.548
 11
139.45
 20
466.839
 21
466.918
  0
LINE
  8
0
 10
139.45
 11
139.355
 20
466.918
 21
467
  0
LINE
  8
0
 10
139.355
 11
139.262
 20
467
 21
467.084
  0
LINE
  8
0
 10
139.262
 11
139.172
 20
467.084
 21
467.172
  0
LINE
  8
0
 10
139.172
 11
139.084
 20
467.172
 21
467.262
  0
LINE
  8
0
 10
139.084
 11
139
 20
467.262
 21
467.355
  0
LINE
  8
0
 10
139
 11
138.918
 20
467.355
 21
467.45
  0
LINE
  8
0
 10
138.918
 11
138.839
 20
467.45
 21
467.548
  0
LINE
  8
0
 10
138.839
 11
138.764
 20
467.548
 21
467.649
  0
LINE
  8
0
 10
138.764
 11
138.692
 20
467.649
 21
467.752
  0
LINE
  8
0
 10
138.692
 11
138.623
 20
467.752
 21
467.857
  0
LINE
  8
0
 10
138.623
 11
138.557
 20
467.857
 21
467.964
  0
LINE
  8
0
 10
138.557
 11
138.495
 20
467.964
 21
468.073
  0
LINE
  8
0
 10
138.495
 11
138.436
 20
468.073
 21
468.184
  0
LINE
  8
0
 10
138.436
 11
138.381
 20
468.184
 21
468.297
  0
LINE
  8
0
 10
138.381
 11
138.329
 20
468.297
 21
468.411
  0
LINE
  8
0
 10
138.329
 11
138.281
 20
468.411
 21
468.528
  0
LINE
  8
0
 10
138.281
 11
138.236
 20
468.528
 21
468.645
  0
LINE
  8
0
 10
138.236
 11
138.196
 20
468.645
 21
468.764
  0
LINE
  8
0
 10
138.196
 11
138.159
 20
468.764
 21
468.884
  0
LINE
  8
0
 10
138.159
 11
138.126
 20
468.884
 21
469.005
  0
LINE
  8
0
 10
138.126
 11
138.096
 20
469.005
 21
469.127
  0
LINE
  8
0
 10
138.096
 11
138.071
 20
469.127
 21
469.25
  0
LINE
  8
0
 10
138.071
 11
138.049
 20
469.25
 21
469.374
  0
LINE
  8
0
 10
138.049
 11
138.032
 20
469.374
 21
469.499
  0
LINE
  8
0
 10
138.032
 11
138.018
 20
469.499
 21
469.624
  0
LINE
  8
0
 10
138.018
 11
138.008
 20
469.624
 21
469.749
  0
LINE
  8
0
 10
138.008
 11
138.002
 20
469.749
 21
469.874
  0
LINE
  8
0
 10
138.002
 11
138
 20
469.874
 21
470
  0
LINE
  8
0
 10
140.5
 11
140.501
 20
408
 21
408.047
  0
LINE
  8
0
 10
140.501
 11
140.503
 20
408.047
 21
408.094
  0
LINE
  8
0
 10
140.503
 11
140.507
 20
408.094
 21
408.141
  0
LINE
  8
0
 10
140.507
 11
140.512
 20
408.141
 21
408.188
  0
LINE
  8
0
 10
140.512
 11
140.518
 20
408.188
 21
408.235
  0
LINE
  8
0
 10
140.518
 11
140.527
 20
408.235
 21
408.281
  0
LINE
  8
0
 10
140.527
 11
140.536
 20
408.281
 21
408.327
  0
LINE
  8
0
 10
140.536
 11
140.547
 20
408.327
 21
408.373
  0
LINE
  8
0
 10
140.547
 11
140.56
 20
408.373
 21
408.418
  0
LINE
  8
0
 10
140.56
 11
140.573
 20
408.418
 21
408.464
  0
LINE
  8
0
 10
140.573
 11
140.589
 20
408.464
 21
408.508
  0
LINE
  8
0
 10
140.589
 11
140.605
 20
408.508
 21
408.552
  0
LINE
  8
0
 10
140.605
 11
140.623
 20
408.552
 21
408.596
  0
LINE
  8
0
 10
140.623
 11
140.643
 20
408.596
 21
408.639
  0
LINE
  8
0
 10
140.643
 11
140.663
 20
408.639
 21
408.681
  0
LINE
  8
0
 10
140.663
 11
140.686
 20
408.681
 21
408.723
  0
LINE
  8
0
 10
140.686
 11
140.709
 20
408.723
 21
408.764
  0
LINE
  8
0
 10
140.709
 11
140.734
 20
408.764
 21
408.804
  0
LINE
  8
0
 10
140.734
 11
140.759
 20
408.804
 21
408.843
  0
LINE
  8
0
 10
140.759
 11
140.786
 20
408.843
 21
408.882
  0
LINE
  8
0
 10
140.786
 11
140.815
 20
408.882
 21
408.919
  0
LINE
  8
0
 10
140.815
 11
140.844
 20
408.919
 21
408.956
  0
LINE
  8
0
 10
140.844
 11
140.875
 20
408.956
 21
408.992
  0
LINE
  8
0
 10
140.875
 11
140.907
 20
408.992
 21
409.027
  0
LINE
  8
0
 10
140.907
 11
140.939
 20
409.027
 21
409.061
  0
LINE
  8
0
 10
140.939
 11
140.973
 20
409.061
 21
409.093
  0
LINE
  8
0
 10
140.973
 11
141.008
 20
409.093
 21
409.125
  0
LINE
  8
0
 10
141.008
 11
141.044
 20
409.125
 21
409.156
  0
LINE
  8
0
 10
141.044
 11
141.081
 20
409.156
 21
409.185
  0
LINE
  8
0
 10
141.081
 11
141.118
 20
409.185
 21
409.214
  0
LINE
  8
0
 10
141.118
 11
141.157
 20
409.214
 21
409.241
  0
LINE
  8
0
 10
141.157
 11
141.196
 20
409.241
 21
409.266
  0
LINE
  8
0
 10
141.196
 11
141.236
 20
409.266
 21
409.291
  0
LINE
  8
0
 10
141.236
 11
141.277
 20
409.291
 21
409.314
  0
LINE
  8
0
 10
141.277
 11
141.319
 20
409.314
 21
409.337
  0
LINE
  8
0
 10
141.319
 11
141.361
 20
409.337
 21
409.357
  0
LINE
  8
0
 10
141.361
 11
141.404
 20
409.357
 21
409.377
  0
LINE
  8
0
 10
141.404
 11
141.448
 20
409.377
 21
409.395
  0
LINE
  8
0
 10
141.448
 11
141.492
 20
409.395
 21
409.411
  0
LINE
  8
0
 10
141.492
 11
141.536
 20
409.411
 21
409.427
  0
LINE
  8
0
 10
141.536
 11
141.582
 20
409.427
 21
409.44
  0
LINE
  8
0
 10
141.582
 11
141.627
 20
409.44
 21
409.453
  0
LINE
  8
0
 10
141.627
 11
141.673
 20
409.453
 21
409.464
  0
LINE
  8
0
 10
141.673
 11
141.719
 20
409.464
 21
409.473
  0
LINE
  8
0
 10
141.719
 11
141.765
 20
409.473
 21
409.482
  0
LINE
  8
0
 10
141.765
 11
141.812
 20
409.482
 21
409.488
  0
LINE
  8
0
 10
141.812
 11
141.859
 20
409.488
 21
409.493
  0
LINE
  8
0
 10
141.859
 11
141.906
 20
409.493
 21
409.497
  0
LINE
  8
0
 10
141.906
 11
141.953
 20
409.497
 21
409.499
  0
LINE
  8
0
 10
141.953
 11
142
 20
409.499
 21
409.5
  0
LINE
  8
0
 10
142
 11
142.047
 20
409.5
 21
409.499
  0
LINE
  8
0
 10
142.047
 11
142.094
 20
409.499
 21
409.497
  0
LINE
  8
0
 10
142.094
 11
142.141
 20
409.497
 21
409.493
  0
LINE
  8
0
 10
142.141
 11
142.188
 20
409.493
 21
409.488
  0
LINE
  8
0
 10
142.188
 11
142.235
 20
409.488
 21
409.482
  0
LINE
  8
0
 10
142.235
 11
142.327
 20
409.482
 21
409.464
  0
LINE
  8
0
 10
142.327
 11
142.373
 20
409.464
 21
409.453
  0
LINE
  8
0
 10
142.373
 11
142.418
 20
409.453
 21
409.44
  0
LINE
  8
0
 10
142.418
 11
142.464
 20
409.44
 21
409.427
  0
LINE
  8
0
 10
142.464
 11
142.508
 20
409.427
 21
409.411
  0
LINE
  8
0
 10
142.508
 11
142.552
 20
409.411
 21
409.395
  0
LINE
  8
0
 10
142.552
 11
142.596
 20
409.395
 21
409.377
  0
LINE
  8
0
 10
142.596
 11
142.639
 20
409.377
 21
409.357
  0
LINE
  8
0
 10
142.639
 11
142.681
 20
409.357
 21
409.337
  0
LINE
  8
0
 10
142.681
 11
142.723
 20
409.337
 21
409.314
  0
LINE
  8
0
 10
142.723
 11
142.764
 20
409.314
 21
409.291
  0
LINE
  8
0
 10
142.764
 11
142.804
 20
409.291
 21
409.266
  0
LINE
  8
0
 10
142.804
 11
142.843
 20
409.266
 21
409.241
  0
LINE
  8
0
 10
142.843
 11
142.882
 20
409.241
 21
409.214
  0
LINE
  8
0
 10
142.882
 11
142.919
 20
409.214
 21
409.185
  0
LINE
  8
0
 10
142.919
 11
142.956
 20
409.185
 21
409.156
  0
LINE
  8
0
 10
142.956
 11
142.992
 20
409.156
 21
409.125
  0
LINE
  8
0
 10
142.992
 11
143.027
 20
409.125
 21
409.093
  0
LINE
  8
0
 10
143.027
 11
143.061
 20
409.093
 21
409.061
  0
LINE
  8
0
 10
143.061
 11
143.093
 20
409.061
 21
409.027
  0
LINE
  8
0
 10
143.093
 11
143.125
 20
409.027
 21
408.992
  0
LINE
  8
0
 10
143.125
 11
143.156
 20
408.992
 21
408.956
  0
LINE
  8
0
 10
143.156
 11
143.185
 20
408.956
 21
408.919
  0
LINE
  8
0
 10
143.185
 11
143.214
 20
408.919
 21
408.882
  0
LINE
  8
0
 10
143.214
 11
143.241
 20
408.882
 21
408.843
  0
LINE
  8
0
 10
143.241
 11
143.266
 20
408.843
 21
408.804
  0
LINE
  8
0
 10
143.266
 11
143.291
 20
408.804
 21
408.764
  0
LINE
  8
0
 10
143.291
 11
143.314
 20
408.764
 21
408.723
  0
LINE
  8
0
 10
143.314
 11
143.337
 20
408.723
 21
408.681
  0
LINE
  8
0
 10
143.337
 11
143.357
 20
408.681
 21
408.639
  0
LINE
  8
0
 10
143.357
 11
143.377
 20
408.639
 21
408.596
  0
LINE
  8
0
 10
143.377
 11
143.395
 20
408.596
 21
408.552
  0
LINE
  8
0
 10
143.395
 11
143.411
 20
408.552
 21
408.508
  0
LINE
  8
0
 10
143.411
 11
143.427
 20
408.508
 21
408.464
  0
LINE
  8
0
 10
143.427
 11
143.44
 20
408.464
 21
408.418
  0
LINE
  8
0
 10
143.44
 11
143.453
 20
408.418
 21
408.373
  0
LINE
  8
0
 10
143.453
 11
143.464
 20
408.373
 21
408.327
  0
LINE
  8
0
 10
143.464
 11
143.473
 20
408.327
 21
408.281
  0
LINE
  8
0
 10
143.473
 11
143.482
 20
408.281
 21
408.235
  0
LINE
  8
0
 10
143.482
 11
143.488
 20
408.235
 21
408.188
  0
LINE
  8
0
 10
143.488
 11
143.493
 20
408.188
 21
408.141
  0
LINE
  8
0
 10
143.493
 11
143.497
 20
408.141
 21
408.094
  0
LINE
  8
0
 10
143.497
 11
143.499
 20
408.094
 21
408.047
  0
LINE
  8
0
 10
143.499
 11
143.5
 20
408.047
 21
408
  0
LINE
  8
0
 10
143.5
 11
143.499
 20
408
 21
407.953
  0
LINE
  8
0
 10
143.499
 11
143.497
 20
407.953
 21
407.906
  0
LINE
  8
0
 10
143.497
 11
143.493
 20
407.906
 21
407.859
  0
LINE
  8
0
 10
143.493
 11
143.488
 20
407.859
 21
407.812
  0
LINE
  8
0
 10
143.488
 11
143.482
 20
407.812
 21
407.765
  0
LINE
  8
0
 10
143.482
 11
143.473
 20
407.765
 21
407.719
  0
LINE
  8
0
 10
143.473
 11
143.464
 20
407.719
 21
407.673
  0
LINE
  8
0
 10
143.464
 11
143.453
 20
407.673
 21
407.627
  0
LINE
  8
0
 10
143.453
 11
143.44
 20
407.627
 21
407.582
  0
LINE
  8
0
 10
143.44
 11
143.427
 20
407.582
 21
407.536
  0
LINE
  8
0
 10
143.427
 11
143.395
 20
407.536
 21
407.448
  0
LINE
  8
0
 10
143.395
 11
143.377
 20
407.448
 21
407.404
  0
LINE
  8
0
 10
143.377
 11
143.357
 20
407.404
 21
407.361
  0
LINE
  8
0
 10
143.357
 11
143.337
 20
407.361
 21
407.319
  0
LINE
  8
0
 10
143.337
 11
143.314
 20
407.319
 21
407.277
  0
LINE
  8
0
 10
143.314
 11
143.291
 20
407.277
 21
407.236
  0
LINE
  8
0
 10
143.291
 11
143.266
 20
407.236
 21
407.196
  0
LINE
  8
0
 10
143.266
 11
143.241
 20
407.196
 21
407.157
  0
LINE
  8
0
 10
143.241
 11
143.214
 20
407.157
 21
407.118
  0
LINE
  8
0
 10
143.214
 11
143.185
 20
407.118
 21
407.081
  0
LINE
  8
0
 10
143.185
 11
143.156
 20
407.081
 21
407.044
  0
LINE
  8
0
 10
143.156
 11
143.125
 20
407.044
 21
407.008
  0
LINE
  8
0
 10
143.125
 11
143.093
 20
407.008
 21
406.973
  0
LINE
  8
0
 10
143.093
 11
143.061
 20
406.973
 21
406.939
  0
LINE
  8
0
 10
143.061
 11
143.027
 20
406.939
 21
406.907
  0
LINE
  8
0
 10
143.027
 11
142.992
 20
406.907
 21
406.875
  0
LINE
  8
0
 10
142.992
 11
142.956
 20
406.875
 21
406.844
  0
LINE
  8
0
 10
142.956
 11
142.919
 20
406.844
 21
406.815
  0
LINE
  8
0
 10
142.919
 11
142.882
 20
406.815
 21
406.786
  0
LINE
  8
0
 10
142.882
 11
142.843
 20
406.786
 21
406.759
  0
LINE
  8
0
 10
142.843
 11
142.804
 20
406.759
 21
406.734
  0
LINE
  8
0
 10
142.804
 11
142.764
 20
406.734
 21
406.709
  0
LINE
  8
0
 10
142.764
 11
142.723
 20
406.709
 21
406.686
  0
LINE
  8
0
 10
142.723
 11
142.681
 20
406.686
 21
406.663
  0
LINE
  8
0
 10
142.681
 11
142.639
 20
406.663
 21
406.643
  0
LINE
  8
0
 10
142.639
 11
142.596
 20
406.643
 21
406.623
  0
LINE
  8
0
 10
142.596
 11
142.552
 20
406.623
 21
406.605
  0
LINE
  8
0
 10
142.552
 11
142.508
 20
406.605
 21
406.589
  0
LINE
  8
0
 10
142.508
 11
142.464
 20
406.589
 21
406.573
  0
LINE
  8
0
 10
142.464
 11
142.418
 20
406.573
 21
406.56
  0
LINE
  8
0
 10
142.418
 11
142.373
 20
406.56
 21
406.547
  0
LINE
  8
0
 10
142.373
 11
142.327
 20
406.547
 21
406.536
  0
LINE
  8
0
 10
142.327
 11
142.281
 20
406.536
 21
406.527
  0
LINE
  8
0
 10
142.281
 11
142.235
 20
406.527
 21
406.518
  0
LINE
  8
0
 10
142.235
 11
142.188
 20
406.518
 21
406.512
  0
LINE
  8
0
 10
142.188
 11
142.141
 20
406.512
 21
406.507
  0
LINE
  8
0
 10
142.141
 11
142.094
 20
406.507
 21
406.503
  0
LINE
  8
0
 10
142.094
 11
142.047
 20
406.503
 21
406.501
  0
LINE
  8
0
 10
142.047
 11
142
 20
406.501
 21
406.5
  0
LINE
  8
0
 10
142
 11
141.953
 20
406.5
 21
406.501
  0
LINE
  8
0
 10
141.953
 11
141.906
 20
406.501
 21
406.503
  0
LINE
  8
0
 10
141.906
 11
141.859
 20
406.503
 21
406.507
  0
LINE
  8
0
 10
141.859
 11
141.812
 20
406.507
 21
406.512
  0
LINE
  8
0
 10
141.812
 11
141.765
 20
406.512
 21
406.518
  0
LINE
  8
0
 10
141.765
 11
141.719
 20
406.518
 21
406.527
  0
LINE
  8
0
 10
141.719
 11
141.673
 20
406.527
 21
406.536
  0
LINE
  8
0
 10
141.673
 11
141.627
 20
406.536
 21
406.547
  0
LINE
  8
0
 10
141.627
 11
141.582
 20
406.547
 21
406.56
  0
LINE
  8
0
 10
141.582
 11
141.536
 20
406.56
 21
406.573
  0
LINE
  8
0
 10
141.536
 11
141.492
 20
406.573
 21
406.589
  0
LINE
  8
0
 10
141.492
 11
141.448
 20
406.589
 21
406.605
  0
LINE
  8
0
 10
141.448
 11
141.404
 20
406.605
 21
406.623
  0
LINE
  8
0
 10
141.404
 11
141.361
 20
406.623
 21
406.643
  0
LINE
  8
0
 10
141.361
 11
141.319
 20
406.643
 21
406.663
  0
LINE
  8
0
 10
141.319
 11
141.277
 20
406.663
 21
406.686
  0
LINE
  8
0
 10
141.277
 11
141.236
 20
406.686
 21
406.709
  0
LINE
  8
0
 10
141.236
 11
141.196
 20
406.709
 21
406.734
  0
LINE
  8
0
 10
141.196
 11
141.157
 20
406.734
 21
406.759
  0
LINE
  8
0
 10
141.157
 11
141.118
 20
406.759
 21
406.786
  0
LINE
  8
0
 10
141.118
 11
141.081
 20
406.786
 21
406.815
  0
LINE
  8
0
 10
141.081
 11
141.044
 20
406.815
 21
406.844
  0
LINE
  8
0
 10
141.044
 11
141.008
 20
406.844
 21
406.875
  0
LINE
  8
0
 10
141.008
 11
140.973
 20
406.875
 21
406.907
  0
LINE
  8
0
 10
140.973
 11
140.939
 20
406.907
 21
406.939
  0
LINE
  8
0
 10
140.939
 11
140.907
 20
406.939
 21
406.973
  0
LINE
  8
0
 10
140.907
 11
140.875
 20
406.973
 21
407.008
  0
LINE
  8
0
 10
140.875
 11
140.844
 20
407.008
 21
407.044
  0
LINE
  8
0
 10
140.844
 11
140.815
 20
407.044
 21
407.081
  0
LINE
  8
0
 10
140.815
 11
140.786
 20
407.081
 21
407.118
  0
LINE
  8
0
 10
140.786
 11
140.759
 20
407.118
 21
407.157
  0
LINE
  8
0
 10
140.759
 11
140.734
 20
407.157
 21
407.196
  0
LINE
  8
0
 10
140.734
 11
140.709
 20
407.196
 21
407.236
  0
LINE
  8
0
 10
140.709
 11
140.686
 20
407.236
 21
407.277
  0
LINE
  8
0
 10
140.686
 11
140.663
 20
407.277
 21
407.319
  0
LINE
  8
0
 10
140.663
 11
140.643
 20
407.319
 21
407.361
  0
LINE
  8
0
 10
140.643
 11
140.623
 20
407.361
 21
407.404
  0
LINE
  8
0
 10
140.623
 11
140.605
 20
407.404
 21
407.448
  0
LINE
  8
0
 10
140.605
 11
140.573
 20
407.448
 21
407.536
  0
LINE
  8
0
 10
140.573
 11
140.56
 20
407.536
 21
407.582
  0
LINE
  8
0
 10
140.56
 11
140.547
 20
407.582
 21
407.627
  0
LINE
  8
0
 10
140.547
 11
140.536
 20
407.627
 21
407.673
  0
LINE
  8
0
 10
140.536
 11
140.527
 20
407.673
 21
407.719
  0
LINE
  8
0
 10
140.527
 11
140.518
 20
407.719
 21
407.765
  0
LINE
  8
0
 10
140.518
 11
140.512
 20
407.765
 21
407.812
  0
LINE
  8
0
 10
140.512
 11
140.507
 20
407.812
 21
407.859
  0
LINE
  8
0
 10
140.507
 11
140.503
 20
407.859
 21
407.906
  0
LINE
  8
0
 10
140.503
 11
140.501
 20
407.906
 21
407.953
  0
LINE
  8
0
 10
140.501
 11
140.5
 20
407.953
 21
408
  0
LINE
  8
0
 10
140.5
 11
140.501
 20
532
 21
532.047
  0
LINE
  8
0
 10
140.501
 11
140.503
 20
532.047
 21
532.094
  0
LINE
  8
0
 10
140.503
 11
140.507
 20
532.094
 21
532.141
  0
LINE
  8
0
 10
140.507
 11
140.512
 20
532.141
 21
532.188
  0
LINE
  8
0
 10
140.512
 11
140.518
 20
532.188
 21
532.235
  0
LINE
  8
0
 10
140.518
 11
140.527
 20
532.235
 21
532.281
  0
LINE
  8
0
 10
140.527
 11
140.536
 20
532.281
 21
532.327
  0
LINE
  8
0
 10
140.536
 11
140.547
 20
532.327
 21
532.373
  0
LINE
  8
0
 10
140.547
 11
140.56
 20
532.373
 21
532.418
  0
LINE
  8
0
 10
140.56
 11
140.573
 20
532.418
 21
532.464
  0
LINE
  8
0
 10
140.573
 11
140.605
 20
532.464
 21
532.552
  0
LINE
  8
0
 10
140.605
 11
140.623
 20
532.552
 21
532.596
  0
LINE
  8
0
 10
140.623
 11
140.643
 20
532.596
 21
532.639
  0
LINE
  8
0
 10
140.643
 11
140.663
 20
532.639
 21
532.681
  0
LINE
  8
0
 10
140.663
 11
140.686
 20
532.681
 21
532.723
  0
LINE
  8
0
 10
140.686
 11
140.709
 20
532.723
 21
532.764
  0
LINE
  8
0
 10
140.709
 11
140.734
 20
532.764
 21
532.804
  0
LINE
  8
0
 10
140.734
 11
140.759
 20
532.804
 21
532.843
  0
LINE
  8
0
 10
140.759
 11
140.786
 20
532.843
 21
532.882
  0
LINE
  8
0
 10
140.786
 11
140.815
 20
532.882
 21
532.919
  0
LINE
  8
0
 10
140.815
 11
140.844
 20
532.919
 21
532.956
  0
LINE
  8
0
 10
140.844
 11
140.875
 20
532.956
 21
532.992
  0
LINE
  8
0
 10
140.875
 11
140.907
 20
532.992
 21
533.027
  0
LINE
  8
0
 10
140.907
 11
140.939
 20
533.027
 21
533.061
  0
LINE
  8
0
 10
140.939
 11
140.973
 20
533.061
 21
533.093
  0
LINE
  8
0
 10
140.973
 11
141.008
 20
533.093
 21
533.125
  0
LINE
  8
0
 10
141.008
 11
141.044
 20
533.125
 21
533.156
  0
LINE
  8
0
 10
141.044
 11
141.081
 20
533.156
 21
533.185
  0
LINE
  8
0
 10
141.081
 11
141.118
 20
533.185
 21
533.214
  0
LINE
  8
0
 10
141.118
 11
141.157
 20
533.214
 21
533.241
  0
LINE
  8
0
 10
141.157
 11
141.196
 20
533.241
 21
533.266
  0
LINE
  8
0
 10
141.196
 11
141.236
 20
533.266
 21
533.291
  0
LINE
  8
0
 10
141.236
 11
141.277
 20
533.291
 21
533.314
  0
LINE
  8
0
 10
141.277
 11
141.319
 20
533.314
 21
533.337
  0
LINE
  8
0
 10
141.319
 11
141.361
 20
533.337
 21
533.357
  0
LINE
  8
0
 10
141.361
 11
141.404
 20
533.357
 21
533.377
  0
LINE
  8
0
 10
141.404
 11
141.448
 20
533.377
 21
533.395
  0
LINE
  8
0
 10
141.448
 11
141.492
 20
533.395
 21
533.411
  0
LINE
  8
0
 10
141.492
 11
141.536
 20
533.411
 21
533.427
  0
LINE
  8
0
 10
141.536
 11
141.582
 20
533.427
 21
533.44
  0
LINE
  8
0
 10
141.582
 11
141.627
 20
533.44
 21
533.453
  0
LINE
  8
0
 10
141.627
 11
141.673
 20
533.453
 21
533.464
  0
LINE
  8
0
 10
141.673
 11
141.719
 20
533.464
 21
533.473
  0
LINE
  8
0
 10
141.719
 11
141.765
 20
533.473
 21
533.482
  0
LINE
  8
0
 10
141.765
 11
141.812
 20
533.482
 21
533.488
  0
LINE
  8
0
 10
141.812
 11
141.859
 20
533.488
 21
533.493
  0
LINE
  8
0
 10
141.859
 11
141.906
 20
533.493
 21
533.497
  0
LINE
  8
0
 10
141.906
 11
141.953
 20
533.497
 21
533.499
  0
LINE
  8
0
 10
141.953
 11
142
 20
533.499
 21
533.5
  0
LINE
  8
0
 10
142
 11
142.047
 20
533.5
 21
533.499
  0
LINE
  8
0
 10
142.047
 11
142.094
 20
533.499
 21
533.497
  0
LINE
  8
0
 10
142.094
 11
142.141
 20
533.497
 21
533.493
  0
LINE
  8
0
 10
142.141
 11
142.188
 20
533.493
 21
533.488
  0
LINE
  8
0
 10
142.188
 11
142.235
 20
533.488
 21
533.482
  0
LINE
  8
0
 10
142.235
 11
142.281
 20
533.482
 21
533.473
  0
LINE
  8
0
 10
142.281
 11
142.327
 20
533.473
 21
533.464
  0
LINE
  8
0
 10
142.327
 11
142.373
 20
533.464
 21
533.453
  0
LINE
  8
0
 10
142.373
 11
142.418
 20
533.453
 21
533.44
  0
LINE
  8
0
 10
142.418
 11
142.464
 20
533.44
 21
533.427
  0
LINE
  8
0
 10
142.464
 11
142.508
 20
533.427
 21
533.411
  0
LINE
  8
0
 10
142.508
 11
142.552
 20
533.411
 21
533.395
  0
LINE
  8
0
 10
142.552
 11
142.596
 20
533.395
 21
533.377
  0
LINE
  8
0
 10
142.596
 11
142.639
 20
533.377
 21
533.357
  0
LINE
  8
0
 10
142.639
 11
142.681
 20
533.357
 21
533.337
  0
LINE
  8
0
 10
142.681
 11
142.723
 20
533.337
 21
533.314
  0
LINE
  8
0
 10
142.723
 11
142.764
 20
533.314
 21
533.291
  0
LINE
  8
0
 10
142.764
 11
142.804
 20
533.291
 21
533.266
  0
LINE
  8
0
 10
142.804
 11
142.843
 20
533.266
 21
533.241
  0
LINE
  8
0
 10
142.843
 11
142.882
 20
533.241
 21
533.214
  0
LINE
  8
0
 10
142.882
 11
142.919
 20
533.214
 21
533.185
  0
LINE
  8
0
 10
142.919
 11
142.956
 20
533.185
 21
533.156
  0
LINE
  8
0
 10
142.956
 11
142.992
 20
533.156
 21
533.125
  0
LINE
  8
0
 10
142.992
 11
143.027
 20
533.125
 21
533.093
  0
LINE
  8
0
 10
143.027
 11
143.061
 20
533.093
 21
533.061
  0
LINE
  8
0
 10
143.061
 11
143.093
 20
533.061
 21
533.027
  0
LINE
  8
0
 10
143.093
 11
143.125
 20
533.027
 21
532.992
  0
LINE
  8
0
 10
143.125
 11
143.156
 20
532.992
 21
532.956
  0
LINE
  8
0
 10
143.156
 11
143.185
 20
532.956
 21
532.919
  0
LINE
  8
0
 10
143.185
 11
143.214
 20
532.919
 21
532.882
  0
LINE
  8
0
 10
143.214
 11
143.241
 20
532.882
 21
532.843
  0
LINE
  8
0
 10
143.241
 11
143.266
 20
532.843
 21
532.804
  0
LINE
  8
0
 10
143.266
 11
143.291
 20
532.804
 21
532.764
  0
LINE
  8
0
 10
143.291
 11
143.314
 20
532.764
 21
532.723
  0
LINE
  8
0
 10
143.314
 11
143.337
 20
532.723
 21
532.681
  0
LINE
  8
0
 10
143.337
 11
143.357
 20
532.681
 21
532.639
  0
LINE
  8
0
 10
143.357
 11
143.377
 20
532.639
 21
532.596
  0
LINE
  8
0
 10
143.377
 11
143.395
 20
532.596
 21
532.552
  0
LINE
  8
0
 10
143.395
 11
143.427
 20
532.552
 21
532.464
  0
LINE
  8
0
 10
143.427
 11
143.44
 20
532.464
 21
532.418
  0
LINE
  8
0
 10
143.44
 11
143.453
 20
532.418
 21
532.373
  0
LINE
  8
0
 10
143.453
 11
143.464
 20
532.373
 21
532.327
  0
LINE
  8
0
 10
143.464
 11
143.473
 20
532.327
 21
532.281
  0
LINE
  8
0
 10
143.473
 11
143.482
 20
532.281
 21
532.235
  0
LINE
  8
0
 10
143.482
 11
143.488
 20
532.235
 21
532.188
  0
LINE
  8
0
 10
143.488
 11
143.493
 20
532.188
 21
532.141
  0
LINE
  8
0
 10
143.493
 11
143.497
 20
532.141
 21
532.094
  0
LINE
  8
0
 10
143.497
 11
143.499
 20
532.094
 21
532.047
  0
LINE
  8
0
 10
143.499
 11
143.5
 20
532.047
 21
532
  0
LINE
  8
0
 10
143.5
 11
143.499
 20
532
 21
531.953
  0
LINE
  8
0
 10
143.499
 11
143.497
 20
531.953
 21
531.906
  0
LINE
  8
0
 10
143.497
 11
143.493
 20
531.906
 21
531.859
  0
LINE
  8
0
 10
143.493
 11
143.488
 20
531.859
 21
531.812
  0
LINE
  8
0
 10
143.488
 11
143.482
 20
531.812
 21
531.765
  0
LINE
  8
0
 10
143.482
 11
143.473
 20
531.765
 21
531.719
  0
LINE
  8
0
 10
143.473
 11
143.464
 20
531.719
 21
531.673
  0
LINE
  8
0
 10
143.464
 11
143.453
 20
531.673
 21
531.627
  0
LINE
  8
0
 10
143.453
 11
143.44
 20
531.627
 21
531.582
  0
LINE
  8
0
 10
143.44
 11
143.427
 20
531.582
 21
531.536
  0
LINE
  8
0
 10
143.427
 11
143.411
 20
531.536
 21
531.492
  0
LINE
  8
0
 10
143.411
 11
143.395
 20
531.492
 21
531.448
  0
LINE
  8
0
 10
143.395
 11
143.377
 20
531.448
 21
531.404
  0
LINE
  8
0
 10
143.377
 11
143.357
 20
531.404
 21
531.361
  0
LINE
  8
0
 10
143.357
 11
143.337
 20
531.361
 21
531.319
  0
LINE
  8
0
 10
143.337
 11
143.314
 20
531.319
 21
531.277
  0
LINE
  8
0
 10
143.314
 11
143.291
 20
531.277
 21
531.236
  0
LINE
  8
0
 10
143.291
 11
143.266
 20
531.236
 21
531.196
  0
LINE
  8
0
 10
143.266
 11
143.241
 20
531.196
 21
531.157
  0
LINE
  8
0
 10
143.241
 11
143.214
 20
531.157
 21
531.118
  0
LINE
  8
0
 10
143.214
 11
143.156
 20
531.118
 21
531.044
  0
LINE
  8
0
 10
143.156
 11
143.125
 20
531.044
 21
531.008
  0
LINE
  8
0
 10
143.125
 11
143.093
 20
531.008
 21
530.973
  0
LINE
  8
0
 10
143.093
 11
143.061
 20
530.973
 21
530.939
  0
LINE
  8
0
 10
143.061
 11
143.027
 20
530.939
 21
530.907
  0
LINE
  8
0
 10
143.027
 11
142.992
 20
530.907
 21
530.875
  0
LINE
  8
0
 10
142.992
 11
142.956
 20
530.875
 21
530.844
  0
LINE
  8
0
 10
142.956
 11
142.919
 20
530.844
 21
530.815
  0
LINE
  8
0
 10
142.919
 11
142.882
 20
530.815
 21
530.786
  0
LINE
  8
0
 10
142.882
 11
142.843
 20
530.786
 21
530.759
  0
LINE
  8
0
 10
142.843
 11
142.804
 20
530.759
 21
530.734
  0
LINE
  8
0
 10
142.804
 11
142.764
 20
530.734
 21
530.709
  0
LINE
  8
0
 10
142.764
 11
142.723
 20
530.709
 21
530.686
  0
LINE
  8
0
 10
142.723
 11
142.681
 20
530.686
 21
530.663
  0
LINE
  8
0
 10
142.681
 11
142.639
 20
530.663
 21
530.643
  0
LINE
  8
0
 10
142.639
 11
142.596
 20
530.643
 21
530.623
  0
LINE
  8
0
 10
142.596
 11
142.552
 20
530.623
 21
530.605
  0
LINE
  8
0
 10
142.552
 11
142.508
 20
530.605
 21
530.589
  0
LINE
  8
0
 10
142.508
 11
142.464
 20
530.589
 21
530.573
  0
LINE
  8
0
 10
142.464
 11
142.418
 20
530.573
 21
530.56
  0
LINE
  8
0
 10
142.418
 11
142.373
 20
530.56
 21
530.547
  0
LINE
  8
0
 10
142.373
 11
142.327
 20
530.547
 21
530.536
  0
LINE
  8
0
 10
142.327
 11
142.235
 20
530.536
 21
530.518
  0
LINE
  8
0
 10
142.235
 11
142.188
 20
530.518
 21
530.512
  0
LINE
  8
0
 10
142.188
 11
142.141
 20
530.512
 21
530.507
  0
LINE
  8
0
 10
142.141
 11
142.094
 20
530.507
 21
530.503
  0
LINE
  8
0
 10
142.094
 11
142.047
 20
530.503
 21
530.501
  0
LINE
  8
0
 10
142.047
 11
142
 20
530.501
 21
530.5
  0
LINE
  8
0
 10
142
 11
141.953
 20
530.5
 21
530.501
  0
LINE
  8
0
 10
141.953
 11
141.906
 20
530.501
 21
530.503
  0
LINE
  8
0
 10
141.906
 11
141.859
 20
530.503
 21
530.507
  0
LINE
  8
0
 10
141.859
 11
141.812
 20
530.507
 21
530.512
  0
LINE
  8
0
 10
141.812
 11
141.765
 20
530.512
 21
530.518
  0
LINE
  8
0
 10
141.765
 11
141.719
 20
530.518
 21
530.527
  0
LINE
  8
0
 10
141.719
 11
141.673
 20
530.527
 21
530.536
  0
LINE
  8
0
 10
141.673
 11
141.627
 20
530.536
 21
530.547
  0
LINE
  8
0
 10
141.627
 11
141.582
 20
530.547
 21
530.56
  0
LINE
  8
0
 10
141.582
 11
141.536
 20
530.56
 21
530.573
  0
LINE
  8
0
 10
141.536
 11
141.492
 20
530.573
 21
530.589
  0
LINE
  8
0
 10
141.492
 11
141.448
 20
530.589
 21
530.605
  0
LINE
  8
0
 10
141.448
 11
141.404
 20
530.605
 21
530.623
  0
LINE
  8
0
 10
141.404
 11
141.361
 20
530.623
 21
530.643
  0
LINE
  8
0
 10
141.361
 11
141.319
 20
530.643
 21
530.663
  0
LINE
  8
0
 10
141.319
 11
141.277
 20
530.663
 21
530.686
  0
LINE
  8
0
 10
141.277
 11
141.236
 20
530.686
 21
530.709
  0
LINE
  8
0
 10
141.236
 11
141.196
 20
530.709
 21
530.734
  0
LINE
  8
0
 10
141.196
 11
141.157
 20
530.734
 21
530.759
  0
LINE
  8
0
 10
141.157
 11
141.118
 20
530.759
 21
530.786
  0
LINE
  8
0
 10
141.118
 11
141.081
 20
530.786
 21
530.815
  0
LINE
  8
0
 10
141.081
 11
141.044
 20
530.815
 21
530.844
  0
LINE
  8
0
 10
141.044
 11
141.008
 20
530.844
 21
530.875
  0
LINE
  8
0
 10
141.008
 11
140.973
 20
530.875
 21
530.907
  0
LINE
  8
0
 10
140.973
 11
140.939
 20
530.907
 21
530.939
  0
LINE
  8
0
 10
140.939
 11
140.907
 20
530.939
 21
530.973
  0
LINE
  8
0
 10
140.907
 11
140.875
 20
530.973
 21
531.008
  0
LINE
  8
0
 10
140.875
 11
140.844
 20
531.008
 21
531.044
  0
LINE
  8
0
 10
140.844
 11
140.786
 20
531.044
 21
531.118
  0
LINE
  8
0
 10
140.786
 11
140.759
 20
531.118
 21
531.157
  0
LINE
  8
0
 10
140.759
 11
140.734
 20
531.157
 21
531.196
  0
LINE
  8
0
 10
140.734
 11
140.709
 20
531.196
 21
531.236
  0
LINE
  8
0
 10
140.709
 11
140.686
 20
531.236
 21
531.277
  0
LINE
  8
0
 10
140.686
 11
140.663
 20
531.277
 21
531.319
  0
LINE
  8
0
 10
140.663
 11
140.643
 20
531.319
 21
531.361
  0
LINE
  8
0
 10
140.643
 11
140.623
 20
531.361
 21
531.404
  0
LINE
  8
0
 10
140.623
 11
140.605
 20
531.404
 21
531.448
  0
LINE
  8
0
 10
140.605
 11
140.589
 20
531.448
 21
531.492
  0
LINE
  8
0
 10
140.589
 11
140.573
 20
531.492
 21
531.536
  0
LINE
  8
0
 10
140.573
 11
140.56
 20
531.536
 21
531.582
  0
LINE
  8
0
 10
140.56
 11
140.547
 20
531.582
 21
531.627
  0
LINE
  8
0
 10
140.547
 11
140.536
 20
531.627
 21
531.673
  0
LINE
  8
0
 10
140.536
 11
140.527
 20
531.673
 21
531.719
  0
LINE
  8
0
 10
140.527
 11
140.518
 20
531.719
 21
531.765
  0
LINE
  8
0
 10
140.518
 11
140.512
 20
531.765
 21
531.812
  0
LINE
  8
0
 10
140.512
 11
140.507
 20
531.812
 21
531.859
  0
LINE
  8
0
 10
140.507
 11
140.503
 20
531.859
 21
531.906
  0
LINE
  8
0
 10
140.503
 11
140.501
 20
531.906
 21
531.953
  0
LINE
  8
0
 10
140.501
 11
140.5
 20
531.953
 21
532
  0
LINE
  8
0
 10
148
 11
148.001
 20
30
 21
30.047
  0
LINE
  8
0
 10
148.001
 11
148.003
 20
30.047
 21
30.094
  0
LINE
  8
0
 10
148.003
 11
148.007
 20
30.094
 21
30.141
  0
LINE
  8
0
 10
148.007
 11
148.012
 20
30.141
 21
30.188
  0
LINE
  8
0
 10
148.012
 11
148.018
 20
30.188
 21
30.235
  0
LINE
  8
0
 10
148.018
 11
148.027
 20
30.235
 21
30.281
  0
LINE
  8
0
 10
148.027
 11
148.036
 20
30.281
 21
30.327
  0
LINE
  8
0
 10
148.036
 11
148.047
 20
30.327
 21
30.373
  0
LINE
  8
0
 10
148.047
 11
148.06
 20
30.373
 21
30.418
  0
LINE
  8
0
 10
148.06
 11
148.073
 20
30.418
 21
30.464
  0
LINE
  8
0
 10
148.073
 11
148.089
 20
30.464
 21
30.508
  0
LINE
  8
0
 10
148.089
 11
148.105
 20
30.508
 21
30.552
  0
LINE
  8
0
 10
148.105
 11
148.123
 20
30.552
 21
30.596
  0
LINE
  8
0
 10
148.123
 11
148.143
 20
30.596
 21
30.639
  0
LINE
  8
0
 10
148.143
 11
148.163
 20
30.639
 21
30.681
  0
LINE
  8
0
 10
148.163
 11
148.186
 20
30.681
 21
30.723
  0
LINE
  8
0
 10
148.186
 11
148.209
 20
30.723
 21
30.764
  0
LINE
  8
0
 10
148.209
 11
148.234
 20
30.764
 21
30.804
  0
LINE
  8
0
 10
148.234
 11
148.259
 20
30.804
 21
30.843
  0
LINE
  8
0
 10
148.259
 11
148.286
 20
30.843
 21
30.882
  0
LINE
  8
0
 10
148.286
 11
148.344
 20
30.882
 21
30.956
  0
LINE
  8
0
 10
148.344
 11
148.375
 20
30.956
 21
30.992
  0
LINE
  8
0
 10
148.375
 11
148.407
 20
30.992
 21
31.027
  0
LINE
  8
0
 10
148.407
 11
148.439
 20
31.027
 21
31.061
  0
LINE
  8
0
 10
148.439
 11
148.473
 20
31.061
 21
31.093
  0
LINE
  8
0
 10
148.473
 11
148.508
 20
31.093
 21
31.125
  0
LINE
  8
0
 10
148.508
 11
148.544
 20
31.125
 21
31.156
  0
LINE
  8
0
 10
148.544
 11
148.581
 20
31.156
 21
31.185
  0
LINE
  8
0
 10
148.581
 11
148.618
 20
31.185
 21
31.214
  0
LINE
  8
0
 10
148.618
 11
148.657
 20
31.214
 21
31.241
  0
LINE
  8
0
 10
148.657
 11
148.696
 20
31.241
 21
31.266
  0
LINE
  8
0
 10
148.696
 11
148.736
 20
31.266
 21
31.291
  0
LINE
  8
0
 10
148.736
 11
148.777
 20
31.291
 21
31.314
  0
LINE
  8
0
 10
148.777
 11
148.819
 20
31.314
 21
31.337
  0
LINE
  8
0
 10
148.819
 11
148.861
 20
31.337
 21
31.357
  0
LINE
  8
0
 10
148.861
 11
148.904
 20
31.357
 21
31.377
  0
LINE
  8
0
 10
148.904
 11
148.948
 20
31.377
 21
31.395
  0
LINE
  8
0
 10
148.948
 11
148.992
 20
31.395
 21
31.411
  0
LINE
  8
0
 10
148.992
 11
149.036
 20
31.411
 21
31.427
  0
LINE
  8
0
 10
149.036
 11
149.082
 20
31.427
 21
31.44
  0
LINE
  8
0
 10
149.082
 11
149.127
 20
31.44
 21
31.453
  0
LINE
  8
0
 10
149.127
 11
149.173
 20
31.453
 21
31.464
  0
LINE
  8
0
 10
149.173
 11
149.219
 20
31.464
 21
31.473
  0
LINE
  8
0
 10
149.219
 11
149.265
 20
31.473
 21
31.482
  0
LINE
  8
0
 10
149.265
 11
149.312
 20
31.482
 21
31.488
  0
LINE
  8
0
 10
149.312
 11
149.359
 20
31.488
 21
31.493
  0
LINE
  8
0
 10
149.359
 11
149.406
 20
31.493
 21
31.497
  0
LINE
  8
0
 10
149.406
 11
149.453
 20
31.497
 21
31.499
  0
LINE
  8
0
 10
149.453
 11
149.5
 20
31.499
 21
31.5
  0
LINE
  8
0
 10
149.5
 11
149.547
 20
31.5
 21
31.499
  0
LINE
  8
0
 10
149.547
 11
149.594
 20
31.499
 21
31.497
  0
LINE
  8
0
 10
149.594
 11
149.641
 20
31.497
 21
31.493
  0
LINE
  8
0
 10
149.641
 11
149.688
 20
31.493
 21
31.488
  0
LINE
  8
0
 10
149.688
 11
149.735
 20
31.488
 21
31.482
  0
LINE
  8
0
 10
149.735
 11
149.781
 20
31.482
 21
31.473
  0
LINE
  8
0
 10
149.781
 11
149.827
 20
31.473
 21
31.464
  0
LINE
  8
0
 10
149.827
 11
149.873
 20
31.464
 21
31.453
  0
LINE
  8
0
 10
149.873
 11
149.918
 20
31.453
 21
31.44
  0
LINE
  8
0
 10
149.918
 11
149.964
 20
31.44
 21
31.427
  0
LINE
  8
0
 10
149.964
 11
150.008
 20
31.427
 21
31.411
  0
LINE
  8
0
 10
150.008
 11
150.052
 20
31.411
 21
31.395
  0
LINE
  8
0
 10
150.052
 11
150.096
 20
31.395
 21
31.377
  0
LINE
  8
0
 10
150.096
 11
150.139
 20
31.377
 21
31.357
  0
LINE
  8
0
 10
150.139
 11
150.181
 20
31.357
 21
31.337
  0
LINE
  8
0
 10
150.181
 11
150.223
 20
31.337
 21
31.314
  0
LINE
  8
0
 10
150.223
 11
150.264
 20
31.314
 21
31.291
  0
LINE
  8
0
 10
150.264
 11
150.304
 20
31.291
 21
31.266
  0
LINE
  8
0
 10
150.304
 11
150.343
 20
31.266
 21
31.241
  0
LINE
  8
0
 10
150.343
 11
150.382
 20
31.241
 21
31.214
  0
LINE
  8
0
 10
150.382
 11
150.456
 20
31.214
 21
31.156
  0
LINE
  8
0
 10
150.456
 11
150.492
 20
31.156
 21
31.125
  0
LINE
  8
0
 10
150.492
 11
150.527
 20
31.125
 21
31.093
  0
LINE
  8
0
 10
150.527
 11
150.561
 20
31.093
 21
31.061
  0
LINE
  8
0
 10
150.561
 11
150.593
 20
31.061
 21
31.027
  0
LINE
  8
0
 10
150.593
 11
150.625
 20
31.027
 21
30.992
  0
LINE
  8
0
 10
150.625
 11
150.656
 20
30.992
 21
30.956
  0
LINE
  8
0
 10
150.656
 11
150.714
 20
30.956
 21
30.882
  0
LINE
  8
0
 10
150.714
 11
150.741
 20
30.882
 21
30.843
  0
LINE
  8
0
 10
150.741
 11
150.766
 20
30.843
 21
30.804
  0
LINE
  8
0
 10
150.766
 11
150.791
 20
30.804
 21
30.764
  0
LINE
  8
0
 10
150.791
 11
150.814
 20
30.764
 21
30.723
  0
LINE
  8
0
 10
150.814
 11
150.837
 20
30.723
 21
30.681
  0
LINE
  8
0
 10
150.837
 11
150.857
 20
30.681
 21
30.639
  0
LINE
  8
0
 10
150.857
 11
150.877
 20
30.639
 21
30.596
  0
LINE
  8
0
 10
150.877
 11
150.895
 20
30.596
 21
30.552
  0
LINE
  8
0
 10
150.895
 11
150.911
 20
30.552
 21
30.508
  0
LINE
  8
0
 10
150.911
 11
150.927
 20
30.508
 21
30.464
  0
LINE
  8
0
 10
150.927
 11
150.94
 20
30.464
 21
30.418
  0
LINE
  8
0
 10
150.94
 11
150.953
 20
30.418
 21
30.373
  0
LINE
  8
0
 10
150.953
 11
150.964
 20
30.373
 21
30.327
  0
LINE
  8
0
 10
150.964
 11
150.973
 20
30.327
 21
30.281
  0
LINE
  8
0
 10
150.973
 11
150.982
 20
30.281
 21
30.235
  0
LINE
  8
0
 10
150.982
 11
150.988
 20
30.235
 21
30.188
  0
LINE
  8
0
 10
150.988
 11
150.993
 20
30.188
 21
30.141
  0
LINE
  8
0
 10
150.993
 11
150.997
 20
30.141
 21
30.094
  0
LINE
  8
0
 10
150.997
 11
150.999
 20
30.094
 21
30.047
  0
LINE
  8
0
 10
150.999
 11
151
 20
30.047
 21
30
  0
LINE
  8
0
 10
151
 11
150.999
 20
30
 21
29.953
  0
LINE
  8
0
 10
150.999
 11
150.997
 20
29.953
 21
29.906
  0
LINE
  8
0
 10
150.997
 11
150.993
 20
29.906
 21
29.859
  0
LINE
  8
0
 10
150.993
 11
150.988
 20
29.859
 21
29.812
  0
LINE
  8
0
 10
150.988
 11
150.982
 20
29.812
 21
29.765
  0
LINE
  8
0
 10
150.982
 11
150.973
 20
29.765
 21
29.719
  0
LINE
  8
0
 10
150.973
 11
150.964
 20
29.719
 21
29.673
  0
LINE
  8
0
 10
150.964
 11
150.953
 20
29.673
 21
29.627
  0
LINE
  8
0
 10
150.953
 11
150.94
 20
29.627
 21
29.582
  0
LINE
  8
0
 10
150.94
 11
150.927
 20
29.582
 21
29.536
  0
LINE
  8
0
 10
150.927
 11
150.895
 20
29.536
 21
29.448
  0
LINE
  8
0
 10
150.895
 11
150.877
 20
29.448
 21
29.404
  0
LINE
  8
0
 10
150.877
 11
150.857
 20
29.404
 21
29.361
  0
LINE
  8
0
 10
150.857
 11
150.837
 20
29.361
 21
29.319
  0
LINE
  8
0
 10
150.837
 11
150.814
 20
29.319
 21
29.277
  0
LINE
  8
0
 10
150.814
 11
150.791
 20
29.277
 21
29.236
  0
LINE
  8
0
 10
150.791
 11
150.766
 20
29.236
 21
29.196
  0
LINE
  8
0
 10
150.766
 11
150.741
 20
29.196
 21
29.157
  0
LINE
  8
0
 10
150.741
 11
150.714
 20
29.157
 21
29.118
  0
LINE
  8
0
 10
150.714
 11
150.685
 20
29.118
 21
29.081
  0
LINE
  8
0
 10
150.685
 11
150.656
 20
29.081
 21
29.044
  0
LINE
  8
0
 10
150.656
 11
150.625
 20
29.044
 21
29.008
  0
LINE
  8
0
 10
150.625
 11
150.593
 20
29.008
 21
28.973
  0
LINE
  8
0
 10
150.593
 11
150.561
 20
28.973
 21
28.939
  0
LINE
  8
0
 10
150.561
 11
150.527
 20
28.939
 21
28.907
  0
LINE
  8
0
 10
150.527
 11
150.492
 20
28.907
 21
28.875
  0
LINE
  8
0
 10
150.492
 11
150.456
 20
28.875
 21
28.844
  0
LINE
  8
0
 10
150.456
 11
150.382
 20
28.844
 21
28.786
  0
LINE
  8
0
 10
150.382
 11
150.343
 20
28.786
 21
28.759
  0
LINE
  8
0
 10
150.343
 11
150.304
 20
28.759
 21
28.734
  0
LINE
  8
0
 10
150.304
 11
150.264
 20
28.734
 21
28.709
  0
LINE
  8
0
 10
150.264
 11
150.223
 20
28.709
 21
28.686
  0
LINE
  8
0
 10
150.223
 11
150.181
 20
28.686
 21
28.663
  0
LINE
  8
0
 10
150.181
 11
150.139
 20
28.663
 21
28.643
  0
LINE
  8
0
 10
150.139
 11
150.096
 20
28.643
 21
28.623
  0
LINE
  8
0
 10
150.096
 11
150.052
 20
28.623
 21
28.605
  0
LINE
  8
0
 10
150.052
 11
150.008
 20
28.605
 21
28.589
  0
LINE
  8
0
 10
150.008
 11
149.964
 20
28.589
 21
28.573
  0
LINE
  8
0
 10
149.964
 11
149.918
 20
28.573
 21
28.56
  0
LINE
  8
0
 10
149.918
 11
149.873
 20
28.56
 21
28.547
  0
LINE
  8
0
 10
149.873
 11
149.827
 20
28.547
 21
28.536
  0
LINE
  8
0
 10
149.827
 11
149.735
 20
28.536
 21
28.518
  0
LINE
  8
0
 10
149.735
 11
149.688
 20
28.518
 21
28.512
  0
LINE
  8
0
 10
149.688
 11
149.641
 20
28.512
 21
28.507
  0
LINE
  8
0
 10
149.641
 11
149.594
 20
28.507
 21
28.503
  0
LINE
  8
0
 10
149.594
 11
149.547
 20
28.503
 21
28.501
  0
LINE
  8
0
 10
149.547
 11
149.5
 20
28.501
 21
28.5
  0
LINE
  8
0
 10
149.5
 11
149.453
 20
28.5
 21
28.501
  0
LINE
  8
0
 10
149.453
 11
149.406
 20
28.501
 21
28.503
  0
LINE
  8
0
 10
149.406
 11
149.359
 20
28.503
 21
28.507
  0
LINE
  8
0
 10
149.359
 11
149.312
 20
28.507
 21
28.512
  0
LINE
  8
0
 10
149.312
 11
149.265
 20
28.512
 21
28.518
  0
LINE
  8
0
 10
149.265
 11
149.219
 20
28.518
 21
28.527
  0
LINE
  8
0
 10
149.219
 11
149.173
 20
28.527
 21
28.536
  0
LINE
  8
0
 10
149.173
 11
149.127
 20
28.536
 21
28.547
  0
LINE
  8
0
 10
149.127
 11
149.082
 20
28.547
 21
28.56
  0
LINE
  8
0
 10
149.082
 11
149.036
 20
28.56
 21
28.573
  0
LINE
  8
0
 10
149.036
 11
148.992
 20
28.573
 21
28.589
  0
LINE
  8
0
 10
148.992
 11
148.948
 20
28.589
 21
28.605
  0
LINE
  8
0
 10
148.948
 11
148.904
 20
28.605
 21
28.623
  0
LINE
  8
0
 10
148.904
 11
148.861
 20
28.623
 21
28.643
  0
LINE
  8
0
 10
148.861
 11
148.819
 20
28.643
 21
28.663
  0
LINE
  8
0
 10
148.819
 11
148.777
 20
28.663
 21
28.686
  0
LINE
  8
0
 10
148.777
 11
148.736
 20
28.686
 21
28.709
  0
LINE
  8
0
 10
148.736
 11
148.696
 20
28.709
 21
28.734
  0
LINE
  8
0
 10
148.696
 11
148.657
 20
28.734
 21
28.759
  0
LINE
  8
0
 10
148.657
 11
148.618
 20
28.759
 21
28.786
  0
LINE
  8
0
 10
148.618
 11
148.581
 20
28.786
 21
28.815
  0
LINE
  8
0
 10
148.581
 11
148.544
 20
28.815
 21
28.844
  0
LINE
  8
0
 10
148.544
 11
148.508
 20
28.844
 21
28.875
  0
LINE
  8
0
 10
148.508
 11
148.473
 20
28.875
 21
28.907
  0
LINE
  8
0
 10
148.473
 11
148.439
 20
28.907
 21
28.939
  0
LINE
  8
0
 10
148.439
 11
148.407
 20
28.939
 21
28.973
  0
LINE
  8
0
 10
148.407
 11
148.375
 20
28.973
 21
29.008
  0
LINE
  8
0
 10
148.375
 11
148.344
 20
29.008
 21
29.044
  0
LINE
  8
0
 10
148.344
 11
148.315
 20
29.044
 21
29.081
  0
LINE
  8
0
 10
148.315
 11
148.286
 20
29.081
 21
29.118
  0
LINE
  8
0
 10
148.286
 11
148.259
 20
29.118
 21
29.157
  0
LINE
  8
0
 10
148.259
 11
148.234
 20
29.157
 21
29.196
  0
LINE
  8
0
 10
148.234
 11
148.209
 20
29.196
 21
29.236
  0
LINE
  8
0
 10
148.209
 11
148.186
 20
29.236
 21
29.277
  0
LINE
  8
0
 10
148.186
 11
148.163
 20
29.277
 21
29.319
  0
LINE
  8
0
 10
148.163
 11
148.143
 20
29.319
 21
29.361
  0
LINE
  8
0
 10
148.143
 11
148.123
 20
29.361
 21
29.404
  0
LINE
  8
0
 10
148.123
 11
148.105
 20
29.404
 21
29.448
  0
LINE
  8
0
 10
148.105
 11
148.073
 20
29.448
 21
29.536
  0
LINE
  8
0
 10
148.073
 11
148.06
 20
29.536
 21
29.582
  0
LINE
  8
0
 10
148.06
 11
148.047
 20
29.582
 21
29.627
  0
LINE
  8
0
 10
148.047
 11
148.036
 20
29.627
 21
29.673
  0
LINE
  8
0
 10
148.036
 11
148.027
 20
29.673
 21
29.719
  0
LINE
  8
0
 10
148.027
 11
148.018
 20
29.719
 21
29.765
  0
LINE
  8
0
 10
148.018
 11
148.012
 20
29.765
 21
29.812
  0
LINE
  8
0
 10
148.012
 11
148.007
 20
29.812
 21
29.859
  0
LINE
  8
0
 10
148.007
 11
148.003
 20
29.859
 21
29.906
  0
LINE
  8
0
 10
148.003
 11
148.001
 20
29.906
 21
29.953
  0
LINE
  8
0
 10
148.001
 11
148
 20
29.953
 21
30
  0
LINE
  8
0
 10
148
 11
148.001
 20
70
 21
70.047
  0
LINE
  8
0
 10
148.001
 11
148.003
 20
70.047
 21
70.094
  0
LINE
  8
0
 10
148.003
 11
148.007
 20
70.094
 21
70.141
  0
LINE
  8
0
 10
148.007
 11
148.012
 20
70.141
 21
70.188
  0
LINE
  8
0
 10
148.012
 11
148.018
 20
70.188
 21
70.235
  0
LINE
  8
0
 10
148.018
 11
148.027
 20
70.235
 21
70.281
  0
LINE
  8
0
 10
148.027
 11
148.036
 20
70.281
 21
70.327
  0
LINE
  8
0
 10
148.036
 11
148.047
 20
70.327
 21
70.373
  0
LINE
  8
0
 10
148.047
 11
148.06
 20
70.373
 21
70.418
  0
LINE
  8
0
 10
148.06
 11
148.073
 20
70.418
 21
70.464
  0
LINE
  8
0
 10
148.073
 11
148.089
 20
70.464
 21
70.508
  0
LINE
  8
0
 10
148.089
 11
148.105
 20
70.508
 21
70.552
  0
LINE
  8
0
 10
148.105
 11
148.123
 20
70.552
 21
70.596
  0
LINE
  8
0
 10
148.123
 11
148.143
 20
70.596
 21
70.639
  0
LINE
  8
0
 10
148.143
 11
148.163
 20
70.639
 21
70.681
  0
LINE
  8
0
 10
148.163
 11
148.186
 20
70.681
 21
70.723
  0
LINE
  8
0
 10
148.186
 11
148.209
 20
70.723
 21
70.764
  0
LINE
  8
0
 10
148.209
 11
148.234
 20
70.764
 21
70.804
  0
LINE
  8
0
 10
148.234
 11
148.259
 20
70.804
 21
70.843
  0
LINE
  8
0
 10
148.259
 11
148.286
 20
70.843
 21
70.882
  0
LINE
  8
0
 10
148.286
 11
148.315
 20
70.882
 21
70.919
  0
LINE
  8
0
 10
148.315
 11
148.344
 20
70.919
 21
70.956
  0
LINE
  8
0
 10
148.344
 11
148.375
 20
70.956
 21
70.992
  0
LINE
  8
0
 10
148.375
 11
148.407
 20
70.992
 21
71.027
  0
LINE
  8
0
 10
148.407
 11
148.439
 20
71.027
 21
71.061
  0
LINE
  8
0
 10
148.439
 11
148.473
 20
71.061
 21
71.093
  0
LINE
  8
0
 10
148.473
 11
148.508
 20
71.093
 21
71.125
  0
LINE
  8
0
 10
148.508
 11
148.544
 20
71.125
 21
71.156
  0
LINE
  8
0
 10
148.544
 11
148.581
 20
71.156
 21
71.185
  0
LINE
  8
0
 10
148.581
 11
148.618
 20
71.185
 21
71.214
  0
LINE
  8
0
 10
148.618
 11
148.657
 20
71.214
 21
71.241
  0
LINE
  8
0
 10
148.657
 11
148.696
 20
71.241
 21
71.266
  0
LINE
  8
0
 10
148.696
 11
148.736
 20
71.266
 21
71.291
  0
LINE
  8
0
 10
148.736
 11
148.777
 20
71.291
 21
71.314
  0
LINE
  8
0
 10
148.777
 11
148.819
 20
71.314
 21
71.337
  0
LINE
  8
0
 10
148.819
 11
148.861
 20
71.337
 21
71.357
  0
LINE
  8
0
 10
148.861
 11
148.904
 20
71.357
 21
71.377
  0
LINE
  8
0
 10
148.904
 11
148.948
 20
71.377
 21
71.395
  0
LINE
  8
0
 10
148.948
 11
148.992
 20
71.395
 21
71.411
  0
LINE
  8
0
 10
148.992
 11
149.036
 20
71.411
 21
71.427
  0
LINE
  8
0
 10
149.036
 11
149.082
 20
71.427
 21
71.44
  0
LINE
  8
0
 10
149.082
 11
149.127
 20
71.44
 21
71.453
  0
LINE
  8
0
 10
149.127
 11
149.173
 20
71.453
 21
71.464
  0
LINE
  8
0
 10
149.173
 11
149.219
 20
71.464
 21
71.473
  0
LINE
  8
0
 10
149.219
 11
149.265
 20
71.473
 21
71.482
  0
LINE
  8
0
 10
149.265
 11
149.312
 20
71.482
 21
71.488
  0
LINE
  8
0
 10
149.312
 11
149.359
 20
71.488
 21
71.493
  0
LINE
  8
0
 10
149.359
 11
149.406
 20
71.493
 21
71.497
  0
LINE
  8
0
 10
149.406
 11
149.453
 20
71.497
 21
71.499
  0
LINE
  8
0
 10
149.453
 11
149.5
 20
71.499
 21
71.5
  0
LINE
  8
0
 10
149.5
 11
149.547
 20
71.5
 21
71.499
  0
LINE
  8
0
 10
149.547
 11
149.594
 20
71.499
 21
71.497
  0
LINE
  8
0
 10
149.594
 11
149.641
 20
71.497
 21
71.493
  0
LINE
  8
0
 10
149.641
 11
149.688
 20
71.493
 21
71.488
  0
LINE
  8
0
 10
149.688
 11
149.735
 20
71.488
 21
71.482
  0
LINE
  8
0
 10
149.735
 11
149.827
 20
71.482
 21
71.464
  0
LINE
  8
0
 10
149.827
 11
149.873
 20
71.464
 21
71.453
  0
LINE
  8
0
 10
149.873
 11
149.918
 20
71.453
 21
71.44
  0
LINE
  8
0
 10
149.918
 11
149.964
 20
71.44
 21
71.427
  0
LINE
  8
0
 10
149.964
 11
150.008
 20
71.427
 21
71.411
  0
LINE
  8
0
 10
150.008
 11
150.052
 20
71.411
 21
71.395
  0
LINE
  8
0
 10
150.052
 11
150.096
 20
71.395
 21
71.377
  0
LINE
  8
0
 10
150.096
 11
150.139
 20
71.377
 21
71.357
  0
LINE
  8
0
 10
150.139
 11
150.181
 20
71.357
 21
71.337
  0
LINE
  8
0
 10
150.181
 11
150.223
 20
71.337
 21
71.314
  0
LINE
  8
0
 10
150.223
 11
150.264
 20
71.314
 21
71.291
  0
LINE
  8
0
 10
150.264
 11
150.304
 20
71.291
 21
71.266
  0
LINE
  8
0
 10
150.304
 11
150.343
 20
71.266
 21
71.241
  0
LINE
  8
0
 10
150.343
 11
150.382
 20
71.241
 21
71.214
  0
LINE
  8
0
 10
150.382
 11
150.456
 20
71.214
 21
71.156
  0
LINE
  8
0
 10
150.456
 11
150.492
 20
71.156
 21
71.125
  0
LINE
  8
0
 10
150.492
 11
150.527
 20
71.125
 21
71.093
  0
LINE
  8
0
 10
150.527
 11
150.561
 20
71.093
 21
71.061
  0
LINE
  8
0
 10
150.561
 11
150.593
 20
71.061
 21
71.027
  0
LINE
  8
0
 10
150.593
 11
150.625
 20
71.027
 21
70.992
  0
LINE
  8
0
 10
150.625
 11
150.656
 20
70.992
 21
70.956
  0
LINE
  8
0
 10
150.656
 11
150.685
 20
70.956
 21
70.919
  0
LINE
  8
0
 10
150.685
 11
150.714
 20
70.919
 21
70.882
  0
LINE
  8
0
 10
150.714
 11
150.741
 20
70.882
 21
70.843
  0
LINE
  8
0
 10
150.741
 11
150.766
 20
70.843
 21
70.804
  0
LINE
  8
0
 10
150.766
 11
150.791
 20
70.804
 21
70.764
  0
LINE
  8
0
 10
150.791
 11
150.814
 20
70.764
 21
70.723
  0
LINE
  8
0
 10
150.814
 11
150.837
 20
70.723
 21
70.681
  0
LINE
  8
0
 10
150.837
 11
150.857
 20
70.681
 21
70.639
  0
LINE
  8
0
 10
150.857
 11
150.877
 20
70.639
 21
70.596
  0
LINE
  8
0
 10
150.877
 11
150.895
 20
70.596
 21
70.552
  0
LINE
  8
0
 10
150.895
 11
150.911
 20
70.552
 21
70.508
  0
LINE
  8
0
 10
150.911
 11
150.927
 20
70.508
 21
70.464
  0
LINE
  8
0
 10
150.927
 11
150.94
 20
70.464
 21
70.418
  0
LINE
  8
0
 10
150.94
 11
150.953
 20
70.418
 21
70.373
  0
LINE
  8
0
 10
150.953
 11
150.964
 20
70.373
 21
70.327
  0
LINE
  8
0
 10
150.964
 11
150.973
 20
70.327
 21
70.281
  0
LINE
  8
0
 10
150.973
 11
150.982
 20
70.281
 21
70.235
  0
LINE
  8
0
 10
150.982
 11
150.988
 20
70.235
 21
70.188
  0
LINE
  8
0
 10
150.988
 11
150.993
 20
70.188
 21
70.141
  0
LINE
  8
0
 10
150.993
 11
150.997
 20
70.141
 21
70.094
  0
LINE
  8
0
 10
150.997
 11
150.999
 20
70.094
 21
70.047
  0
LINE
  8
0
 10
150.999
 11
151
 20
70.047
 21
70
  0
LINE
  8
0
 10
151
 11
150.999
 20
70
 21
69.953
  0
LINE
  8
0
 10
150.999
 11
150.997
 20
69.953
 21
69.906
  0
LINE
  8
0
 10
150.997
 11
150.993
 20
69.906
 21
69.859
  0
LINE
  8
0
 10
150.993
 11
150.988
 20
69.859
 21
69.812
  0
LINE
  8
0
 10
150.988
 11
150.982
 20
69.812
 21
69.765
  0
LINE
  8
0
 10
150.982
 11
150.973
 20
69.765
 21
69.719
  0
LINE
  8
0
 10
150.973
 11
150.964
 20
69.719
 21
69.673
  0
LINE
  8
0
 10
150.964
 11
150.953
 20
69.673
 21
69.627
  0
LINE
  8
0
 10
150.953
 11
150.94
 20
69.627
 21
69.582
  0
LINE
  8
0
 10
150.94
 11
150.927
 20
69.582
 21
69.536
  0
LINE
  8
0
 10
150.927
 11
150.895
 20
69.536
 21
69.448
  0
LINE
  8
0
 10
150.895
 11
150.877
 20
69.448
 21
69.404
  0
LINE
  8
0
 10
150.877
 11
150.857
 20
69.404
 21
69.361
  0
LINE
  8
0
 10
150.857
 11
150.837
 20
69.361
 21
69.319
  0
LINE
  8
0
 10
150.837
 11
150.814
 20
69.319
 21
69.277
  0
LINE
  8
0
 10
150.814
 11
150.791
 20
69.277
 21
69.236
  0
LINE
  8
0
 10
150.791
 11
150.766
 20
69.236
 21
69.196
  0
LINE
  8
0
 10
150.766
 11
150.741
 20
69.196
 21
69.157
  0
LINE
  8
0
 10
150.741
 11
150.714
 20
69.157
 21
69.118
  0
LINE
  8
0
 10
150.714
 11
150.685
 20
69.118
 21
69.081
  0
LINE
  8
0
 10
150.685
 11
150.656
 20
69.081
 21
69.044
  0
LINE
  8
0
 10
150.656
 11
150.625
 20
69.044
 21
69.008
  0
LINE
  8
0
 10
150.625
 11
150.593
 20
69.008
 21
68.973
  0
LINE
  8
0
 10
150.593
 11
150.561
 20
68.973
 21
68.939
  0
LINE
  8
0
 10
150.561
 11
150.527
 20
68.939
 21
68.907
  0
LINE
  8
0
 10
150.527
 11
150.492
 20
68.907
 21
68.875
  0
LINE
  8
0
 10
150.492
 11
150.456
 20
68.875
 21
68.844
  0
LINE
  8
0
 10
150.456
 11
150.419
 20
68.844
 21
68.815
  0
LINE
  8
0
 10
150.419
 11
150.382
 20
68.815
 21
68.786
  0
LINE
  8
0
 10
150.382
 11
150.343
 20
68.786
 21
68.759
  0
LINE
  8
0
 10
150.343
 11
150.304
 20
68.759
 21
68.734
  0
LINE
  8
0
 10
150.304
 11
150.264
 20
68.734
 21
68.709
  0
LINE
  8
0
 10
150.264
 11
150.223
 20
68.709
 21
68.686
  0
LINE
  8
0
 10
150.223
 11
150.181
 20
68.686
 21
68.663
  0
LINE
  8
0
 10
150.181
 11
150.139
 20
68.663
 21
68.643
  0
LINE
  8
0
 10
150.139
 11
150.096
 20
68.643
 21
68.623
  0
LINE
  8
0
 10
150.096
 11
150.052
 20
68.623
 21
68.605
  0
LINE
  8
0
 10
150.052
 11
150.008
 20
68.605
 21
68.589
  0
LINE
  8
0
 10
150.008
 11
149.964
 20
68.589
 21
68.573
  0
LINE
  8
0
 10
149.964
 11
149.918
 20
68.573
 21
68.56
  0
LINE
  8
0
 10
149.918
 11
149.873
 20
68.56
 21
68.547
  0
LINE
  8
0
 10
149.873
 11
149.827
 20
68.547
 21
68.536
  0
LINE
  8
0
 10
149.827
 11
149.735
 20
68.536
 21
68.518
  0
LINE
  8
0
 10
149.735
 11
149.688
 20
68.518
 21
68.512
  0
LINE
  8
0
 10
149.688
 11
149.641
 20
68.512
 21
68.507
  0
LINE
  8
0
 10
149.641
 11
149.594
 20
68.507
 21
68.503
  0
LINE
  8
0
 10
149.594
 11
149.547
 20
68.503
 21
68.501
  0
LINE
  8
0
 10
149.547
 11
149.5
 20
68.501
 21
68.5
  0
LINE
  8
0
 10
149.5
 11
149.453
 20
68.5
 21
68.501
  0
LINE
  8
0
 10
149.453
 11
149.406
 20
68.501
 21
68.503
  0
LINE
  8
0
 10
149.406
 11
149.359
 20
68.503
 21
68.507
  0
LINE
  8
0
 10
149.359
 11
149.312
 20
68.507
 21
68.512
  0
LINE
  8
0
 10
149.312
 11
149.265
 20
68.512
 21
68.518
  0
LINE
  8
0
 10
149.265
 11
149.219
 20
68.518
 21
68.527
  0
LINE
  8
0
 10
149.219
 11
149.173
 20
68.527
 21
68.536
  0
LINE
  8
0
 10
149.173
 11
149.127
 20
68.536
 21
68.547
  0
LINE
  8
0
 10
149.127
 11
149.082
 20
68.547
 21
68.56
  0
LINE
  8
0
 10
149.082
 11
149.036
 20
68.56
 21
68.573
  0
LINE
  8
0
 10
149.036
 11
148.992
 20
68.573
 21
68.589
  0
LINE
  8
0
 10
148.992
 11
148.948
 20
68.589
 21
68.605
  0
LINE
  8
0
 10
148.948
 11
148.904
 20
68.605
 21
68.623
  0
LINE
  8
0
 10
148.904
 11
148.861
 20
68.623
 21
68.643
  0
LINE
  8
0
 10
148.861
 11
148.819
 20
68.643
 21
68.663
  0
LINE
  8
0
 10
148.819
 11
148.777
 20
68.663
 21
68.686
  0
LINE
  8
0
 10
148.777
 11
148.736
 20
68.686
 21
68.709
  0
LINE
  8
0
 10
148.736
 11
148.696
 20
68.709
 21
68.734
  0
LINE
  8
0
 10
148.696
 11
148.657
 20
68.734
 21
68.759
  0
LINE
  8
0
 10
148.657
 11
148.618
 20
68.759
 21
68.786
  0
LINE
  8
0
 10
148.618
 11
148.581
 20
68.786
 21
68.815
  0
LINE
  8
0
 10
148.581
 11
148.544
 20
68.815
 21
68.844
  0
LINE
  8
0
 10
148.544
 11
148.508
 20
68.844
 21
68.875
  0
LINE
  8
0
 10
148.508
 11
148.473
 20
68.875
 21
68.907
  0
LINE
  8
0
 10
148.473
 11
148.439
 20
68.907
 21
68.939
  0
LINE
  8
0
 10
148.439
 11
148.407
 20
68.939
 21
68.973
  0
LINE
  8
0
 10
148.407
 11
148.375
 20
68.973
 21
69.008
  0
LINE
  8
0
 10
148.375
 11
148.344
 20
69.008
 21
69.044
  0
LINE
  8
0
 10
148.344
 11
148.315
 20
69.044
 21
69.081
  0
LINE
  8
0
 10
148.315
 11
148.286
 20
69.081
 21
69.118
  0
LINE
  8
0
 10
148.286
 11
148.259
 20
69.118
 21
69.157
  0
LINE
  8
0
 10
148.259
 11
148.234
 20
69.157
 21
69.196
  0
LINE
  8
0
 10
148.234
 11
148.209
 20
69.196
 21
69.236
  0
LINE
  8
0
 10
148.209
 11
148.186
 20
69.236
 21
69.277
  0
LINE
  8
0
 10
148.186
 11
148.163
 20
69.277
 21
69.319
  0
LINE
  8
0
 10
148.163
 11
148.143
 20
69.319
 21
69.361
  0
LINE
  8
0
 10
148.143
 11
148.123
 20
69.361
 21
69.404
  0
LINE
  8
0
 10
148.123
 11
148.105
 20
69.404
 21
69.448
  0
LINE
  8
0
 10
148.105
 11
148.073
 20
69.448
 21
69.536
  0
LINE
  8
0
 10
148.073
 11
148.06
 20
69.536
 21
69.582
  0
LINE
  8
0
 10
148.06
 11
148.047
 20
69.582
 21
69.627
  0
LINE
  8
0
 10
148.047
 11
148.036
 20
69.627
 21
69.673
  0
LINE
  8
0
 10
148.036
 11
148.027
 20
69.673
 21
69.719
  0
LINE
  8
0
 10
148.027
 11
148.018
 20
69.719
 21
69.765
  0
LINE
  8
0
 10
148.018
 11
148.012
 20
69.765
 21
69.812
  0
LINE
  8
0
 10
148.012
 11
148.007
 20
69.812
 21
69.859
  0
LINE
  8
0
 10
148.007
 11
148.003
 20
69.859
 21
69.906
  0
LINE
  8
0
 10
148.003
 11
148.001
 20
69.906
 21
69.953
  0
LINE
  8
0
 10
148.001
 11
148
 20
69.953
 21
70
  0
LINE
  8
0
 10
202.5
 11
202.501
 20
470
 21
470.047
  0
LINE
  8
0
 10
202.501
 11
202.503
 20
470.047
 21
470.094
  0
LINE
  8
0
 10
202.503
 11
202.507
 20
470.094
 21
470.141
  0
LINE
  8
0
 10
202.507
 11
202.512
 20
470.141
 21
470.188
  0
LINE
  8
0
 10
202.512
 11
202.518
 20
470.188
 21
470.235
  0
LINE
  8
0
 10
202.518
 11
202.527
 20
470.235
 21
470.281
  0
LINE
  8
0
 10
202.527
 11
202.536
 20
470.281
 21
470.327
  0
LINE
  8
0
 10
202.536
 11
202.547
 20
470.327
 21
470.373
  0
LINE
  8
0
 10
202.547
 11
202.56
 20
470.373
 21
470.418
  0
LINE
  8
0
 10
202.56
 11
202.573
 20
470.418
 21
470.464
  0
LINE
  8
0
 10
202.573
 11
202.589
 20
470.464
 21
470.508
  0
LINE
  8
0
 10
202.589
 11
202.605
 20
470.508
 21
470.552
  0
LINE
  8
0
 10
202.605
 11
202.623
 20
470.552
 21
470.596
  0
LINE
  8
0
 10
202.623
 11
202.643
 20
470.596
 21
470.639
  0
LINE
  8
0
 10
202.643
 11
202.663
 20
470.639
 21
470.681
  0
LINE
  8
0
 10
202.663
 11
202.686
 20
470.681
 21
470.723
  0
LINE
  8
0
 10
202.686
 11
202.709
 20
470.723
 21
470.764
  0
LINE
  8
0
 10
202.709
 11
202.734
 20
470.764
 21
470.804
  0
LINE
  8
0
 10
202.734
 11
202.759
 20
470.804
 21
470.843
  0
LINE
  8
0
 10
202.759
 11
202.786
 20
470.843
 21
470.882
  0
LINE
  8
0
 10
202.786
 11
202.815
 20
470.882
 21
470.919
  0
LINE
  8
0
 10
202.815
 11
202.844
 20
470.919
 21
470.956
  0
LINE
  8
0
 10
202.844
 11
202.875
 20
470.956
 21
470.992
  0
LINE
  8
0
 10
202.875
 11
202.907
 20
470.992
 21
471.027
  0
LINE
  8
0
 10
202.907
 11
202.939
 20
471.027
 21
471.061
  0
LINE
  8
0
 10
202.939
 11
202.973
 20
471.061
 21
471.093
  0
LINE
  8
0
 10
202.973
 11
203.008
 20
471.093
 21
471.125
  0
LINE
  8
0
 10
203.008
 11
203.044
 20
471.125
 21
471.156
  0
LINE
  8
0
 10
203.044
 11
203.081
 20
471.156
 21
471.185
  0
LINE
  8
0
 10
203.081
 11
203.118
 20
471.185
 21
471.214
  0
LINE
  8
0
 10
203.118
 11
203.157
 20
471.214
 21
471.241
  0
LINE
  8
0
 10
203.157
 11
203.196
 20
471.241
 21
471.266
  0
LINE
  8
0
 10
203.196
 11
203.236
 20
471.266
 21
471.291
  0
LINE
  8
0
 10
203.236
 11
203.277
 20
471.291
 21
471.314
  0
LINE
  8
0
 10
203.277
 11
203.319
 20
471.314
 21
471.337
  0
LINE
  8
0
 10
203.319
 11
203.361
 20
471.337
 21
471.357
  0
LINE
  8
0
 10
203.361
 11
203.404
 20
471.357
 21
471.377
  0
LINE
  8
0
 10
203.404
 11
203.448
 20
471.377
 21
471.395
  0
LINE
  8
0
 10
203.448
 11
203.492
 20
471.395
 21
471.411
  0
LINE
  8
0
 10
203.492
 11
203.536
 20
471.411
 21
471.427
  0
LINE
  8
0
 10
203.536
 11
203.582
 20
471.427
 21
471.44
  0
LINE
  8
0
 10
203.582
 11
203.627
 20
471.44
 21
471.453
  0
LINE
  8
0
 10
203.627
 11
203.673
 20
471.453
 21
471.464
  0
LINE
  8
0
 10
203.673
 11
203.719
 20
471.464
 21
471.473
  0
LINE
  8
0
 10
203.719
 11
203.765
 20
471.473
 21
471.482
  0
LINE
  8
0
 10
203.765
 11
203.812
 20
471.482
 21
471.488
  0
LINE
  8
0
 10
203.812
 11
203.859
 20
471.488
 21
471.493
  0
LINE
  8
0
 10
203.859
 11
203.906
 20
471.493
 21
471.497
  0
LINE
  8
0
 10
203.906
 11
203.953
 20
471.497
 21
471.499
  0
LINE
  8
0
 10
203.953
 11
204
 20
471.499
 21
471.5
  0
LINE
  8
0
 10
204
 11
204.047
 20
471.5
 21
471.499
  0
LINE
  8
0
 10
204.047
 11
204.094
 20
471.499
 21
471.497
  0
LINE
  8
0
 10
204.094
 11
204.141
 20
471.497
 21
471.493
  0
LINE
  8
0
 10
204.141
 11
204.188
 20
471.493
 21
471.488
  0
LINE
  8
0
 10
204.188
 11
204.235
 20
471.488
 21
471.482
  0
LINE
  8
0
 10
204.235
 11
204.327
 20
471.482
 21
471.464
  0
LINE
  8
0
 10
204.327
 11
204.373
 20
471.464
 21
471.453
  0
LINE
  8
0
 10
204.373
 11
204.418
 20
471.453
 21
471.44
  0
LINE
  8
0
 10
204.418
 11
204.464
 20
471.44
 21
471.427
  0
LINE
  8
0
 10
204.464
 11
204.508
 20
471.427
 21
471.411
  0
LINE
  8
0
 10
204.508
 11
204.552
 20
471.411
 21
471.395
  0
LINE
  8
0
 10
204.552
 11
204.596
 20
471.395
 21
471.377
  0
LINE
  8
0
 10
204.596
 11
204.639
 20
471.377
 21
471.357
  0
LINE
  8
0
 10
204.639
 11
204.681
 20
471.357
 21
471.337
  0
LINE
  8
0
 10
204.681
 11
204.723
 20
471.337
 21
471.314
  0
LINE
  8
0
 10
204.723
 11
204.764
 20
471.314
 21
471.291
  0
LINE
  8
0
 10
204.764
 11
204.804
 20
471.291
 21
471.266
  0
LINE
  8
0
 10
204.804
 11
204.843
 20
471.266
 21
471.241
  0
LINE
  8
0
 10
204.843
 11
204.882
 20
471.241
 21
471.214
  0
LINE
  8
0
 10
204.882
 11
204.956
 20
471.214
 21
471.156
  0
LINE
  8
0
 10
204.956
 11
204.992
 20
471.156
 21
471.125
  0
LINE
  8
0
 10
204.992
 11
205.027
 20
471.125
 21
471.093
  0
LINE
  8
0
 10
205.027
 11
205.061
 20
471.093
 21
471.061
  0
LINE
  8
0
 10
205.061
 11
205.093
 20
471.061
 21
471.027
  0
LINE
  8
0
 10
205.093
 11
205.125
 20
471.027
 21
470.992
  0
LINE
  8
0
 10
205.125
 11
205.156
 20
470.992
 21
470.956
  0
LINE
  8
0
 10
205.156
 11
205.185
 20
470.956
 21
470.919
  0
LINE
  8
0
 10
205.185
 11
205.214
 20
470.919
 21
470.882
  0
LINE
  8
0
 10
205.214
 11
205.241
 20
470.882
 21
470.843
  0
LINE
  8
0
 10
205.241
 11
205.266
 20
470.843
 21
470.804
  0
LINE
  8
0
 10
205.266
 11
205.291
 20
470.804
 21
470.764
  0
LINE
  8
0
 10
205.291
 11
205.314
 20
470.764
 21
470.723
  0
LINE
  8
0
 10
205.314
 11
205.337
 20
470.723
 21
470.681
  0
LINE
  8
0
 10
205.337
 11
205.357
 20
470.681
 21
470.639
  0
LINE
  8
0
 10
205.357
 11
205.377
 20
470.639
 21
470.596
  0
LINE
  8
0
 10
205.377
 11
205.395
 20
470.596
 21
470.552
  0
LINE
  8
0
 10
205.395
 11
205.411
 20
470.552
 21
470.508
  0
LINE
  8
0
 10
205.411
 11
205.427
 20
470.508
 21
470.464
  0
LINE
  8
0
 10
205.427
 11
205.44
 20
470.464
 21
470.418
  0
LINE
  8
0
 10
205.44
 11
205.453
 20
470.418
 21
470.373
  0
LINE
  8
0
 10
205.453
 11
205.464
 20
470.373
 21
470.327
  0
LINE
  8
0
 10
205.464
 11
205.473
 20
470.327
 21
470.281
  0
LINE
  8
0
 10
205.473
 11
205.482
 20
470.281
 21
470.235
  0
LINE
  8
0
 10
205.482
 11
205.488
 20
470.235
 21
470.188
  0
LINE
  8
0
 10
205.488
 11
205.493
 20
470.188
 21
470.141
  0
LINE
  8
0
 10
205.493
 11
205.497
 20
470.141
 21
470.094
  0
LINE
  8
0
 10
205.497
 11
205.499
 20
470.094
 21
470.047
  0
LINE
  8
0
 10
205.499
 11
205.5
 20
470.047
 21
470
  0
LINE
  8
0
 10
205.5
 11
205.499
 20
470
 21
469.953
  0
LINE
  8
0
 10
205.499
 11
205.497
 20
469.953
 21
469.906
  0
LINE
  8
0
 10
205.497
 11
205.493
 20
469.906
 21
469.859
  0
LINE
  8
0
 10
205.493
 11
205.488
 20
469.859
 21
469.812
  0
LINE
  8
0
 10
205.488
 11
205.482
 20
469.812
 21
469.765
  0
LINE
  8
0
 10
205.482
 11
205.473
 20
469.765
 21
469.719
  0
LINE
  8
0
 10
205.473
 11
205.464
 20
469.719
 21
469.673
  0
LINE
  8
0
 10
205.464
 11
205.453
 20
469.673
 21
469.627
  0
LINE
  8
0
 10
205.453
 11
205.44
 20
469.627
 21
469.582
  0
LINE
  8
0
 10
205.44
 11
205.427
 20
469.582
 21
469.536
  0
LINE
  8
0
 10
205.427
 11
205.395
 20
469.536
 21
469.448
  0
LINE
  8
0
 10
205.395
 11
205.377
 20
469.448
 21
469.404
  0
LINE
  8
0
 10
205.377
 11
205.357
 20
469.404
 21
469.361
  0
LINE
  8
0
 10
205.357
 11
205.337
 20
469.361
 21
469.319
  0
LINE
  8
0
 10
205.337
 11
205.314
 20
469.319
 21
469.277
  0
LINE
  8
0
 10
205.314
 11
205.291
 20
469.277
 21
469.236
  0
LINE
  8
0
 10
205.291
 11
205.266
 20
469.236
 21
469.196
  0
LINE
  8
0
 10
205.266
 11
205.241
 20
469.196
 21
469.157
  0
LINE
  8
0
 10
205.241
 11
205.214
 20
469.157
 21
469.118
  0
LINE
  8
0
 10
205.214
 11
205.185
 20
469.118
 21
469.081
  0
LINE
  8
0
 10
205.185
 11
205.156
 20
469.081
 21
469.044
  0
LINE
  8
0
 10
205.156
 11
205.125
 20
469.044
 21
469.008
  0
LINE
  8
0
 10
205.125
 11
205.093
 20
469.008
 21
468.973
  0
LINE
  8
0
 10
205.093
 11
205.061
 20
468.973
 21
468.939
  0
LINE
  8
0
 10
205.061
 11
205.027
 20
468.939
 21
468.907
  0
LINE
  8
0
 10
205.027
 11
204.992
 20
468.907
 21
468.875
  0
LINE
  8
0
 10
204.992
 11
204.956
 20
468.875
 21
468.844
  0
LINE
  8
0
 10
204.956
 11
204.882
 20
468.844
 21
468.786
  0
LINE
  8
0
 10
204.882
 11
204.843
 20
468.786
 21
468.759
  0
LINE
  8
0
 10
204.843
 11
204.804
 20
468.759
 21
468.734
  0
LINE
  8
0
 10
204.804
 11
204.764
 20
468.734
 21
468.709
  0
LINE
  8
0
 10
204.764
 11
204.723
 20
468.709
 21
468.686
  0
LINE
  8
0
 10
204.723
 11
204.681
 20
468.686
 21
468.663
  0
LINE
  8
0
 10
204.681
 11
204.639
 20
468.663
 21
468.643
  0
LINE
  8
0
 10
204.639
 11
204.596
 20
468.643
 21
468.623
  0
LINE
  8
0
 10
204.596
 11
204.552
 20
468.623
 21
468.605
  0
LINE
  8
0
 10
204.552
 11
204.508
 20
468.605
 21
468.589
  0
LINE
  8
0
 10
204.508
 11
204.464
 20
468.589
 21
468.573
  0
LINE
  8
0
 10
204.464
 11
204.418
 20
468.573
 21
468.56
  0
LINE
  8
0
 10
204.418
 11
204.373
 20
468.56
 21
468.547
  0
LINE
  8
0
 10
204.373
 11
204.327
 20
468.547
 21
468.536
  0
LINE
  8
0
 10
204.327
 11
204.281
 20
468.536
 21
468.527
  0
LINE
  8
0
 10
204.281
 11
204.235
 20
468.527
 21
468.518
  0
LINE
  8
0
 10
204.235
 11
204.188
 20
468.518
 21
468.512
  0
LINE
  8
0
 10
204.188
 11
204.141
 20
468.512
 21
468.507
  0
LINE
  8
0
 10
204.141
 11
204.094
 20
468.507
 21
468.503
  0
LINE
  8
0
 10
204.094
 11
204.047
 20
468.503
 21
468.501
  0
LINE
  8
0
 10
204.047
 11
204
 20
468.501
 21
468.5
  0
LINE
  8
0
 10
204
 11
203.953
 20
468.5
 21
468.501
  0
LINE
  8
0
 10
203.953
 11
203.906
 20
468.501
 21
468.503
  0
LINE
  8
0
 10
203.906
 11
203.859
 20
468.503
 21
468.507
  0
LINE
  8
0
 10
203.859
 11
203.812
 20
468.507
 21
468.512
  0
LINE
  8
0
 10
203.812
 11
203.765
 20
468.512
 21
468.518
  0
LINE
  8
0
 10
203.765
 11
203.719
 20
468.518
 21
468.527
  0
LINE
  8
0
 10
203.719
 11
203.673
 20
468.527
 21
468.536
  0
LINE
  8
0
 10
203.673
 11
203.627
 20
468.536
 21
468.547
  0
LINE
  8
0
 10
203.627
 11
203.582
 20
468.547
 21
468.56
  0
LINE
  8
0
 10
203.582
 11
203.536
 20
468.56
 21
468.573
  0
LINE
  8
0
 10
203.536
 11
203.492
 20
468.573
 21
468.589
  0
LINE
  8
0
 10
203.492
 11
203.448
 20
468.589
 21
468.605
  0
LINE
  8
0
 10
203.448
 11
203.404
 20
468.605
 21
468.623
  0
LINE
  8
0
 10
203.404
 11
203.361
 20
468.623
 21
468.643
  0
LINE
  8
0
 10
203.361
 11
203.319
 20
468.643
 21
468.663
  0
LINE
  8
0
 10
203.319
 11
203.277
 20
468.663
 21
468.686
  0
LINE
  8
0
 10
203.277
 11
203.236
 20
468.686
 21
468.709
  0
LINE
  8
0
 10
203.236
 11
203.196
 20
468.709
 21
468.734
  0
LINE
  8
0
 10
203.196
 11
203.157
 20
468.734
 21
468.759
  0
LINE
  8
0
 10
203.157
 11
203.118
 20
468.759
 21
468.786
  0
LINE
  8
0
 10
203.118
 11
203.081
 20
468.786
 21
468.815
  0
LINE
  8
0
 10
203.081
 11
203.044
 20
468.815
 21
468.844
  0
LINE
  8
0
 10
203.044
 11
203.008
 20
468.844
 21
468.875
  0
LINE
  8
0
 10
203.008
 11
202.973
 20
468.875
 21
468.907
  0
LINE
  8
0
 10
202.973
 11
202.939
 20
468.907
 21
468.939
  0
LINE
  8
0
 10
202.939
 11
202.907
 20
468.939
 21
468.973
  0
LINE
  8
0
 10
202.907
 11
202.875
 20
468.973
 21
469.008
  0
LINE
  8
0
 10
202.875
 11
202.844
 20
469.008
 21
469.044
  0
LINE
  8
0
 10
202.844
 11
202.815
 20
469.044
 21
469.081
  0
LINE
  8
0
 10
202.815
 11
202.786
 20
469.081
 21
469.118
  0
LINE
  8
0
 10
202.786
 11
202.759
 20
469.118
 21
469.157
  0
LINE
  8
0
 10
202.759
 11
202.734
 20
469.157
 21
469.196
  0
LINE
  8
0
 10
202.734
 11
202.709
 20
469.196
 21
469.236
  0
LINE
  8
0
 10
202.709
 11
202.686
 20
469.236
 21
469.277
  0
LINE
  8
0
 10
202.686
 11
202.663
 20
469.277
 21
469.319
  0
LINE
  8
0
 10
202.663
 11
202.643
 20
469.319
 21
469.361
  0
LINE
  8
0
 10
202.643
 11
202.623
 20
469.361
 21
469.404
  0
LINE
  8
0
 10
202.623
 11
202.605
 20
469.404
 21
469.448
  0
LINE
  8
0
 10
202.605
 11
202.589
 20
469.448
 21
469.492
  0
LINE
  8
0
 10
202.589
 11
202.573
 20
469.492
 21
469.536
  0
LINE
  8
0
 10
202.573
 11
202.56
 20
469.536
 21
469.582
  0
LINE
  8
0
 10
202.56
 11
202.547
 20
469.582
 21
469.627
  0
LINE
  8
0
 10
202.547
 11
202.536
 20
469.627
 21
469.673
  0
LINE
  8
0
 10
202.536
 11
202.527
 20
469.673
 21
469.719
  0
LINE
  8
0
 10
202.527
 11
202.518
 20
469.719
 21
469.765
  0
LINE
  8
0
 10
202.518
 11
202.512
 20
469.765
 21
469.812
  0
LINE
  8
0
 10
202.512
 11
202.507
 20
469.812
 21
469.859
  0
LINE
  8
0
 10
202.507
 11
202.503
 20
469.859
 21
469.906
  0
LINE
  8
0
 10
202.503
 11
202.501
 20
469.906
 21
469.953
  0
LINE
  8
0
 10
202.501
 11
202.5
 20
469.953
 21
470
  0
LINE
  8
0
 10
236.25
 11
236.251
 20
47
 21
47.079
  0
LINE
  8
0
 10
236.251
 11
236.255
 20
47.079
 21
47.157
  0
LINE
  8
0
 10
236.255
 11
236.261
 20
47.157
 21
47.235
  0
LINE
  8
0
 10
236.261
 11
236.27
 20
47.235
 21
47.313
  0
LINE
  8
0
 10
236.27
 11
236.281
 20
47.313
 21
47.391
  0
LINE
  8
0
 10
236.281
 11
236.294
 20
47.391
 21
47.468
  0
LINE
  8
0
 10
236.294
 11
236.31
 20
47.468
 21
47.545
  0
LINE
  8
0
 10
236.31
 11
236.329
 20
47.545
 21
47.622
  0
LINE
  8
0
 10
236.329
 11
236.349
 20
47.622
 21
47.697
  0
LINE
  8
0
 10
236.349
 11
236.372
 20
47.697
 21
47.773
  0
LINE
  8
0
 10
236.372
 11
236.398
 20
47.773
 21
47.847
  0
LINE
  8
0
 10
236.398
 11
236.426
 20
47.847
 21
47.92
  0
LINE
  8
0
 10
236.426
 11
236.456
 20
47.92
 21
47.993
  0
LINE
  8
0
 10
236.456
 11
236.488
 20
47.993
 21
48.064
  0
LINE
  8
0
 10
236.488
 11
236.522
 20
48.064
 21
48.135
  0
LINE
  8
0
 10
236.522
 11
236.559
 20
48.135
 21
48.204
  0
LINE
  8
0
 10
236.559
 11
236.598
 20
48.204
 21
48.273
  0
LINE
  8
0
 10
236.598
 11
236.639
 20
48.273
 21
48.34
  0
LINE
  8
0
 10
236.639
 11
236.682
 20
48.34
 21
48.405
  0
LINE
  8
0
 10
236.682
 11
236.727
 20
48.405
 21
48.469
  0
LINE
  8
0
 10
236.727
 11
236.775
 20
48.469
 21
48.532
  0
LINE
  8
0
 10
236.775
 11
236.824
 20
48.532
 21
48.594
  0
LINE
  8
0
 10
236.824
 11
236.875
 20
48.594
 21
48.653
  0
LINE
  8
0
 10
236.875
 11
236.928
 20
48.653
 21
48.711
  0
LINE
  8
0
 10
236.928
 11
236.982
 20
48.711
 21
48.768
  0
LINE
  8
0
 10
236.982
 11
237.039
 20
48.768
 21
48.822
  0
LINE
  8
0
 10
237.039
 11
237.097
 20
48.822
 21
48.875
  0
LINE
  8
0
 10
237.097
 11
237.156
 20
48.875
 21
48.926
  0
LINE
  8
0
 10
237.156
 11
237.218
 20
48.926
 21
48.975
  0
LINE
  8
0
 10
237.218
 11
237.281
 20
48.975
 21
49.023
  0
LINE
  8
0
 10
237.281
 11
237.345
 20
49.023
 21
49.068
  0
LINE
  8
0
 10
237.345
 11
237.41
 20
49.068
 21
49.111
  0
LINE
  8
0
 10
237.41
 11
237.477
 20
49.111
 21
49.152
  0
LINE
  8
0
 10
237.477
 11
237.546
 20
49.152
 21
49.191
  0
LINE
  8
0
 10
237.546
 11
237.615
 20
49.191
 21
49.228
  0
LINE
  8
0
 10
237.615
 11
237.686
 20
49.228
 21
49.262
  0
LINE
  8
0
 10
237.686
 11
237.757
 20
49.262
 21
49.294
  0
LINE
  8
0
 10
237.757
 11
237.83
 20
49.294
 21
49.324
  0
LINE
  8
0
 10
237.83
 11
237.903
 20
49.324
 21
49.352
  0
LINE
  8
0
 10
237.903
 11
237.977
 20
49.352
 21
49.378
  0
LINE
  8
0
 10
237.977
 11
238.053
 20
49.378
 21
49.401
  0
LINE
  8
0
 10
238.053
 11
238.128
 20
49.401
 21
49.421
  0
LINE
  8
0
 10
238.128
 11
238.205
 20
49.421
 21
49.44
  0
LINE
  8
0
 10
238.205
 11
238.282
 20
49.44
 21
49.456
  0
LINE
  8
0
 10
238.282
 11
238.359
 20
49.456
 21
49.469
  0
LINE
  8
0
 10
238.359
 11
238.437
 20
49.469
 21
49.48
  0
LINE
  8
0
 10
238.437
 11
238.515
 20
49.48
 21
49.489
  0
LINE
  8
0
 10
238.515
 11
238.593
 20
49.489
 21
49.495
  0
LINE
  8
0
 10
238.593
 11
238.671
 20
49.495
 21
49.499
  0
LINE
  8
0
 10
238.671
 11
238.75
 20
49.499
 21
49.5
  0
LINE
  8
0
 10
238.75
 11
238.829
 20
49.5
 21
49.499
  0
LINE
  8
0
 10
238.829
 11
238.907
 20
49.499
 21
49.495
  0
LINE
  8
0
 10
238.907
 11
238.985
 20
49.495
 21
49.489
  0
LINE
  8
0
 10
238.985
 11
239.063
 20
49.489
 21
49.48
  0
LINE
  8
0
 10
239.063
 11
239.141
 20
49.48
 21
49.469
  0
LINE
  8
0
 10
239.141
 11
239.218
 20
49.469
 21
49.456
  0
LINE
  8
0
 10
239.218
 11
239.295
 20
49.456
 21
49.44
  0
LINE
  8
0
 10
239.295
 11
239.372
 20
49.44
 21
49.421
  0
LINE
  8
0
 10
239.372
 11
239.447
 20
49.421
 21
49.401
  0
LINE
  8
0
 10
239.447
 11
239.523
 20
49.401
 21
49.378
  0
LINE
  8
0
 10
239.523
 11
239.597
 20
49.378
 21
49.352
  0
LINE
  8
0
 10
239.597
 11
239.67
 20
49.352
 21
49.324
  0
LINE
  8
0
 10
239.67
 11
239.743
 20
49.324
 21
49.294
  0
LINE
  8
0
 10
239.743
 11
239.814
 20
49.294
 21
49.262
  0
LINE
  8
0
 10
239.814
 11
239.885
 20
49.262
 21
49.228
  0
LINE
  8
0
 10
239.885
 11
239.954
 20
49.228
 21
49.191
  0
LINE
  8
0
 10
239.954
 11
240.023
 20
49.191
 21
49.152
  0
LINE
  8
0
 10
240.023
 11
240.09
 20
49.152
 21
49.111
  0
LINE
  8
0
 10
240.09
 11
240.155
 20
49.111
 21
49.068
  0
LINE
  8
0
 10
240.155
 11
240.219
 20
49.068
 21
49.023
  0
LINE
  8
0
 10
240.219
 11
240.282
 20
49.023
 21
48.975
  0
LINE
  8
0
 10
240.282
 11
240.344
 20
48.975
 21
48.926
  0
LINE
  8
0
 10
240.344
 11
240.403
 20
48.926
 21
48.875
  0
LINE
  8
0
 10
240.403
 11
240.461
 20
48.875
 21
48.822
  0
LINE
  8
0
 10
240.461
 11
240.518
 20
48.822
 21
48.768
  0
LINE
  8
0
 10
240.518
 11
240.572
 20
48.768
 21
48.711
  0
LINE
  8
0
 10
240.572
 11
240.625
 20
48.711
 21
48.653
  0
LINE
  8
0
 10
240.625
 11
240.676
 20
48.653
 21
48.594
  0
LINE
  8
0
 10
240.676
 11
240.725
 20
48.594
 21
48.532
  0
LINE
  8
0
 10
240.725
 11
240.773
 20
48.532
 21
48.469
  0
LINE
  8
0
 10
240.773
 11
240.818
 20
48.469
 21
48.405
  0
LINE
  8
0
 10
240.818
 11
240.861
 20
48.405
 21
48.34
  0
LINE
  8
0
 10
240.861
 11
240.902
 20
48.34
 21
48.273
  0
LINE
  8
0
 10
240.902
 11
240.941
 20
48.273
 21
48.204
  0
LINE
  8
0
 10
240.941
 11
240.978
 20
48.204
 21
48.135
  0
LINE
  8
0
 10
240.978
 11
241.012
 20
48.135
 21
48.064
  0
LINE
  8
0
 10
241.012
 11
241.044
 20
48.064
 21
47.993
  0
LINE
  8
0
 10
241.044
 11
241.074
 20
47.993
 21
47.92
  0
LINE
  8
0
 10
241.074
 11
241.102
 20
47.92
 21
47.847
  0
LINE
  8
0
 10
241.102
 11
241.128
 20
47.847
 21
47.773
  0
LINE
  8
0
 10
241.128
 11
241.151
 20
47.773
 21
47.697
  0
LINE
  8
0
 10
241.151
 11
241.171
 20
47.697
 21
47.622
  0
LINE
  8
0
 10
241.171
 11
241.19
 20
47.622
 21
47.545
  0
LINE
  8
0
 10
241.19
 11
241.206
 20
47.545
 21
47.468
  0
LINE
  8
0
 10
241.206
 11
241.219
 20
47.468
 21
47.391
  0
LINE
  8
0
 10
241.219
 11
241.23
 20
47.391
 21
47.313
  0
LINE
  8
0
 10
241.23
 11
241.239
 20
47.313
 21
47.235
  0
LINE
  8
0
 10
241.239
 11
241.245
 20
47.235
 21
47.157
  0
LINE
  8
0
 10
241.245
 11
241.249
 20
47.157
 21
47.079
  0
LINE
  8
0
 10
241.249
 11
241.25
 20
47.079
 21
47
  0
LINE
  8
0
 10
241.25
 11
241.249
 20
47
 21
46.921
  0
LINE
  8
0
 10
241.249
 11
241.245
 20
46.921
 21
46.843
  0
LINE
  8
0
 10
241.245
 11
241.239
 20
46.843
 21
46.765
  0
LINE
  8
0
 10
241.239
 11
241.23
 20
46.765
 21
46.687
  0
LINE
  8
0
 10
241.23
 11
241.219
 20
46.687
 21
46.609
  0
LINE
  8
0
 10
241.219
 11
241.206
 20
46.609
 21
46.532
  0
LINE
  8
0
 10
241.206
 11
241.19
 20
46.532
 21
46.455
  0
LINE
  8
0
 10
241.19
 11
241.171
 20
46.455
 21
46.378
  0
LINE
  8
0
 10
241.171
 11
241.151
 20
46.378
 21
46.303
  0
LINE
  8
0
 10
241.151
 11
241.128
 20
46.303
 21
46.227
  0
LINE
  8
0
 10
241.128
 11
241.102
 20
46.227
 21
46.153
  0
LINE
  8
0
 10
241.102
 11
241.074
 20
46.153
 21
46.08
  0
LINE
  8
0
 10
241.074
 11
241.044
 20
46.08
 21
46.007
  0
LINE
  8
0
 10
241.044
 11
241.012
 20
46.007
 21
45.936
  0
LINE
  8
0
 10
241.012
 11
240.978
 20
45.936
 21
45.865
  0
LINE
  8
0
 10
240.978
 11
240.941
 20
45.865
 21
45.796
  0
LINE
  8
0
 10
240.941
 11
240.902
 20
45.796
 21
45.727
  0
LINE
  8
0
 10
240.902
 11
240.861
 20
45.727
 21
45.66
  0
LINE
  8
0
 10
240.861
 11
240.818
 20
45.66
 21
45.595
  0
LINE
  8
0
 10
240.818
 11
240.773
 20
45.595
 21
45.531
  0
LINE
  8
0
 10
240.773
 11
240.725
 20
45.531
 21
45.468
  0
LINE
  8
0
 10
240.725
 11
240.676
 20
45.468
 21
45.406
  0
LINE
  8
0
 10
240.676
 11
240.625
 20
45.406
 21
45.347
  0
LINE
  8
0
 10
240.625
 11
240.572
 20
45.347
 21
45.289
  0
LINE
  8
0
 10
240.572
 11
240.518
 20
45.289
 21
45.232
  0
LINE
  8
0
 10
240.518
 11
240.461
 20
45.232
 21
45.178
  0
LINE
  8
0
 10
240.461
 11
240.403
 20
45.178
 21
45.125
  0
LINE
  8
0
 10
240.403
 11
240.344
 20
45.125
 21
45.074
  0
LINE
  8
0
 10
240.344
 11
240.282
 20
45.074
 21
45.025
  0
LINE
  8
0
 10
240.282
 11
240.219
 20
45.025
 21
44.977
  0
LINE
  8
0
 10
240.219
 11
240.155
 20
44.977
 21
44.932
  0
LINE
  8
0
 10
240.155
 11
240.09
 20
44.932
 21
44.889
  0
LINE
  8
0
 10
240.09
 11
240.023
 20
44.889
 21
44.848
  0
LINE
  8
0
 10
240.023
 11
239.954
 20
44.848
 21
44.809
  0
LINE
  8
0
 10
239.954
 11
239.885
 20
44.809
 21
44.772
  0
LINE
  8
0
 10
239.885
 11
239.814
 20
44.772
 21
44.738
  0
LINE
  8
0
 10
239.814
 11
239.743
 20
44.738
 21
44.706
  0
LINE
  8
0
 10
239.743
 11
239.67
 20
44.706
 21
44.676
  0
LINE
  8
0
 10
239.67
 11
239.597
 20
44.676
 21
44.648
  0
LINE
  8
0
 10
239.597
 11
239.523
 20
44.648
 21
44.622
  0
LINE
  8
0
 10
239.523
 11
239.447
 20
44.622
 21
44.599
  0
LINE
  8
0
 10
239.447
 11
239.372
 20
44.599
 21
44.579
  0
LINE
  8
0
 10
239.372
 11
239.295
 20
44.579
 21
44.56
  0
LINE
  8
0
 10
239.295
 11
239.218
 20
44.56
 21
44.544
  0
LINE
  8
0
 10
239.218
 11
239.141
 20
44.544
 21
44.531
  0
LINE
  8
0
 10
239.141
 11
239.063
 20
44.531
 21
44.52
  0
LINE
  8
0
 10
239.063
 11
238.985
 20
44.52
 21
44.511
  0
LINE
  8
0
 10
238.985
 11
238.907
 20
44.511
 21
44.505
  0
LINE
  8
0
 10
238.907
 11
238.829
 20
44.505
 21
44.501
  0
LINE
  8
0
 10
238.829
 11
238.75
 20
44.501
 21
44.5
  0
LINE
  8
0
 10
238.75
 11
238.671
 20
44.5
 21
44.501
  0
LINE
  8
0
 10
238.671
 11
238.593
 20
44.501
 21
44.505
  0
LINE
  8
0
 10
238.593
 11
238.515
 20
44.505
 21
44.511
  0
LINE
  8
0
 10
238.515
 11
238.437
 20
44.511
 21
44.52
  0
LINE
  8
0
 10
238.437
 11
238.359
 20
44.52
 21
44.531
  0
LINE
  8
0
 10
238.359
 11
238.282
 20
44.531
 21
44.544
  0
LINE
  8
0
 10
238.282
 11
238.205
 20
44.544
 21
44.56
  0
LINE
  8
0
 10
238.205
 11
238.128
 20
44.56
 21
44.579
  0
LINE
  8
0
 10
238.128
 11
238.053
 20
44.579
 21
44.599
  0
LINE
  8
0
 10
238.053
 11
237.977
 20
44.599
 21
44.622
  0
LINE
  8
0
 10
237.977
 11
237.903
 20
44.622
 21
44.648
  0
LINE
  8
0
 10
237.903
 11
237.83
 20
44.648
 21
44.676
  0
LINE
  8
0
 10
237.83
 11
237.757
 20
44.676
 21
44.706
  0
LINE
  8
0
 10
237.757
 11
237.686
 20
44.706
 21
44.738
  0
LINE
  8
0
 10
237.686
 11
237.615
 20
44.738
 21
44.772
  0
LINE
  8
0
 10
237.615
 11
237.546
 20
44.772
 21
44.809
  0
LINE
  8
0
 10
237.546
 11
237.477
 20
44.809
 21
44.848
  0
LINE
  8
0
 10
237.477
 11
237.41
 20
44.848
 21
44.889
  0
LINE
  8
0
 10
237.41
 11
237.345
 20
44.889
 21
44.932
  0
LINE
  8
0
 10
237.345
 11
237.281
 20
44.932
 21
44.977
  0
LINE
  8
0
 10
237.281
 11
237.218
 20
44.977
 21
45.025
  0
LINE
  8
0
 10
237.218
 11
237.156
 20
45.025
 21
45.074
  0
LINE
  8
0
 10
237.156
 11
237.097
 20
45.074
 21
45.125
  0
LINE
  8
0
 10
237.097
 11
237.039
 20
45.125
 21
45.178
  0
LINE
  8
0
 10
237.039
 11
236.982
 20
45.178
 21
45.232
  0
LINE
  8
0
 10
236.982
 11
236.928
 20
45.232
 21
45.289
  0
LINE
  8
0
 10
236.928
 11
236.875
 20
45.289
 21
45.347
  0
LINE
  8
0
 10
236.875
 11
236.824
 20
45.347
 21
45.406
  0
LINE
  8
0
 10
236.824
 11
236.775
 20
45.406
 21
45.468
  0
LINE
  8
0
 10
236.775
 11
236.727
 20
45.468
 21
45.531
  0
LINE
  8
0
 10
236.727
 11
236.682
 20
45.531
 21
45.595
  0
LINE
  8
0
 10
236.682
 11
236.639
 20
45.595
 21
45.66
  0
LINE
  8
0
 10
236.639
 11
236.598
 20
45.66
 21
45.727
  0
LINE
  8
0
 10
236.598
 11
236.559
 20
45.727
 21
45.796
  0
LINE
  8
0
 10
236.559
 11
236.522
 20
45.796
 21
45.865
  0
LINE
  8
0
 10
236.522
 11
236.488
 20
45.865
 21
45.936
  0
LINE
  8
0
 10
236.488
 11
236.456
 20
45.936
 21
46.007
  0
LINE
  8
0
 10
236.456
 11
236.426
 20
46.007
 21
46.08
  0
LINE
  8
0
 10
236.426
 11
236.398
 20
46.08
 21
46.153
  0
LINE
  8
0
 10
236.398
 11
236.372
 20
46.153
 21
46.227
  0
LINE
  8
0
 10
236.372
 11
236.349
 20
46.227
 21
46.303
  0
LINE
  8
0
 10
236.349
 11
236.329
 20
46.303
 21
46.378
  0
LINE
  8
0
 10
236.329
 11
236.31
 20
46.378
 21
46.455
  0
LINE
  8
0
 10
236.31
 11
236.294
 20
46.455
 21
46.532
  0
LINE
  8
0
 10
236.294
 11
236.281
 20
46.532
 21
46.609
  0
LINE
  8
0
 10
236.281
 11
236.27
 20
46.609
 21
46.687
  0
LINE
  8
0
 10
236.27
 11
236.261
 20
46.687
 21
46.765
  0
LINE
  8
0
 10
236.261
 11
236.255
 20
46.765
 21
46.843
  0
LINE
  8
0
 10
236.255
 11
236.251
 20
46.843
 21
46.921
  0
LINE
  8
0
 10
236.251
 11
236.25
 20
46.921
 21
47
  0
LINE
  8
0
 10
236.25
 11
236.251
 20
560
 21
560.079
  0
LINE
  8
0
 10
236.251
 11
236.255
 20
560.079
 21
560.157
  0
LINE
  8
0
 10
236.255
 11
236.261
 20
560.157
 21
560.235
  0
LINE
  8
0
 10
236.261
 11
236.27
 20
560.235
 21
560.313
  0
LINE
  8
0
 10
236.27
 11
236.281
 20
560.313
 21
560.391
  0
LINE
  8
0
 10
236.281
 11
236.294
 20
560.391
 21
560.468
  0
LINE
  8
0
 10
236.294
 11
236.31
 20
560.468
 21
560.545
  0
LINE
  8
0
 10
236.31
 11
236.329
 20
560.545
 21
560.622
  0
LINE
  8
0
 10
236.329
 11
236.349
 20
560.622
 21
560.697
  0
LINE
  8
0
 10
236.349
 11
236.372
 20
560.697
 21
560.773
  0
LINE
  8
0
 10
236.372
 11
236.398
 20
560.773
 21
560.847
  0
LINE
  8
0
 10
236.398
 11
236.426
 20
560.847
 21
560.92
  0
LINE
  8
0
 10
236.426
 11
236.456
 20
560.92
 21
560.993
  0
LINE
  8
0
 10
236.456
 11
236.488
 20
560.993
 21
561.064
  0
LINE
  8
0
 10
236.488
 11
236.522
 20
561.064
 21
561.135
  0
LINE
  8
0
 10
236.522
 11
236.559
 20
561.135
 21
561.204
  0
LINE
  8
0
 10
236.559
 11
236.598
 20
561.204
 21
561.273
  0
LINE
  8
0
 10
236.598
 11
236.639
 20
561.273
 21
561.34
  0
LINE
  8
0
 10
236.639
 11
236.682
 20
561.34
 21
561.405
  0
LINE
  8
0
 10
236.682
 11
236.727
 20
561.405
 21
561.469
  0
LINE
  8
0
 10
236.727
 11
236.775
 20
561.469
 21
561.532
  0
LINE
  8
0
 10
236.775
 11
236.824
 20
561.532
 21
561.594
  0
LINE
  8
0
 10
236.824
 11
236.875
 20
561.594
 21
561.653
  0
LINE
  8
0
 10
236.875
 11
236.928
 20
561.653
 21
561.711
  0
LINE
  8
0
 10
236.928
 11
236.982
 20
561.711
 21
561.768
  0
LINE
  8
0
 10
236.982
 11
237.039
 20
561.768
 21
561.822
  0
LINE
  8
0
 10
237.039
 11
237.097
 20
561.822
 21
561.875
  0
LINE
  8
0
 10
237.097
 11
237.156
 20
561.875
 21
561.926
  0
LINE
  8
0
 10
237.156
 11
237.218
 20
561.926
 21
561.975
  0
LINE
  8
0
 10
237.218
 11
237.281
 20
561.975
 21
562.023
  0
LINE
  8
0
 10
237.281
 11
237.345
 20
562.023
 21
562.068
  0
LINE
  8
0
 10
237.345
 11
237.41
 20
562.068
 21
562.111
  0
LINE
  8
0
 10
237.41
 11
237.477
 20
562.111
 21
562.152
  0
LINE
  8
0
 10
237.477
 11
237.546
 20
562.152
 21
562.191
  0
LINE
  8
0
 10
237.546
 11
237.615
 20
562.191
 21
562.228
  0
LINE
  8
0
 10
237.615
 11
237.686
 20
562.228
 21
562.262
  0
LINE
  8
0
 10
237.686
 11
237.757
 20
562.262
 21
562.294
  0
LINE
  8
0
 10
237.757
 11
237.83
 20
562.294
 21
562.324
  0
LINE
  8
0
 10
237.83
 11
237.903
 20
562.324
 21
562.352
  0
LINE
  8
0
 10
237.903
 11
237.977
 20
562.352
 21
562.378
  0
LINE
  8
0
 10
237.977
 11
238.053
 20
562.378
 21
562.401
  0
LINE
  8
0
 10
238.053
 11
238.128
 20
562.401
 21
562.421
  0
LINE
  8
0
 10
238.128
 11
238.205
 20
562.421
 21
562.44
  0
LINE
  8
0
 10
238.205
 11
238.282
 20
562.44
 21
562.456
  0
LINE
  8
0
 10
238.282
 11
238.359
 20
562.456
 21
562.469
  0
LINE
  8
0
 10
238.359
 11
238.437
 20
562.469
 21
562.48
  0
LINE
  8
0
 10
238.437
 11
238.515
 20
562.48
 21
562.489
  0
LINE
  8
0
 10
238.515
 11
238.593
 20
562.489
 21
562.495
  0
LINE
  8
0
 10
238.593
 11
238.671
 20
562.495
 21
562.499
  0
LINE
  8
0
 10
238.671
 11
238.75
 20
562.499
 21
562.5
  0
LINE
  8
0
 10
238.75
 11
238.829
 20
562.5
 21
562.499
  0
LINE
  8
0
 10
238.829
 11
238.907
 20
562.499
 21
562.495
  0
LINE
  8
0
 10
238.907
 11
238.985
 20
562.495
 21
562.489
  0
LINE
  8
0
 10
238.985
 11
239.063
 20
562.489
 21
562.48
  0
LINE
  8
0
 10
239.063
 11
239.141
 20
562.48
 21
562.469
  0
LINE
  8
0
 10
239.141
 11
239.218
 20
562.469
 21
562.456
  0
LINE
  8
0
 10
239.218
 11
239.295
 20
562.456
 21
562.44
  0
LINE
  8
0
 10
239.295
 11
239.372
 20
562.44
 21
562.421
  0
LINE
  8
0
 10
239.372
 11
239.447
 20
562.421
 21
562.401
  0
LINE
  8
0
 10
239.447
 11
239.523
 20
562.401
 21
562.378
  0
LINE
  8
0
 10
239.523
 11
239.597
 20
562.378
 21
562.352
  0
LINE
  8
0
 10
239.597
 11
239.67
 20
562.352
 21
562.324
  0
LINE
  8
0
 10
239.67
 11
239.743
 20
562.324
 21
562.294
  0
LINE
  8
0
 10
239.743
 11
239.814
 20
562.294
 21
562.262
  0
LINE
  8
0
 10
239.814
 11
239.885
 20
562.262
 21
562.228
  0
LINE
  8
0
 10
239.885
 11
239.954
 20
562.228
 21
562.191
  0
LINE
  8
0
 10
239.954
 11
240.023
 20
562.191
 21
562.152
  0
LINE
  8
0
 10
240.023
 11
240.09
 20
562.152
 21
562.111
  0
LINE
  8
0
 10
240.09
 11
240.155
 20
562.111
 21
562.068
  0
LINE
  8
0
 10
240.155
 11
240.219
 20
562.068
 21
562.023
  0
LINE
  8
0
 10
240.219
 11
240.282
 20
562.023
 21
561.975
  0
LINE
  8
0
 10
240.282
 11
240.344
 20
561.975
 21
561.926
  0
LINE
  8
0
 10
240.344
 11
240.403
 20
561.926
 21
561.875
  0
LINE
  8
0
 10
240.403
 11
240.461
 20
561.875
 21
561.822
  0
LINE
  8
0
 10
240.461
 11
240.518
 20
561.822
 21
561.768
  0
LINE
  8
0
 10
240.518
 11
240.572
 20
561.768
 21
561.711
  0
LINE
  8
0
 10
240.572
 11
240.625
 20
561.711
 21
561.653
  0
LINE
  8
0
 10
240.625
 11
240.676
 20
561.653
 21
561.594
  0
LINE
  8
0
 10
240.676
 11
240.725
 20
561.594
 21
561.532
  0
LINE
  8
0
 10
240.725
 11
240.773
 20
561.532
 21
561.469
  0
LINE
  8
0
 10
240.773
 11
240.818
 20
561.469
 21
561.405
  0
LINE
  8
0
 10
240.818
 11
240.861
 20
561.405
 21
561.34
  0
LINE
  8
0
 10
240.861
 11
240.902
 20
561.34
 21
561.273
  0
LINE
  8
0
 10
240.902
 11
240.941
 20
561.273
 21
561.204
  0
LINE
  8
0
 10
240.941
 11
240.978
 20
561.204
 21
561.135
  0
LINE
  8
0
 10
240.978
 11
241.012
 20
561.135
 21
561.064
  0
LINE
  8
0
 10
241.012
 11
241.044
 20
561.064
 21
560.993
  0
LINE
  8
0
 10
241.044
 11
241.074
 20
560.993
 21
560.92
  0
LINE
  8
0
 10
241.074
 11
241.102
 20
560.92
 21
560.847
  0
LINE
  8
0
 10
241.102
 11
241.128
 20
560.847
 21
560.773
  0
LINE
  8
0
 10
241.128
 11
241.151
 20
560.773
 21
560.697
  0
LINE
  8
0
 10
241.151
 11
241.171
 20
560.697
 21
560.622
  0
LINE
  8
0
 10
241.171
 11
241.19
 20
560.622
 21
560.545
  0
LINE
  8
0
 10
241.19
 11
241.206
 20
560.545
 21
560.468
  0
LINE
  8
0
 10
241.206
 11
241.219
 20
560.468
 21
560.391
  0
LINE
  8
0
 10
241.219
 11
241.23
 20
560.391
 21
560.313
  0
LINE
  8
0
 10
241.23
 11
241.239
 20
560.313
 21
560.235
  0
LINE
  8
0
 10
241.239
 11
241.245
 20
560.235
 21
560.157
  0
LINE
  8
0
 10
241.245
 11
241.249
 20
560.157
 21
560.079
  0
LINE
  8
0
 10
241.249
 11
241.25
 20
560.079
 21
560
  0
LINE
  8
0
 10
241.25
 11
241.249
 20
560
 21
559.921
  0
LINE
  8
0
 10
241.249
 11
241.245
 20
559.921
 21
559.843
  0
LINE
  8
0
 10
241.245
 11
241.239
 20
559.843
 21
559.765
  0
LINE
  8
0
 10
241.239
 11
241.23
 20
559.765
 21
559.687
  0
LINE
  8
0
 10
241.23
 11
241.219
 20
559.687
 21
559.609
  0
LINE
  8
0
 10
241.219
 11
241.206
 20
559.609
 21
559.532
  0
LINE
  8
0
 10
241.206
 11
241.19
 20
559.532
 21
559.455
  0
LINE
  8
0
 10
241.19
 11
241.171
 20
559.455
 21
559.378
  0
LINE
  8
0
 10
241.171
 11
241.151
 20
559.378
 21
559.303
  0
LINE
  8
0
 10
241.151
 11
241.128
 20
559.303
 21
559.227
  0
LINE
  8
0
 10
241.128
 11
241.102
 20
559.227
 21
559.153
  0
LINE
  8
0
 10
241.102
 11
241.074
 20
559.153
 21
559.08
  0
LINE
  8
0
 10
241.074
 11
241.044
 20
559.08
 21
559.007
  0
LINE
  8
0
 10
241.044
 11
241.012
 20
559.007
 21
558.936
  0
LINE
  8
0
 10
241.012
 11
240.978
 20
558.936
 21
558.865
  0
LINE
  8
0
 10
240.978
 11
240.941
 20
558.865
 21
558.796
  0
LINE
  8
0
 10
240.941
 11
240.902
 20
558.796
 21
558.727
  0
LINE
  8
0
 10
240.902
 11
240.861
 20
558.727
 21
558.66
  0
LINE
  8
0
 10
240.861
 11
240.818
 20
558.66
 21
558.595
  0
LINE
  8
0
 10
240.818
 11
240.773
 20
558.595
 21
558.531
  0
LINE
  8
0
 10
240.773
 11
240.725
 20
558.531
 21
558.468
  0
LINE
  8
0
 10
240.725
 11
240.676
 20
558.468
 21
558.406
  0
LINE
  8
0
 10
240.676
 11
240.625
 20
558.406
 21
558.347
  0
LINE
  8
0
 10
240.625
 11
240.572
 20
558.347
 21
558.289
  0
LINE
  8
0
 10
240.572
 11
240.518
 20
558.289
 21
558.232
  0
LINE
  8
0
 10
240.518
 11
240.461
 20
558.232
 21
558.178
  0
LINE
  8
0
 10
240.461
 11
240.403
 20
558.178
 21
558.125
  0
LINE
  8
0
 10
240.403
 11
240.344
 20
558.125
 21
558.074
  0
LINE
  8
0
 10
240.344
 11
240.282
 20
558.074
 21
558.025
  0
LINE
  8
0
 10
240.282
 11
240.219
 20
558.025
 21
557.977
  0
LINE
  8
0
 10
240.219
 11
240.155
 20
557.977
 21
557.932
  0
LINE
  8
0
 10
240.155
 11
240.09
 20
557.932
 21
557.889
  0
LINE
  8
0
 10
240.09
 11
240.023
 20
557.889
 21
557.848
  0
LINE
  8
0
 10
240.023
 11
239.954
 20
557.848
 21
557.809
  0
LINE
  8
0
 10
239.954
 11
239.885
 20
557.809
 21
557.772
  0
LINE
  8
0
 10
239.885
 11
239.814
 20
557.772
 21
557.738
  0
LINE
  8
0
 10
239.814
 11
239.743
 20
557.738
 21
557.706
  0
LINE
  8
0
 10
239.743
 11
239.67
 20
557.706
 21
557.676
  0
LINE
  8
0
 10
239.67
 11
239.597
 20
557.676
 21
557.648
  0
LINE
  8
0
 10
239.597
 11
239.523
 20
557.648
 21
557.622
  0
LINE
  8
0
 10
239.523
 11
239.447
 20
557.622
 21
557.599
  0
LINE
  8
0
 10
239.447
 11
239.372
 20
557.599
 21
557.579
  0
LINE
  8
0
 10
239.372
 11
239.295
 20
557.579
 21
557.56
  0
LINE
  8
0
 10
239.295
 11
239.218
 20
557.56
 21
557.544
  0
LINE
  8
0
 10
239.218
 11
239.141
 20
557.544
 21
557.531
  0
LINE
  8
0
 10
239.141
 11
239.063
 20
557.531
 21
557.52
  0
LINE
  8
0
 10
239.063
 11
238.985
 20
557.52
 21
557.511
  0
LINE
  8
0
 10
238.985
 11
238.907
 20
557.511
 21
557.505
  0
LINE
  8
0
 10
238.907
 11
238.829
 20
557.505
 21
557.501
  0
LINE
  8
0
 10
238.829
 11
238.75
 20
557.501
 21
557.5
  0
LINE
  8
0
 10
238.75
 11
238.671
 20
557.5
 21
557.501
  0
LINE
  8
0
 10
238.671
 11
238.593
 20
557.501
 21
557.505
  0
LINE
  8
0
 10
238.593
 11
238.515
 20
557.505
 21
557.511
  0
LINE
  8
0
 10
238.515
 11
238.437
 20
557.511
 21
557.52
  0
LINE
  8
0
 10
238.437
 11
238.359
 20
557.52
 21
557.531
  0
LINE
  8
0
 10
238.359
 11
238.282
 20
557.531
 21
557.544
  0
LINE
  8
0
 10
238.282
 11
238.205
 20
557.544
 21
557.56
  0
LINE
  8
0
 10
238.205
 11
238.128
 20
557.56
 21
557.579
  0
LINE
  8
0
 10
238.128
 11
238.053
 20
557.579
 21
557.599
  0
LINE
  8
0
 10
238.053
 11
237.977
 20
557.599
 21
557.622
  0
LINE
  8
0
 10
237.977
 11
237.903
 20
557.622
 21
557.648
  0
LINE
  8
0
 10
237.903
 11
237.83
 20
557.648
 21
557.676
  0
LINE
  8
0
 10
237.83
 11
237.757
 20
557.676
 21
557.706
  0
LINE
  8
0
 10
237.757
 11
237.686
 20
557.706
 21
557.738
  0
LINE
  8
0
 10
237.686
 11
237.615
 20
557.738
 21
557.772
  0
LINE
  8
0
 10
237.615
 11
237.546
 20
557.772
 21
557.809
  0
LINE
  8
0
 10
237.546
 11
237.477
 20
557.809
 21
557.848
  0
LINE
  8
0
 10
237.477
 11
237.41
 20
557.848
 21
557.889
  0
LINE
  8
0
 10
237.41
 11
237.345
 20
557.889
 21
557.932
  0
LINE
  8
0
 10
237.345
 11
237.281
 20
557.932
 21
557.977
  0
LINE
  8
0
 10
237.281
 11
237.218
 20
557.977
 21
558.025
  0
LINE
  8
0
 10
237.218
 11
237.156
 20
558.025
 21
558.074
  0
LINE
  8
0
 10
237.156
 11
237.097
 20
558.074
 21
558.125
  0
LINE
  8
0
 10
237.097
 11
237.039
 20
558.125
 21
558.178
  0
LINE
  8
0
 10
237.039
 11
236.982
 20
558.178
 21
558.232
  0
LINE
  8
0
 10
236.982
 11
236.928
 20
558.232
 21
558.289
  0
LINE
  8
0
 10
236.928
 11
236.875
 20
558.289
 21
558.347
  0
LINE
  8
0
 10
236.875
 11
236.824
 20
558.347
 21
558.406
  0
LINE
  8
0
 10
236.824
 11
236.775
 20
558.406
 21
558.468
  0
LINE
  8
0
 10
236.775
 11
236.727
 20
558.468
 21
558.531
  0
LINE
  8
0
 10
236.727
 11
236.682
 20
558.531
 21
558.595
  0
LINE
  8
0
 10
236.682
 11
236.639
 20
558.595
 21
558.66
  0
LINE
  8
0
 10
236.639
 11
236.598
 20
558.66
 21
558.727
  0
LINE
  8
0
 10
236.598
 11
236.559
 20
558.727
 21
558.796
  0
LINE
  8
0
 10
236.559
 11
236.522
 20
558.796
 21
558.865
  0
LINE
  8
0
 10
236.522
 11
236.488
 20
558.865
 21
558.936
  0
LINE
  8
0
 10
236.488
 11
236.456
 20
558.936
 21
559.007
  0
LINE
  8
0
 10
236.456
 11
236.426
 20
559.007
 21
559.08
  0
LINE
  8
0
 10
236.426
 11
236.398
 20
559.08
 21
559.153
  0
LINE
  8
0
 10
236.398
 11
236.372
 20
559.153
 21
559.227
  0
LINE
  8
0
 10
236.372
 11
236.349
 20
559.227
 21
559.303
  0
LINE
  8
0
 10
236.349
 11
236.329
 20
559.303
 21
559.378
  0
LINE
  8
0
 10
236.329
 11
236.31
 20
559.378
 21
559.455
  0
LINE
  8
0
 10
236.31
 11
236.294
 20
559.455
 21
559.532
  0
LINE
  8
0
 10
236.294
 11
236.281
 20
559.532
 21
559.609
  0
LINE
  8
0
 10
236.281
 11
236.27
 20
559.609
 21
559.687
  0
LINE
  8
0
 10
236.27
 11
236.261
 20
559.687
 21
559.765
  0
LINE
  8
0
 10
236.261
 11
236.255
 20
559.765
 21
559.843
  0
LINE
  8
0
 10
236.255
 11
236.251
 20
559.843
 21
559.921
  0
LINE
  8
0
 10
236.251
 11
236.25
 20
559.921
 21
560
  0
ENDSEC
  0
SECTION
  2
OBJECTS
  0
DICTIONARY
  0
ENDSEC
  0
EOF
